<?xml version="1.0" encoding="UTF-8"?>
<svg id="Layer_1" data-name="Layer 1" xmlns="http://www.w3.org/2000/svg" viewBox="0 0 360.51 268.62">
  <defs>
    <style>
      .cls-1 {
        fill: #fff;
      }
    </style>
  </defs>
  <path class="cls-1" d="m214.04,189.75c3.4,3.4,6.74,6.74,10.08,10.07.31.31.63.61.92.93.97,1.06,1,2.29.09,3.14-.87.82-2.05.79-3.04-.17-1.63-1.58-3.22-3.2-4.83-4.81-2.06-2.07-4.13-4.14-6.18-6.2-12.28,10.19-29.14,7.92-38.53-3.06-9.16-10.71-8.54-26.87,1.51-36.91,10.12-10.1,26.28-10.69,37-1.45,10.89,9.4,13.15,26.19,2.98,38.46Zm-20.76,5.31c12.77.01,23.1-10.28,23.1-23.04,0-12.75-10.34-23.11-23.07-23.1-12.64,0-23.03,10.36-23.07,23-.04,12.73,10.31,23.13,23.03,23.14Z"/>
  <path class="cls-1" d="m160.09,82.78c4.13.17,7.18,2.05,9.29,5.51,5.52,9.05,11.03,18.11,16.55,27.17,4.29,7.05,8.58,14.09,12.87,21.14.25.41.54.8.72,1.24.43,1.06.22,2.02-.77,2.63-.98.61-1.94.44-2.7-.44-.36-.43-.64-.94-.93-1.42-9.72-15.95-19.43-31.91-29.15-47.86-2.24-3.68-6.39-4.75-9.63-2.4-.85.62-1.57,1.52-2.13,2.43-5.01,8.14-9.96,16.31-14.94,24.47-.25.41-.48.85-.82,1.18-.78.76-1.71.89-2.62.27-.84-.58-1.16-1.4-.79-2.4.12-.32.3-.63.48-.92,5.1-8.39,10.2-16.78,15.31-25.17,2.12-3.47,5.21-5.29,9.25-5.43Z"/>
  <path class="cls-1" d="m137.03,179.3c-7.12,0-14.24-.03-21.36.01-4.4.03-7.82-1.7-9.98-5.54-2.19-3.89-2.09-7.87.19-11.71,2.58-4.35,5.26-8.66,7.89-12.98,4.06-6.67,8.12-13.35,12.18-20.02.25-.41.48-.85.81-1.18.76-.78,1.69-.93,2.61-.32.9.6,1.23,1.46.8,2.51-.18.44-.44.85-.69,1.26-6.56,10.78-13.1,21.56-19.69,32.32-1.3,2.12-1.88,4.3-1.08,6.73.99,2.99,3.4,4.74,6.64,4.74,14.24,0,28.48,0,42.72,0,.44,0,.87,0,1.31,0,1.86,0,2.86.76,2.83,2.14-.03,1.33-1,2.06-2.78,2.06-7.47,0-14.94,0-22.41,0Z"/>
  <path class="cls-1" d="m160.13,103.79c.96,0,1.92-.01,2.88,0,4.2.07,7.14,3.61,6.16,7.69-2.26,9.4-4.66,18.77-6.99,28.16-.29,1.15-.93,1.91-2.16,1.88-1.31-.03-1.84-.94-2.13-2.1-1.91-7.7-3.84-15.39-5.76-23.08-.4-1.61-.83-3.21-1.19-4.82-.88-3.97,1.98-7.61,6.05-7.72,1.05-.03,2.09,0,3.14,0Zm-.17,26.53c.08,0,.16-.01.24-.02,1.65-6.61,3.33-13.22,4.94-19.84.32-1.34-.7-2.43-2.18-2.46-1.79-.04-3.58-.02-5.36,0-2.11.01-2.94,1.07-2.44,3.11.96,3.89,1.94,7.77,2.92,11.66.63,2.52,1.26,5.04,1.89,7.57Z"/>
  <path class="cls-1" d="m166.33,151.98c.02,3.53-2.78,6.35-6.28,6.34-3.42,0-6.24-2.82-6.28-6.24-.04-3.46,2.84-6.34,6.32-6.33,3.45,0,6.22,2.78,6.24,6.24Zm-4.2.09c.02-1.17-.87-2.11-2.01-2.14-1.12-.02-2.11.92-2.14,2.04-.03,1.11.93,2.11,2.05,2.14,1.14.03,2.08-.88,2.1-2.04Z"/>
  <path class="cls-1" d="m134.74,122.24c-.06,1.12-1.09,2.04-2.2,1.98-1.15-.06-2-1.02-1.95-2.19.05-1.16,1.01-2.04,2.16-1.98,1.12.06,2.06,1.09,1.99,2.19Z"/>
  <path class="cls-1" d="m210.16,163.9c-.52.53-.99,1.29-1.67,1.64-.84.44-1.71.06-2.3-.72-.75-.97-1.38-2.04-2.23-2.9-.94-.95-2.06-1.74-3.14-2.54-1.18-.88-1.53-1.96-.86-3.03.65-1.04,1.86-1.26,3.1-.52,2.67,1.6,4.81,3.75,6.42,6.41.24.4.37.87.69,1.65Z"/>
</svg>