<?xml version="1.0" encoding="UTF-8"?>
<svg id="Layer_1" data-name="Layer 1" xmlns="http://www.w3.org/2000/svg" viewBox="0 0 458.86 404.61">
  <defs>
    <style>
      .cls-1 {
        fill: #fff;
      }
    </style>
  </defs>
  <path class="cls-1" d="m110.78,210.65c4.77-8.71,9.48-17.47,14.33-26.13,7.35-13.13,14.79-26.2,22.2-39.29,4.19-7.4,10.28-9.13,17.73-5.03,3.25,1.78,6.48,3.58,9.72,5.38,6.69,3.73,8.56,8.32,6.29,15.95,3.66,1.07,7.32,2.17,10.99,3.19.35.1.92-.14,1.22-.41,4.93-4.35,11.07-5.26,17.22-5.91,7.68-.81,15.38-1.31,23.07-2.04,4.66-.44,9.04.59,13.36,2.14,5.3,1.89,10.57,3.88,15.93,5.59,1.59.51,3.5.58,5.14.25,3.29-.67,6.5-1.75,9.09-2.48,0-2.94-.26-5.46.06-7.91.45-3.31,2.45-5.8,5.35-7.45,4.16-2.37,8.33-4.71,12.55-6.95,5.91-3.13,12.41-1.28,15.81,4.5,2.35,3.99,4.6,8.04,6.84,12.09,1.56,2.81.97,5.49-1.42,6.85-2.38,1.36-5.02.5-6.62-2.26-2.2-3.81-4.32-7.66-6.51-11.47-1.26-2.19-2.08-2.43-4.32-1.21-3.66,1.99-7.27,4.06-10.94,6.04-1.88,1.01-2.27,2.25-1.19,4.15,11.68,20.61,23.33,41.23,34.96,61.86,1.04,1.85,2.35,2.29,4.2,1.26,3.71-2.06,7.42-4.12,11.14-6.16,1.89-1.03,2.18-2.35,1.1-4.2-2.44-4.2-4.82-8.44-7.19-12.68-1.68-3.01-1.19-5.63,1.27-7.06,2.45-1.43,5.03-.52,6.73,2.44,2.54,4.41,5.09,8.82,7.53,13.29,3.33,6.09,1.43,12.65-4.61,16.11-3.62,2.07-7.28,4.06-10.93,6.06-7.12,3.92-13.38,2.19-17.48-4.82-.19-.33-.4-.65-.69-1.13-3.11,1.16-5.67,3.04-7.79,5.51-.32.38-.43,1.4-.15,1.75,6.76,8.68,1.92,22.79-10.34,24.79-.06.01-.11.1-.16.14-1.03,10.41-4.16,14.3-13.82,17.04.21,5.39-1.49,10.11-5.82,13.6-4.35,3.5-9.33,4.16-14.77,2.76-2.11,6.84-6.34,11.23-13.57,12.28-7.21,1.04-12-3.44-16.88-7.53-4.29,3.42-8.32,6.89-12.61,10.02-8.94,6.52-21.48,2-24.21-8.64-.43-1.69-.48-3.49-.72-5.41-8.9-2.05-13.55-7.71-13.54-17.03-9.96-3.25-13.33-7.44-13.7-17.1-.6-.19-1.24-.4-1.9-.58-10.47-2.84-15.03-14.53-9.09-23.59.96-1.46.81-2.34-.41-3.27-2.23-1.71-4.5-3.37-6.87-5.14-.8,1.3-1.3,2.15-1.84,2.99-3.27,5.04-9.48,6.94-14.82,4.26-4.62-2.32-9.08-4.94-13.58-7.48-2.84-1.61-4.16-4.4-5.36-7.25,0-1.54,0-3.09,0-4.63Zm113.41,58.54c4.45,2.45,7.84,5.94,8.27,10.89.33,3.89,2.08,6.16,5.03,8.07.9.58,1.68,1.35,2.54,2.01,3.21,2.46,7.04,2.23,9.3-.54,2.36-2.88,1.79-6.64-1.47-9.35-1.9-1.58-3.94-3-5.74-4.69-.9-.84-1.69-2.05-1.99-3.22-.48-1.88.35-3.52,2.03-4.54,1.94-1.18,3.85-.89,5.59.49,4.23,3.36,8.42,6.77,12.67,10.11,3.2,2.52,6.99,2.29,9.3-.5,2.37-2.88,1.82-6.73-1.42-9.35-3.78-3.06-7.59-6.08-11.39-9.11-3.49-2.78-4.21-5.31-2.18-7.76,1.95-2.36,4.54-2.21,7.9.46,3.99,3.17,7.96,6.36,11.96,9.51,1.99,1.56,4.22,1.86,6.53.85,2.24-.98,3.49-2.78,3.7-5.2.22-2.53-.99-4.42-2.93-5.95-3.94-3.11-7.88-6.22-11.74-9.42-1.87-1.55-2.24-3.66-1.27-5.62.93-1.88,2.97-2.99,5-2.46,1,.26,1.97.87,2.8,1.52,3.9,3.04,7.71,6.18,11.61,9.21,2.22,1.72,4.69,1.86,7.16.5,2.23-1.23,3.66-3.79,2.92-6.25-.51-1.72-1.67-3.52-3.06-4.66-8.31-6.79-16.66-13.53-25.19-20.03-7.85-5.99-15.88-11.75-23.95-17.44-6.19-4.37-13.1-6.02-20.65-4.7-2.73.48-5.48.91-8.24,1.18-12.99,1.26-24.84-4.73-27.33-18.44-.09-.47-.62-1.1-1.07-1.24-4.18-1.29-8.38-2.49-12.65-3.73-8.54,15.12-16.99,30.07-25.23,44.66,3.9,3.05,7.52,5.88,11.27,8.81,3.84-3.06,7.89-6.4,12.05-9.59,8.64-6.61,20.56-3.14,24.36,7.03.18.49.36.99.54,1.48,14.76-5.18,27.2,10.09,19.08,23.65,9.3,7.48,10.75,13.04,5.91,23.35Zm58.49-99.29c-4.2,1.18-8.2,2.28-12.19,3.43-3.69,1.07-7.26.86-10.87-.5-5.62-2.12-11.29-4.16-17.02-5.97-2.46-.78-5.15-1.39-7.68-1.24-8.09.46-16.17,1.19-24.22,2.09-3.18.36-6.32,1.32-9.4,2.25-2,.6-2.59,2.17-2.02,4.25,1.27,4.63,4.18,7.65,8.74,9.05,4.01,1.23,8.12,1.15,12.14.24,12.37-2.79,23.55-.37,33.69,7.19,7.43,5.53,14.99,10.88,22.36,16.49,6.99,5.31,13.8,10.85,20.39,16.06,3.79-2.95,7.42-5.76,11.27-8.75-8.26-14.61-16.67-29.49-25.19-44.57Zm-147.69,52.24c.66-.6,1.52-1.12,2.01-1.88,1.17-1.81,2.16-3.74,3.22-5.62,10.51-18.59,21.03-37.18,31.54-55.77,1.68-2.96,1.5-3.56-1.53-5.23-3.44-1.9-6.9-3.77-10.32-5.72-1.87-1.06-3.14-.64-4.18,1.21-11.63,20.61-23.29,41.21-34.93,61.82-1.23,2.18-.97,3.05,1.24,4.29,3.56,2,7.14,3.98,10.72,5.94.6.33,1.25.54,2.24.96Zm76.59,15.7c-.12-3.54-1.21-5.4-3.37-6.53-2.34-1.22-4.68-1.05-6.74.58-8.41,6.65-16.81,13.32-25.13,20.08-2.79,2.27-3.08,6.05-1,8.71,2.15,2.74,5.96,3.31,8.87,1.03,8.38-6.57,16.72-13.19,24.93-19.97,1.35-1.11,1.97-3.1,2.45-3.9Zm6.05,23.27c-.11-3.58-1.2-5.51-3.47-6.66-2.45-1.23-4.81-.87-6.92.81-5.68,4.5-11.36,9-16.98,13.57-3,2.44-3.43,6.22-1.18,9.02,2.18,2.71,5.93,3.2,8.88.91,5.78-4.49,11.53-9.03,17.12-13.75,1.35-1.14,2.03-3.07,2.55-3.89Zm-50.93-14.82c1.31-.56,2.81-.89,3.9-1.73,5.78-4.48,11.51-9.05,17.17-13.69,2.94-2.41,3.29-6.34,1.02-9.04-2.23-2.66-5.91-3.01-8.91-.74-2.09,1.57-4.11,3.25-6.15,4.89-3.73,2.99-7.5,5.93-11.16,8.99-2.22,1.86-2.79,4.6-1.77,7.11.98,2.41,3.11,3.85,5.9,4.2Zm57.01,37.94c-.17-3.37-1.14-5.29-3.31-6.46-2.33-1.26-4.65-1.15-6.74.45-3.37,2.58-6.71,5.2-9.95,7.93-2.74,2.32-3.09,6.06-1.02,8.71,2.16,2.78,5.9,3.3,8.87,1.05,3.32-2.51,6.64-5.06,9.72-7.85,1.27-1.15,1.92-2.98,2.43-3.83Z"/>
  <path class="cls-1" d="m224.79,114.48c0-3.71-.02-7.41,0-11.12.02-3.2,1.82-5.27,4.55-5.32,2.81-.04,4.69,2.08,4.7,5.41.02,7.33.02,14.67,0,22,0,3.34-1.87,5.47-4.67,5.44-2.77-.03-4.57-2.18-4.58-5.53-.02-3.63,0-7.26,0-10.88Z"/>
  <path class="cls-1" d="m203.11,135.6c-.13,2.7-1.22,4.2-3.27,4.84-2.18.68-3.99-.07-5.23-1.94-1.79-2.7-3.48-5.47-5.21-8.21-2.26-3.59-4.55-7.17-6.78-10.77-1.69-2.73-1.26-5.45,1.03-6.93,2.28-1.48,5.04-.76,6.73,1.91,3.94,6.18,7.84,12.39,11.71,18.62.55.88.81,1.95,1.02,2.49Z"/>
  <path class="cls-1" d="m277.29,116.96c-.23.54-.52,1.67-1.11,2.62-3.78,6.1-7.62,12.16-11.46,18.22-1.84,2.89-4.41,3.67-6.82,2.14-2.39-1.52-2.79-4.22-.98-7.11,3.89-6.21,7.8-12.41,11.72-18.6,1.26-1.99,3.11-2.82,5.37-2.16,2.05.59,3.17,2.1,3.29,4.89Z"/>
  <path class="cls-1" d="m319.67,177.12c-.02-2.58,1.92-4.57,4.48-4.61,2.56-.04,4.61,1.89,4.69,4.42.08,2.6-2.03,4.78-4.62,4.77-2.52-.01-4.52-2.03-4.54-4.58Z"/>
</svg>