<?xml version="1.0" encoding="UTF-8"?>
<svg id="Layer_1" data-name="Layer 1" xmlns="http://www.w3.org/2000/svg" viewBox="0 0 360.51 281.54">
  <defs>
    <style>
      .cls-1 {
        fill: #fff;
      }
    </style>
  </defs>
  <path class="cls-1" d="m156.43,163.22c.33.5.58.89.84,1.27,5.13,7.57,10.32,15.11,15.35,22.75,1.02,1.55,1.81,3.44,2.06,5.26.55,3.95-.82,7.36-4.16,9.67-3.35,2.32-6.98,2.84-10.74.94-1.98-1-3.57-2.46-4.82-4.31-5.74-8.48-11.5-16.94-17.25-25.41-.34-.5-.69-1-1.09-1.57-.29.14-.56.25-.81.39-9.72,5.71-22.57.65-25.23-11.65-1.53-7.06,1.01-12.88,6.89-17.11,3.43-2.47,7.01-4.72,10.47-7.15.77-.54,1.51-1.33,1.92-2.17,6.67-13.41,13.29-26.84,19.9-40.27,1.65-3.36,4.41-5.08,8.03-5.47,4.39-.47,8.34.99,12.11,3.02,6.98,3.77,12.62,9.12,17.59,15.21,7.18,8.79,12.8,18.45,15.76,29.5,1.27,4.75,1.95,9.57.94,14.47-.61,2.93-1.88,5.51-4.28,7.43-1.62,1.29-3.46,1.91-5.53,2.07-12.3.95-24.59,1.95-36.88,2.93-.29.02-.58.11-1.06.21Zm-3.79-59.76c.35,2.04.55,4.63,1.24,7.08,4.32,15.45,12.92,28.14,25.25,38.32,3.41,2.81,7.2,5.03,11.61,6.03,2.38.54,4.44-.11,5.89-1.89,1.06-1.29,1.88-2.96,2.29-4.58.83-3.31.37-6.67-.35-9.97-1.47-6.72-4.46-12.8-8.04-18.61-4.82-7.81-10.5-14.88-17.85-20.48-3.31-2.52-6.84-4.68-10.96-5.63-4.58-1.06-7.83,1.07-8.67,5.69-.21,1.15-.24,2.34-.4,4.03Zm-4.59,5.48c-.09.13-.2.26-.28.41-4.39,8.95-8.79,17.9-13.14,26.87-.2.42-.08,1.19.19,1.6,4.44,6.62,8.94,13.2,13.39,19.82.49.74,1.01.9,1.83.83,7.82-.64,15.64-1.24,23.46-1.86,2.15-.17,4.3-.36,6.52-.55-16.36-11.95-27.03-27.58-31.98-47.12Zm-17.53,31.78c-3.88,2.72-7.86,5.18-11.44,8.12-3.93,3.22-4.78,8.78-2.57,13.36,2.48,5.13,7.31,7.85,12.48,7.12,2.42-.34,4.4-1.53,6.35-2.88,2.85-1.98,5.74-3.91,8.65-5.89-4.51-6.63-8.93-13.15-13.46-19.82Zm10.46,28.11c.06.2.06.29.11.36,6.26,9.23,12.51,18.46,18.79,27.67.94,1.37,2.33,2.09,3.99,2.19,2.19.13,3.93-.76,5.04-2.64,1.24-2.09.99-4.15-.36-6.14-5.8-8.54-11.59-17.08-17.38-25.63-.69-1.02-1.83-1.41-2.88-.74-2.49,1.59-4.89,3.29-7.3,4.93Z"/>
  <path class="cls-1" d="m209.33,107.05c-1.64,0-2.49-.58-2.92-1.72-.43-1.12,0-2.29,1.14-3.05,2.49-1.67,5.01-3.3,7.52-4.95,3.27-2.15,6.54-4.3,9.82-6.44,1.62-1.06,3.12-.9,4.03.4.93,1.34.5,2.88-1.16,3.96-5.63,3.7-11.27,7.4-16.91,11.08-.56.37-1.23.58-1.51.71Z"/>
  <path class="cls-1" d="m213.04,118.92c2.93.52,5.75,1.02,8.58,1.53,4.16.74,8.31,1.5,12.47,2.23,1.67.29,2.72,1.49,2.49,2.92-.24,1.52-1.63,2.48-3.31,2.19-4.89-.86-9.77-1.76-14.65-2.65-2.06-.37-4.12-.72-6.16-1.15-1.16-.24-1.95-1.1-1.87-2.2.06-.84.67-1.69,1.2-2.42.22-.31.85-.33,1.24-.46Z"/>
  <path class="cls-1" d="m193.41,91.66c.63-6.11,1.25-12.23,1.89-18.34.18-1.69,1.32-2.68,2.88-2.52,1.51.16,2.4,1.4,2.22,3.11-.63,6.11-1.26,12.22-1.9,18.33-.23,2.16-1.26,3.18-2.97,2.98-1.58-.19-2.28-1.38-2.11-3.57Z"/>
  <path class="cls-1" d="m170.38,113.51c7.09,0,12.4,3.72,14.37,9.41,1.93,5.59.12,11.82-4.56,15.5-.5.4-1.08.78-1.68.96-1.19.35-2.42-.29-2.93-1.39-.53-1.13-.23-2.36.92-3.23,2.04-1.55,3.37-3.5,3.69-6.07.44-3.51-.78-6.37-3.64-8.4-2.87-2.03-5.98-2.16-9.15-.64-.39.19-.75.45-1.13.64-1.29.64-2.71.25-3.42-.92-.7-1.15-.41-2.66.77-3.46,2.32-1.59,4.91-2.38,6.77-2.4Z"/>
</svg>