<?xml version="1.0" encoding="UTF-8"?>
<svg id="Layer_1" data-name="Layer 1" xmlns="http://www.w3.org/2000/svg" viewBox="0 0 360.51 236.96">
  <defs>
    <style>
      .cls-1 {
        fill: #fff;
      }
    </style>
  </defs>
  <path class="cls-1" d="m196.55,106.8c0-4.25.03-8.32-.05-12.39,0-.33-.7-.8-1.16-.94-4.37-1.39-7.47-5.15-7.86-9.62-.4-4.65,1.94-8.91,6.03-10.97,5.74-2.89,12.74-.32,15.23,5.6,2.52,5.98-.57,12.84-6.78,14.81-1.25.4-1.55.95-1.52,2.17.09,4.3.06,8.61.08,12.91,0,1.52-.76,2.3-2.34,2.3-4.21,0-8.43,0-12.64,0-.44,0-.87,0-1.53,0,1.74,2.61,2.89,5.22,3.32,8.13.03.21.5.51.76.51,4.94.03,9.88,0,14.82.04.99,0,.9-.71,1.07-1.26,1.47-4.67,5.63-7.85,10.41-7.94,4.7-.09,9.01,2.83,10.65,7.24,2.16,5.82-.87,12.3-6.73,14.36-5.87,2.07-12.3-1.06-14.18-7.01-.38-1.21-.86-1.59-2.12-1.57-4.35.09-8.7.06-13.05.02-1.09-.01-1.54.18-1.86,1.43-.64,2.46-1.72,4.8-2.64,7.26,1.18,0,2.6,0,4.03,0,3.22,0,6.43,0,9.65,0,1.72,0,2.4.79,2.38,2.52-.04,4.44,0,8.88-.07,13.32-.01.96.44,1.17,1.22,1.4,4.95,1.49,8.06,5.89,7.91,11.07-.14,4.88-3.57,9.11-8.36,10.32-5.77,1.46-11.7-1.91-13.37-7.59-1.69-5.78,1.45-11.86,7.2-13.66,1.25-.39,1.54-.94,1.52-2.16-.08-3.71-.03-7.42-.03-11.26-.47-.03-.86-.09-1.25-.09-4.76,0-9.52-.02-14.27.02-.64,0-1.3.28-1.91.51-1.98.75-3.89,1.76-5.92,2.24-1.26.3-1.43.77-1.43,1.86.03,7.79.02,15.59.02,23.38,0,5.3,0,10.6,0,15.91,0,2.06-.62,2.72-2.63,2.73-2.58.02-5.17.03-7.75,0-3.28-.04-5.3-1.87-5.73-5.15-.2-1.48-.37-2.97-.51-4.45-.1-1.13-.59-1.8-1.76-2.08-5.24-1.23-10.15-3.28-14.73-6.11-.89-.55-1.67-.51-2.48.17-1.18.99-2.4,1.93-3.62,2.88-2.6,2.03-5.36,1.9-7.69-.4-1.9-1.88-3.8-3.76-5.67-5.67-2.14-2.18-2.31-4.95-.47-7.37.99-1.3,2.01-2.57,3.04-3.83.66-.81.72-1.6.17-2.49-2.87-4.61-4.9-9.58-6.16-14.86-.24-.98-.79-1.46-1.77-1.57-1.75-.19-3.51-.37-5.26-.64-2.58-.41-4.4-2.25-4.52-4.85-.14-3.12-.14-6.25,0-9.37.12-2.67,1.94-4.49,4.62-4.91,1.7-.26,3.41-.44,5.12-.62,1.04-.11,1.58-.64,1.83-1.67,1.25-5.23,3.27-10.16,6.12-14.73.59-.95.49-1.76-.21-2.6-1.01-1.22-2-2.46-2.96-3.72-1.85-2.43-1.7-5.21.42-7.38,1.93-1.97,3.88-3.93,5.86-5.86,2.12-2.07,4.91-2.22,7.28-.43,1.34,1.01,2.65,2.05,3.94,3.12.78.64,1.53.66,2.36.14,4.62-2.86,9.57-4.92,14.85-6.16,1.11-.26,1.55-.95,1.66-2.01.16-1.58.34-3.15.54-4.72.38-2.88,2.38-4.81,5.26-4.9,2.85-.09,5.71-.06,8.56-.01,1.68.03,2.28.78,2.28,2.67,0,13.1.02,26.19-.03,39.29,0,1.2.27,1.61,1.52,1.93,1.99.5,3.87,1.45,5.79,2.21.46.18.91.52,1.36.53,5.29.04,10.59.02,16.11.02Zm-28.71,54.89c-10.68-.71-19.83-4.77-27.22-12.51-7.43-7.79-11.16-17.16-11.2-27.91-.03-8.87,2.61-16.97,7.96-24.07,7.62-10.09,17.87-15.42,30.46-16.36v-16.78c-1.97,0-3.87,0-5.76,0-.41,0-.82,0-1.22.05-.92.13-1.26.74-1.35,1.61-.16,1.53-.37,3.06-.52,4.59-.28,2.72-1.65,4.52-4.27,5.16-5.1,1.25-9.87,3.24-14.36,5.95-2.16,1.3-4.33,1.11-6.34-.43-1.29-.99-2.57-2.01-3.83-3.04-.93-.75-1.77-.74-2.63.13-1.81,1.84-3.64,3.66-5.48,5.48-.82.81-.89,1.62-.16,2.51.94,1.16,1.86,2.34,2.79,3.51,1.96,2.49,2.12,4.51.46,7.24-2.54,4.17-4.36,8.63-5.55,13.36-.8,3.18-2.42,4.51-5.71,4.83-1.4.13-2.79.35-4.18.48-1.18.11-1.64.75-1.63,1.9.03,2.58.03,5.17,0,7.75-.01,1.14.44,1.79,1.63,1.9,1.49.14,2.97.35,4.45.51,3.03.33,4.67,1.71,5.41,4.67,1.19,4.78,3.03,9.28,5.58,13.49,1.66,2.74,1.5,4.77-.46,7.25-.93,1.17-1.85,2.35-2.79,3.51-.73.9-.65,1.71.16,2.52,1.84,1.82,3.67,3.64,5.48,5.48.86.87,1.7.89,2.63.14,1.23-1,2.48-1.98,3.72-2.96,2.09-1.63,4.3-1.81,6.57-.45,4.41,2.66,9.09,4.63,14.11,5.84,2.7.65,4.11,2.44,4.4,5.2.16,1.53.37,3.06.52,4.59.09.86.43,1.57,1.35,1.6,2.3.06,4.6.02,6.97.02v-16.76Zm.09-76.96c-13.19,1.22-23.38,7.12-29.75,18.52-7.29,13.04-6.7,26.22,1.61,38.64,6.59,9.84,16.17,14.91,28.03,15.89.05-.39.1-.56.1-.74,0-5.75-.02-11.51.03-17.26,0-1-.54-1.02-1.25-1.15-8.07-1.49-14.13-8.39-14.47-16.45-.36-8.34,4.98-15.72,12.97-17.93.9-.25,2.15-.24,2.59-.83.46-.63.16-1.83.16-2.78,0-5.2,0-10.41,0-15.92Zm15.59,36.68c-.07-8.17-6.06-13.93-14.37-13.83-7.08.08-13.2,6.55-13.06,13.86.15,7.83,6.61,13.85,14.45,13.59,7.03-.24,13.05-6.39,12.98-13.61Zm14.95,45.55c3.96.02,7.22-3.14,7.28-7.07.06-3.99-3.2-7.33-7.16-7.34-3.97-.01-7.2,3.15-7.25,7.08-.05,4.05,3.11,7.3,7.13,7.32Zm.09-91.37c-4.04,0-7.23,3.21-7.22,7.24.01,3.96,3.21,7.16,7.16,7.17,3.99.01,7.28-3.28,7.25-7.25-.03-3.94-3.26-7.17-7.19-7.16Zm23.28,45.64c-.02-3.97-3.24-7.18-7.16-7.16-4.04.02-7.25,3.24-7.23,7.25.02,4.01,3.29,7.21,7.31,7.15,3.97-.06,7.1-3.26,7.08-7.23Z"/>
</svg>