<?xml version="1.0" encoding="UTF-8"?>
<svg id="Layer_1" data-name="Layer 1" xmlns="http://www.w3.org/2000/svg" viewBox="0 0 447.1 437.39">
  <defs>
    <style>
      .cls-1 {
        fill: #fff;
      }
    </style>
  </defs>
  <path class="cls-1" d="m240.15,203.31c-1.01,1.3-1.86,2.58-2.89,3.72-8.14,8.98-22,8.04-29.05-2-.88-1.25-1.53-1.57-3.03-1.02-7.99,2.91-16.04,5.65-24.05,8.49-9.69,3.43-15.52,11.65-15.58,21.88,0,.34,0,.67,0,1.01-.09,2.19-1.37,3.54-3.31,3.49-1.84-.05-3.09-1.37-3.11-3.47-.13-11.9,4.79-21.11,15.24-26.82,4.54-2.48,9.67-3.87,14.58-5.65,5.03-1.83,10.11-3.54,15.16-5.31,2.81-.98,3.16-1.72,3.35-4.71.23-3.72-.5-6.77-2.99-9.89-4.52-5.65-6.16-12.63-6.45-19.76-.26-6.22-.5-12.52.22-18.67,1.45-12.32,12.87-21.72,25.41-21.61,12.58.11,23.83,9.42,25.17,21.66,1.1,10.06,1.25,20.23-1.96,30.08-1.34,4.12-3.43,7.84-6.32,11.11-.51.58-.82,1.5-.88,2.29-.13,1.67.03,3.35-.06,5.03-.11,2.2.84,3.46,2.93,4.19,8.35,2.89,16.66,5.88,24.99,8.84,12.98,4.62,20.53,15.24,20.4,28.71-.02,2.56-1.17,3.99-3.21,3.99-2.03,0-3.2-1.43-3.23-3.97-.14-11.16-5.5-18.8-15.99-22.59-8.42-3.05-16.89-6-25.34-9Zm-7.44-11.28c-2.69.55-5.59,1.29-8.55,1.69-2.21.3-3.7-1-3.85-2.87-.15-1.85,1.14-3.29,3.37-3.46,7.37-.58,12.23-4.74,15.45-11.01,3.78-7.34,3.92-15.29,3.62-23.47-5.62,1.85-11.19,2.13-16.83,1.27-6.31-.97-12.25-2.92-17.3-7-1.86-1.5-2.17-3.38-.95-4.89,1.22-1.5,3.01-1.42,5-.15,2.24,1.43,4.53,2.94,7.01,3.83,6.96,2.51,14.07,3.25,21.25.69,1.17-.42,1.73-.92,1.42-2.33-1.91-8.61-10.17-15.1-19.09-14.9-9.22.2-17.42,6.73-18.58,15.6-.73,5.61-.59,11.38-.35,17.06.29,6.86,1.7,13.62,6.56,18.78,2.44,2.59,3.27,5.17,2.95,8.45-.07.66.07,1.35-.02,2.01-.37,2.48-.82,4.96-1.17,7.44-.08.53-.02,1.19.24,1.63,2.39,4.08,5.9,6.3,10.72,6.25,4.81-.05,8.23-2.44,10.67-6.43.21-.35.33-.88.24-1.27-.58-2.37-1.22-4.72-1.81-6.94Z"/>
  <path class="cls-1" d="m171.99,186.39c-.73.17-1.24.3-1.75.41-2.36.53-3.99-.23-4.54-2.1-.53-1.8.6-3.31,2.82-4.11,1.5-.54,3.06-1.11,4.31-2.05,4.51-3.35,6.03-7.45,5.48-14.08-2.01-.28-4.06-.49-6.07-.87-4.08-.79-7.73-2.59-11.05-5.07-2.18-1.63-2.67-3.43-1.4-5.09,1.23-1.6,3.02-1.67,5.13-.12,3.95,2.9,8.27,4.6,13.24,4.48-.06-6.07-5.01-11.53-10.84-12.07-6.9-.64-13.26,3.39-14.13,9.7-.67,4.8-.49,9.76-.29,14.63.12,3.03,1.78,5.63,4.16,7.56,1.57,1.27,2.14,2.74,2.07,4.72-.11,3.28-.06,6.58-.02,9.86.02,1.78-.83,2.81-2.45,3.48-4.83,1.99-9.72,3.87-14.4,6.17-5.71,2.8-8.65,7.65-8.9,14.02-.11,2.88.02,5.77-.04,8.66-.03,1.84.74,3.02,2.42,3.77,3.74,1.65,7.45,3.37,11.15,5.08,2.21,1.03,3.02,2.66,2.26,4.43-.81,1.89-2.61,2.43-4.91,1.41-3.79-1.69-7.58-3.41-11.34-5.15-3.98-1.85-6.09-5.01-5.98-9.4.11-4.68-.07-9.45.82-14,1.33-6.84,5.67-11.74,11.99-14.73,3.81-1.8,7.7-3.45,11.6-5.08,1.03-.43,1.51-.96,1.35-2.07-.07-.46-.06-.94,0-1.41.36-3.05-.46-5.49-2.53-7.99-1.78-2.16-3.17-5.19-3.42-7.96-.5-5.63-.74-11.43.04-17.01,1.23-8.85,9.65-15.38,18.7-15.45,9.07-.07,17.64,6.51,18.87,15.47.79,5.7.39,11.61.09,17.41-.18,3.55-2.12,6.62-4.57,9.18-1.07,1.12-1.56,2.2-1.44,3.7.14,1.85-.47,4.12.4,5.46.82,1.27,3.13,1.58,4.78,2.3,1.6.7,3.22,1.34,4.79,2.09,1.87.89,2.56,2.62,1.8,4.3-.76,1.69-2.46,2.35-4.38,1.57-3.97-1.61-7.93-3.25-11.86-4.95-1.34-.58-2.01-1.68-1.96-3.21.05-1.92.01-3.85.01-5.9Z"/>
  <path class="cls-1" d="m287.92,186.41c-.96.21-1.73.41-2.51.54-1.84.31-3.42-.7-3.83-2.41-.38-1.58.58-3.09,2.25-3.78,1.72-.7,3.55-1.29,5.05-2.33,3.8-2.64,5.43-6.5,5.47-11.06.03-3.02.05-6.04,0-9.06-.12-7.16-5.78-12.77-12.85-12.78-7.04-.02-12.77,5.62-12.89,12.74-.05,3.22-.03,6.44,0,9.66.02,3.91,1.47,7.22,4.45,9.74,1.47,1.24,2.08,2.63,2.02,4.54-.11,3.35-.06,6.71-.02,10.06.02,1.62-.69,2.7-2.12,3.31-3.45,1.46-6.91,2.9-10.38,4.32-2.2.9-4.01.35-4.78-1.41-.78-1.8.04-3.51,2.19-4.46,2.45-1.09,4.95-2.06,7.35-3.25.59-.29.91-1.19,1.26-1.86.14-.26,0-.66.03-.99.34-3.3-.24-6.08-2.72-8.72-2.66-2.83-3.68-6.68-3.68-10.61,0-4.55-.23-9.17.4-13.65,1.34-9.49,10.23-16.35,19.79-15.8,9.94.57,17.92,8.24,18.32,17.99.2,4.94.05,9.92-.36,14.84-.29,3.55-2.18,6.6-4.65,9.14-1.04,1.06-1.16,2.18-1.39,3.53-.77,4.39.93,6.75,5.2,7.89,2.56.68,4.97,1.99,7.38,3.15,8.44,4.08,12.83,10.88,13.23,20.22.13,3.01.06,6.04.01,9.06-.07,4.05-1.92,7.09-5.56,8.87-3.97,1.94-8.02,3.72-12.06,5.51-2.04.9-3.78.29-4.59-1.45-.8-1.72-.07-3.45,1.95-4.39,3.7-1.73,7.41-3.44,11.16-5.06,1.91-.83,2.78-2.12,2.69-4.21-.17-3.68.09-7.41-.41-11.03-.73-5.26-3.82-9.14-8.61-11.39-4.72-2.22-9.58-4.14-14.4-6.15-1.52-.64-2.39-1.63-2.37-3.34.03-1.93,0-3.86,0-5.91Z"/>
  <path class="cls-1" d="m204.24,291.87c-.23-.33-.55-.97-1.02-1.45-3.87-3.99-7.78-7.96-11.67-11.93-1.11-1.13-2.13-2.29-1.53-4.05.58-1.72,1.99-2.12,3.61-2.38,5.36-.86,10.69-1.85,16.05-2.7,1.47-.23,2.32-.86,2.99-2.2,2.43-4.85,5.03-9.61,7.49-14.44.72-1.42,1.61-2.49,3.3-2.52,1.79-.03,2.72,1.1,3.47,2.58,2.5,4.89,5.11,9.72,7.58,14.62.62,1.23,1.44,1.73,2.74,1.93,5.55.89,11.09,1.88,16.64,2.79,1.52.25,2.94.86,3.06,2.41.09,1.16-.37,2.7-1.15,3.54-3.87,4.18-7.96,8.15-11.87,12.3-.62.66-1.06,1.89-.95,2.77.7,5.58,1.54,11.15,2.43,16.7.25,1.58.14,2.96-1.2,3.97-1.38,1.04-2.75.58-4.14-.12-4.96-2.49-9.97-4.9-14.92-7.43-1.13-.58-1.99-.63-3.15-.04-5,2.56-10.08,4.99-15.11,7.51-1.41.7-2.77,1.12-4.13.04-1.32-1.04-1.37-2.42-1.12-4,.89-5.56,1.66-11.13,2.48-16.7.04-.27.06-.53.13-1.19Zm33.99,13.69c-.73-5-1.32-9.44-2.04-13.86-.27-1.62.12-2.86,1.26-4,2.93-2.95,5.82-5.94,8.72-8.93.33-.34.59-.75.98-1.26-4.76-.82-9.24-1.63-13.74-2.35-1.62-.26-2.66-1.07-3.38-2.5-1.64-3.23-3.33-6.43-5.01-9.63-.45-.85-.94-1.67-1.55-2.73-2.1,3.99-4.15,7.61-5.91,11.36-1.09,2.33-2.67,3.43-5.19,3.75-4.13.54-8.23,1.36-12.69,2.12,3.31,3.4,6.3,6.56,9.4,9.61,1.46,1.44,2.19,2.91,1.66,5.02-.44,1.75-.57,3.57-.82,5.36-.35,2.53-.68,5.05-1.07,8.01,4.25-2.1,8.07-3.88,11.77-5.87,2.05-1.1,3.81-1.08,5.85.02,3.7,1.99,7.51,3.76,11.76,5.86Z"/>
  <path class="cls-1" d="m300.32,288.03c-.5-3.4-.88-6.45-1.43-9.47-.43-2.35-.14-4.3,1.83-5.95,2.41-2.01,4.67-4.21,7-6.33-.15-.26-.3-.52-.45-.77-3.32-.59-6.63-1.27-9.96-1.73-1.85-.26-3.05-1.07-3.88-2.73-1.51-3.06-3.15-6.05-4.91-9.4-1.67,3.18-3.27,6.08-4.72,9.04-.9,1.85-2.16,2.88-4.27,3.15-3.23.41-6.43,1.08-10.13,1.72,1.78,1.82,3.29,3.37,4.8,4.93,1.12,1.16,2.28,2.27,3.33,3.5,1.17,1.37,1.09,3.2-.07,4.37-1.27,1.29-3.11,1.4-4.5.01-4.18-4.17-8.34-8.36-12.39-12.66-2.1-2.22-.9-5.05,2.23-5.59,4.62-.8,9.26-1.52,13.86-2.42.82-.16,1.79-.87,2.2-1.6,2.21-3.98,4.27-8.05,6.37-12.09.71-1.37,1.58-2.51,3.32-2.5,1.75.01,2.58,1.18,3.29,2.55,2.06,3.99,4.17,7.95,6.21,11.95.52,1.03,1.12,1.59,2.37,1.78,4.51.66,8.98,1.54,13.48,2.28,1.56.25,2.89.73,3.4,2.37.5,1.62-.27,2.83-1.38,3.94-3.08,3.09-6.08,6.25-9.19,9.31-1.04,1.02-1.47,1.95-1.2,3.49.79,4.35,1.32,8.75,1.99,13.12.24,1.55.25,3.24-1.27,3.89-1.12.48-2.8.47-3.92-.03-4.04-1.79-7.97-3.82-11.89-5.86-1.3-.67-2.33-.79-3.7-.06-3.96,2.11-7.97,4.13-12.08,5.94-1.12.49-2.86.54-3.91,0-2.13-1.09-1.81-4.2.48-5.37,5.25-2.69,10.52-5.33,15.88-7.78.96-.44,2.51-.13,3.58.33,3.17,1.38,6.22,3,9.63,4.68Z"/>
  <path class="cls-1" d="m177.75,265.48c-3.41-.59-6.81-1.23-10.24-1.74-1.61-.24-2.69-1.01-3.42-2.44-1.58-3.09-3.21-6.16-5.04-9.65-1.58,3.01-3.14,5.62-4.35,8.39-1.09,2.5-2.79,3.71-5.47,4-2.97.32-5.91.95-9.34,1.52,2.39,2.45,4.42,4.73,6.67,6.77,1.93,1.75,2.66,3.63,2.1,6.24-.64,2.99-.93,6.07-1.43,9.5,3.39-1.67,6.46-3.09,9.45-4.68,1.65-.88,3.1-.85,4.74,0,4.77,2.44,9.59,4.79,14.4,7.15,1.36.67,2.32,1.59,2.3,3.22-.03,2.51-2.44,3.84-4.96,2.64-4.23-2.02-8.43-4.11-12.6-6.25-1.06-.54-1.88-.58-2.96-.03-4.05,2.09-8.15,4.06-12.23,6.1-1.4.7-2.81,1.07-4.17.05-1.35-1.01-1.4-2.41-1.14-3.99.72-4.43,1.4-8.87,1.92-13.33.11-.9-.26-2.13-.87-2.78-3.14-3.4-6.4-6.68-9.66-9.97-1.07-1.08-1.94-2.43-1.14-3.73.64-1.04,2-2,3.2-2.26,4.52-.97,9.11-1.58,13.64-2.47.82-.16,1.79-.87,2.2-1.6,2.22-3.98,4.29-8.04,6.38-12.08.72-1.39,1.57-2.5,3.31-2.5,1.75,0,2.57,1.16,3.29,2.54,2.06,3.99,4.19,7.94,6.23,11.94.53,1.04,1.11,1.61,2.36,1.79,4.57.68,9.12,1.54,13.68,2.3,1.49.25,3,.81,3.12,2.36.09,1.22-.4,2.81-1.21,3.7-3.67,4.01-7.53,7.83-11.35,11.7-1.8,1.83-3.66,1.97-5.09.48-1.36-1.41-1.24-3.27.5-4.95,2.5-2.42,5.1-4.75,7.65-7.12-.16-.26-.32-.52-.48-.78Z"/>
</svg>