<?xml version="1.0" encoding="UTF-8"?>
<svg id="Layer_1" data-name="Layer 1" xmlns="http://www.w3.org/2000/svg" viewBox="0 0 558.87 473.54">
  <defs>
    <style>
      .cls-1 {
        fill: #fff;
      }
    </style>
  </defs>
  <path class="cls-1" d="m320.4,196.18c-5.17,5.52-10.2,10.9-15.4,16.46,11.42,14,15.95,30.62,12.24,49.13-2.9,14.45-10.53,26.14-22.39,34.89-24.1,17.79-57.38,14.36-77.57-7.87-19.75-21.75-19.74-55.6-.19-77.48,20.48-22.92,57.49-27.01,83.09-3.87,5.04-5.43,10.09-10.87,15.27-16.45-4.5-4.38-10.08-8.56-16.3-11.78-25.83-13.36-51.7-13.34-77.52.09-.34.18-.67.39-1.01.56-2.14,1.06-3.83.7-4.8-1.01-.95-1.68-.42-3.57,1.73-4.54,5.94-2.67,11.77-5.84,17.99-7.58,31.37-8.8,59.38-2.2,83.91,19.22.4.35.8.69,1.31,1.13,4.74-4.63,9.44-9.15,14.03-13.78.52-.53.63-1.68.58-2.53-.46-7.21-.96-14.42-1.56-21.62-.16-1.86.37-3.22,1.69-4.51,6.04-5.92,12.03-11.9,18.01-17.87,1.14-1.14,2.5-2.32,4.01-1.41,1.07.64,2.01,2.1,2.29,3.36,1.36,6.15,2.54,12.34,3.66,18.53.25,1.36.79,1.93,2.12,2.19,5.5,1.07,11.01,2.16,16.45,3.46,1.25.3,2.88,1.32,3.22,2.37.33,1.03-.4,2.86-1.27,3.76-5.83,6.02-11.77,11.94-17.82,17.74-.92.88-2.56,1.48-3.85,1.45-6.76-.19-13.51-.7-20.28-.92-1.13-.04-2.59.51-3.38,1.31-4.39,4.41-8.62,8.98-12.99,13.58,14.9,17.28,22.64,37.71,21.73,61.13-.9,23.44-10.18,43.22-26.87,59.81,3.79,5.79,7.58,11.55,11.36,17.32,2.46,3.75,2.22,4.78-1.61,7.13-5.44,3.33-10.87,6.67-16.32,9.98-2.58,1.57-3.9,1.3-5.65-1.15-4.01-5.62-8-11.26-11.84-16.68-5.63,1.73-10.97,3.71-16.47,5-18.22,4.25-36.02,2.65-53.28-4.56-1.63-.68-2.38-.42-3.33.97-3.43,5.01-6.99,9.93-10.5,14.88-2.1,2.95-3.31,3.2-6.32,1.35-5.57-3.41-11.14-6.82-16.7-10.24-2.77-1.7-3.12-3.16-1.35-5.87,3.61-5.54,7.19-11.09,10.89-16.56.88-1.3.71-2.01-.35-3.07-15.37-15.43-23.8-34.07-25.5-55.76-.19-2.39.95-4.04,2.92-4.19,1.91-.15,3.23,1.27,3.43,3.75,1.61,19.83,9.18,37,23.15,51.2,23.46,23.84,59.18,30.64,89.84,17.27,30.52-13.31,49.79-44.46,48.1-77.8-.89-17.51-6.88-33.09-17.79-46.8-.57-.72-1.18-1.42-1.79-2.11-.2-.23-.44-.42-1.01-.97Zm-36.26,36.81c9.86,14.08,5.36,31.05-5.72,39.76-11.57,9.1-28.04,8.15-38.49-2.25-10.34-10.3-11.34-26.7-2.47-38.32,8.32-10.9,26.4-16.46,42.09-4.4,5.04-5.39,10.11-10.82,15.18-16.24-17.07-16.57-49.35-19.41-71.07,2.11-20.09,19.9-19.75,53.73.95,73.55,21.13,20.23,54.98,19.01,74.3-2.76,19.8-22.3,15.01-52.55.74-67.64-.39.34-.81.66-1.17,1.04-4.76,5.02-9.52,10.04-14.35,15.15Zm-10.16-.94c-5.2-5.27-19.08-7.88-29.04,1.39-9.06,8.44-9.56,22.84-1.11,31.94,8.4,9.06,22.64,9.68,31.76,1.44,9.53-8.6,9.23-22.44,3.19-29.71-3.68,3.59-7.35,7.17-11.02,10.76-2.37,2.32-4.18,2.66-5.72,1.06-1.53-1.59-1.09-3.21,1.31-5.69,3.58-3.7,7.08-7.47,10.62-11.21Zm80.64-96.83l-.65-.35c-4.38,4.5-8.77,9-13.13,13.53-.29.3-.56.81-.53,1.2.36,5.55.78,11.09,1.18,16.64.3.2.6.41.9.61,1.69-1.96,3.31-4,5.09-5.87,2.14-2.24,4.05-2.48,5.54-.92,1.44,1.52,1.08,3.35-1.15,5.53-1.69,1.65-3.42,3.25-5.25,4.99.55.29.73.47.93.48,4.6.27,9.2.57,13.8.71.69.02,1.52-.61,2.08-1.16,2.87-2.78,5.68-5.62,8.5-8.44,1.27-1.28,2.52-2.58,3.99-4.08-5.13-1.06-9.85-2.05-14.58-2.99-1.93-.39-3.1-1.35-3.47-3.42-1-5.5-2.15-10.98-3.24-16.46Zm-135.87,191.46c-4.55-3.06-8.99-6.04-13.61-9.15-3.29,5.02-6.63,10.1-10.04,15.31,4.61,2.81,8.97,5.48,13.45,8.21,3.48-4.9,6.84-9.64,10.2-14.37Zm83.4.01c3.41,4.79,6.78,9.54,10.23,14.39,4.56-2.8,8.97-5.51,13.43-8.25-3.47-5.29-6.76-10.29-10.03-15.27-4.56,3.06-9.01,6.04-13.63,9.14Z"/>
  <path class="cls-1" d="m180.38,230.75c-2.58.02-4.29-1.61-3.79-3.47.98-3.69,2.25-7.31,3.65-10.86.6-1.51,2.17-1.92,3.74-1.33,1.68.63,2.42,2,1.92,3.68-1.02,3.37-2.11,6.73-3.42,9.99-.39.96-1.64,1.57-2.09,1.98Z"/>
  <path class="cls-1" d="m204.08,191.14c-.65,1.12-1.01,1.98-1.58,2.66-1.77,2.12-3.6,4.19-5.43,6.26-1.45,1.64-3.2,1.91-4.66.76-1.42-1.13-1.63-3.03-.28-4.7,1.93-2.38,3.88-4.77,6.1-6.87.76-.72,2.47-.99,3.5-.68.93.28,1.53,1.64,2.33,2.58Z"/>
</svg>