<?xml version="1.0" encoding="UTF-8"?>
<svg id="Layer_1" data-name="Layer 1" xmlns="http://www.w3.org/2000/svg" viewBox="0 0 458.86 452.27">
  <defs>
    <style>
      .cls-1 {
        fill: #fff;
      }
    </style>
  </defs>
  <path class="cls-1" d="m254.9,280.17c8.13-3.63,16.01-7,23.75-10.66,5.97-2.81,11.78-5.96,17.64-9,2.73-1.42,5.54-2.31,8.66-1.9,6.3.83,9.97,6.52,7.62,12.4-.92,2.29-2.49,4.67-4.43,6.13-6.38,4.8-13.03,9.26-19.66,13.72-3.1,2.08-6.4,3.87-9.63,5.77-2.67,1.57-4.53,1.41-5.53-.41-1-1.8-.15-3.29,2.54-4.98,8.25-5.2,16.5-10.42,24.66-15.76,1.88-1.23,3.57-2.83,5.12-4.47,1.22-1.3,2.1-3.02.99-4.81-1.18-1.9-3.16-1.71-4.96-1.23-1.32.35-2.56,1.07-3.79,1.72-15.34,8.22-31.11,15.44-47.47,21.43-14.78,5.41-29.28,3.73-43.79-.83-.77-.24-1.51-.59-2.22-.97-1.67-.9-2.3-2.54-1.52-4.06.88-1.69,2.28-2.24,4.06-1.51,7.78,3.24,15.96,4.54,24.3,4.45,4.34-.04,8.75-.76,12.99-1.76,3.26-.77,4.67-3.2,4.42-5.78-.27-2.93-2.46-4.9-5.7-4.95-10.27-.14-20.36-1.49-30.06-4.95-6.9-2.46-13.71-5.2-20.52-7.89-8.95-3.53-17.21-2.24-25.02,3.21-7.6,5.3-13.82,12.02-19.96,19.04.43.48.78.93,1.18,1.32,7.94,7.95,15.91,15.87,23.81,23.86,1.03,1.04,1.82,1.26,3.21.68,6.05-2.51,12.43-3.64,18.93-3.44,9.9.3,19.81.75,29.68,1.54,13.44,1.07,26.2-.81,38.07-7.47.32-.18.65-.35.98-.5,1.87-.8,3.6-.33,4.38,1.21.78,1.54.2,3.35-1.56,4.26-6.33,3.27-12.82,6.15-19.86,7.61-9.33,1.93-18.7,1.18-28.09.65-8.72-.49-17.45-.94-26.17-1.04-4.83-.06-9.6.97-14.31,2.99,1.58,5.46-1.24,9.1-4.93,12.5-3.24,2.99-6.24,6.22-9.38,9.32-2.11,2.09-3.52,2.1-5.63,0-6.97-6.95-13.93-13.91-20.88-20.88-1.68-1.69-1.89-3.51-.63-4.85,1.33-1.42,3.23-1.26,4.99.5,6.39,6.38,12.76,12.79,19.15,19.21,3.69-3.61,7.35-7.07,10.85-10.69,1.33-1.38.92-3.15-.78-4.85-6.58-6.61-13.18-13.2-19.78-19.8-3.01-3.01-6.01-6.04-9.04-9.03-2.19-2.17-3.79-2.15-6,.05-3.08,3.05-6.13,6.13-9.19,9.2-.15.15-.26.35-.6.85,1.93,1.82,3.93,3.64,5.85,5.55,1.58,1.57,1.72,3.35.49,4.66-1.27,1.36-3.22,1.27-4.85-.33-2.57-2.52-5.12-5.06-7.63-7.64-1.78-1.84-1.76-3.29.08-5.14,4.03-4.07,8.08-8.12,12.15-12.15,2.56-2.54,5.7-3.35,9.12-2.44,1.34.36,1.98,0,2.78-.91,5.63-6.51,11.54-12.75,18.54-17.83,6.51-4.72,13.57-7.94,21.85-7.33,6.39.47,12.25,2.9,18.06,5.34,8.88,3.73,17.84,7.19,27.46,8.42,4.07.52,8.2,1.05,12.28.92,7.48-.24,13.22,5.02,12.9,13.72Z"/>
  <path class="cls-1" d="m321.8,201.24c-3.61-2.08-7.03-4.06-10.61-6.12-7.53,13.04-14.99,25.97-22.54,39.05,3.62,2.09,7.03,4.06,10.63,6.15,1.73-2.98,3.41-5.87,5.1-8.76.48-.82.89-1.7,1.47-2.45,1.09-1.43,2.56-1.74,4.08-.82,1.43.86,2.06,2.32,1.16,3.78-3.96,6.44-6.61,13.71-12.85,18.7-5.33,4.25-10.19,9.09-15.31,13.61-2.68,2.36-6.18,1.51-6.97-1.63-.18-.74-.09-1.61.07-2.37,1.68-8.19,3.38-16.37,5.13-24.54.23-1.05.65-2.11,1.19-3.04,11.6-20.15,23.22-40.29,34.86-60.41,3.09-5.34,8.49-7.78,13.92-6.4,7.92,2,11.75,10.68,7.81,17.96-2.23,4.13-4.66,8.15-7.01,12.21-4.65,8.07-9.31,16.14-13.97,24.2-.15.25-.29.51-.44.76-1.34,2.26-2.91,2.92-4.63,1.95-1.72-.97-2.01-2.74-.74-4.96,2.77-4.84,5.57-9.66,8.35-14.49.4-.69.77-1.4,1.29-2.35Zm9.51-16.48c1.88-3.2,4.38-6.03,2.21-9.86-1.28-2.25-3.3-3.27-5.88-3.04-4.11.37-5.17,3.79-6.87,6.81,3.52,2.03,6.93,4,10.54,6.09Zm-13.71-.78c-1.18,2.09-2.2,3.9-3.28,5.8,3.63,2.1,7.04,4.07,10.61,6.13,1.14-1.98,2.21-3.84,3.33-5.79-3.62-2.09-7.02-4.05-10.66-6.15Zm-31.04,56.12c-1.09,5.23-2.12,10.12-3.28,15.67,4.22-3.79,7.95-7.13,11.91-10.68-2.91-1.69-5.61-3.24-8.63-4.99Z"/>
  <path class="cls-1" d="m194.25,121.22c0,6.7,0,13.08,0,19.46,0,5.29.01,10.58,0,15.86,0,2.35-1.21,3.79-3.06,3.78-1.87-.01-3.09-1.43-3.09-3.79-.02-12.56-.02-25.12,0-37.68,0-2.65,1.13-3.79,3.75-3.79,22.18-.01,44.36,0,66.54,0,2.93,0,5.47,1.06,7.53,3.11,9.16,9.12,18.3,18.26,27.42,27.42,2.18,2.19,3.11,4.91,3.11,7.99-.01,15.13,0,30.26,0,45.39,0,2.58-1.1,4-3.04,4.04-2.01.04-3.12-1.41-3.12-4.15,0-14.76,0-29.52,0-44.29,0-4.59-2.26-6.83-6.92-6.85-5.21-.02-10.43.01-15.64-.01-2.96-.01-3.92-.98-3.93-3.98-.02-5.21.02-10.43-.01-15.64-.03-4.66-2.27-6.87-6.89-6.87-20.05,0-40.1,0-60.15,0-.72,0-1.45,0-2.46,0Zm75.79,20.16h9.45c-3.07-3.1-6.31-6.37-9.45-9.54v9.54Z"/>
  <path class="cls-1" d="m194.25,245.48h2.83c23.72,0,47.44,0,71.16,0,.73,0,1.48-.05,2.2.04,1.68.22,2.66,1.19,2.73,2.91.07,1.73-.9,2.75-2.51,3.13-.63.15-1.31.09-1.97.09-25.33,0-50.67,0-76,0-3.66,0-4.6-.92-4.6-4.51,0-25.48,0-50.96,0-76.44,0-.8-.14-1.85.29-2.33.8-.89,1.92-1.88,3.01-2.02,1.48-.19,2.56.95,2.8,2.54.12.79.06,1.61.06,2.42,0,23.72,0,47.44,0,71.16v3.03Z"/>
  <path class="cls-1" d="m239.88,147.12v-8.94h-29.97v8.94c2.78,0,5.48-.02,8.17,0,2.42.02,3.82,1.12,3.86,2.97.04,1.85-1.38,3.14-3.72,3.18-3.6.06-7.2.06-10.79,0-2.68-.04-3.79-1.13-3.82-3.76-.05-4.62-.05-9.25,0-13.88.03-2.66,1.15-3.78,3.77-3.78,11.67-.02,23.35-.02,35.02,0,2.62,0,3.75,1.15,3.78,3.78.04,4.62.04,9.25,0,13.88-.02,2.6-1.15,3.73-3.81,3.77-3.6.06-7.2.05-10.79,0-2.33-.04-3.77-1.32-3.74-3.17.03-1.84,1.45-2.96,3.85-2.98,2.7-.02,5.39,0,8.21,0Z"/>
  <path class="cls-1" d="m242.25,182.96c-11.53,0-23.06.03-34.59-.05-1.13,0-2.55-.44-3.31-1.2-1.59-1.58-.56-4.25,1.7-4.78.77-.18,1.6-.13,2.41-.13,22.55,0,45.1,0,67.64,0,.22,0,.44,0,.66,0,2.68.03,4.2,1.19,4.15,3.17-.05,1.9-1.5,2.99-4.08,2.99-11.53,0-23.06,0-34.59,0Z"/>
  <path class="cls-1" d="m242.47,207.57c11.24,0,22.47,0,33.71,0,.66,0,1.33-.04,1.98.05,1.7.23,2.66,1.32,2.72,2.95.06,1.56-.84,2.65-2.37,3.03-.7.17-1.46.13-2.19.13-22.7,0-45.39,0-68.09,0-.73,0-1.49.05-2.19-.12-1.54-.37-2.43-1.45-2.39-3.01.05-1.65.98-2.74,2.68-2.98.65-.09,1.32-.05,1.98-.05,11.38,0,22.77,0,34.15,0Z"/>
  <path class="cls-1" d="m242.17,167.58c-11.46,0-22.91.02-34.37-.03-.98,0-2.23-.09-2.88-.67-.7-.62-1.26-1.93-1.12-2.82.14-.88,1.11-1.82,1.96-2.34.67-.41,1.7-.3,2.57-.3,22.62-.01,45.24-.01,67.86-.01.44,0,.88-.02,1.32,0,2.12.14,3.51,1.47,3.41,3.26-.09,1.71-1.43,2.88-3.5,2.89-11.75.02-23.5.01-35.25.01Z"/>
  <path class="cls-1" d="m242.2,198.35c-11.31,0-22.62,0-33.93,0-.66,0-1.34.06-1.98-.05-1.67-.3-2.64-1.37-2.63-3.04,0-1.67.99-2.72,2.65-3.02.5-.09,1.03-.05,1.54-.05,22.92,0,45.83,0,68.75,0,.59,0,1.19-.05,1.76.08,1.64.37,2.59,1.47,2.53,3.13-.05,1.55-1,2.58-2.55,2.89-.64.13-1.32.07-1.98.07-11.38,0-22.77,0-34.15,0Z"/>
  <path class="cls-1" d="m213.45,231.87c-2.2,0-4.39.01-6.59,0-1.92-.02-3.01-1.07-3.22-2.91-.19-1.71,1.2-3.17,3.16-3.21,4.46-.08,8.93-.08,13.39,0,1.84.04,3,1.11,3.09,3.03.08,1.77-1.24,3.02-3.25,3.07-2.19.06-4.39.01-6.59.01Z"/>
</svg>