<?xml version="1.0" encoding="UTF-8"?>
<svg id="Layer_1" data-name="Layer 1" xmlns="http://www.w3.org/2000/svg" viewBox="0 0 444.89 501.14">
  <defs>
    <style>
      .cls-1 {
        fill: #fff;
      }
    </style>
  </defs>
  <path class="cls-1" d="m188.25,291.74c-1.25-7.96-5.14-14.18-11.32-18.97-11.62-9-20.12-20.27-25.18-34.1-15.7-42.93,10.86-90.47,55.53-99.41,42.08-8.42,82.56,19.17,89.25,61.54,4.43,28.1-4.71,51.74-26.48,70.15-6.02,5.09-11.17,10.48-13.02,18.38-.11.46-.21.92-.27,1.38-.04.3,0,.62,0,1.13,3.72.55,7.2,1.93,8.98,5.46,1.04,2.08,1.77,4.61,1.68,6.9-.22,5.62-4.46,9.42-10.99,10.41v7.29c2.97.4,7-.84,7.32,4.01.16,2.53-1.58,3.34-7.44,3.77.17,4.12-.06,8.22-3.23,11.47-3.22,3.3-7.26,3.67-11.71,3.4-.45,6.42-2.89,11.72-8.17,15.43-3.73,2.62-7.91,3.73-12.44,3.33-9.48-.84-16.25-8.11-17.19-18.65-10.4.59-15.7-4.24-14.97-15.02-3.17-.34-7.19.89-7.44-4.02-.13-2.57,1.38-3.26,7.29-3.72,0-2.36,0-4.75,0-7.13-7.44-1.82-11.09-5.6-11.11-11.52-.01-5.86,3.57-9.71,10.94-11.49Zm60.6.11c.4-1.89.68-3.59,1.12-5.24,2.36-8.96,8.07-15.42,15.02-21.27,20.87-17.59,29.08-40.16,23.42-66.78-7.59-35.72-40.8-57.88-76.97-52.39-41.83,6.35-67.73,51.4-52.28,90.87,4.59,11.72,11.76,21.52,21.7,29.23,6.9,5.35,11.82,12.01,14.07,20.52.43,1.65.72,3.33,1.08,5.06h52.85Zm-26.17,7.61c-10.81,0-21.62,0-32.43,0-.7,0-1.43-.07-2.11.06-2.02.38-3.25,1.62-3.25,3.7,0,2.08,1.23,3.33,3.25,3.7.76.14,1.56.06,2.34.06,21.31,0,42.62,0,63.93,0,.78,0,1.59.08,2.35-.06,2.02-.37,3.25-1.62,3.25-3.7,0-2.08-1.23-3.32-3.25-3.7-.68-.13-1.41-.06-2.11-.06-10.65,0-21.31,0-31.96,0Zm25.98,15.2h-52.36v7.25h52.36v-7.25Zm-52.54,14.96c0,1.31-.04,2.4,0,3.48.12,2.47,1.51,3.93,4.01,3.94,14.86.04,29.73.04,44.59,0,2.5,0,3.9-1.47,4.02-3.94.06-1.14,0-2.28,0-3.49h-52.64Zm37.5,15.09h-22.36c.09,6.19,5,11.09,11.06,11.15,6.16.06,11.19-4.84,11.31-11.15Z"/>
  <path class="cls-1" d="m122.66,216.72c-2.9,0-5.79.03-8.69,0-2.7-.03-4.41-1.59-4.33-3.87.07-2.19,1.71-3.62,4.33-3.63,5.87-.03,11.75-.03,17.62,0,2.7.01,4.41,1.59,4.34,3.86-.07,2.18-1.72,3.61-4.33,3.64-2.98.04-5.95,0-8.93,0Z"/>
  <path class="cls-1" d="m322.26,216.72c-2.98,0-5.95.03-8.93,0-2.71-.03-4.42-1.57-4.36-3.84.05-2.19,1.7-3.64,4.3-3.66,5.87-.03,11.75-.03,17.62,0,2.72.01,4.42,1.56,4.36,3.84-.06,2.19-1.71,3.63-4.31,3.66-2.9.04-5.79,0-8.69,0Z"/>
  <path class="cls-1" d="m152.79,161.31c-.99,1.22-1.61,2.7-2.62,3.05-1.2.41-3.01.27-4.08-.4-3.9-2.45-7.59-5.21-11.37-7.85-1.22-.85-2.46-1.66-3.64-2.55-1.9-1.45-2.29-3.57-1.03-5.34,1.2-1.68,3.32-2.13,5.19-.86,5.16,3.52,10.29,7.09,15.33,10.77.91.66,1.37,1.93,2.22,3.19Z"/>
  <path class="cls-1" d="m132.57,279.54c-.84-.75-2.15-1.49-2.85-2.62-.93-1.49-.41-3.19.97-4.19,5.26-3.8,10.58-7.54,15.96-11.18,1.73-1.17,3.53-.66,4.79.97,1.28,1.66,1.22,3.65-.4,4.85-5.34,3.95-10.85,7.69-16.31,11.47-.42.29-1.02.34-2.15.69Z"/>
  <path class="cls-1" d="m296.03,260.48c1.43.75,2.38,1.13,3.19,1.69,4.69,3.24,9.36,6.5,14.02,9.79,2.42,1.71,2.97,3.84,1.6,5.75-1.37,1.9-3.53,2.04-5.98.33-4.81-3.35-9.6-6.71-14.39-10.08-1.56-1.1-2.48-2.66-1.51-4.42.66-1.21,2.02-2.05,3.07-3.06Z"/>
  <path class="cls-1" d="m295.98,165.47c-1.06-1.03-2.58-1.84-2.91-2.99-.33-1.17.06-3.27.93-3.93,5.24-3.97,10.65-7.7,16.11-11.36,1.74-1.16,3.54-.52,4.74,1.14,1.16,1.6.93,3.29-.42,4.71-.69.72-1.59,1.27-2.42,1.85-4.23,2.96-8.46,5.94-12.72,8.86-.88.6-1.89,1-3.31,1.73Z"/>
  <path class="cls-1" d="m250.88,257.5c-1.01-.4-1.84-.63-2.57-1.04-1.64-.92-3.23-1.92-4.84-2.89-3.22-1.93-6.07-.78-6.96,2.82-.47,1.9-.95,3.79-1.43,5.69-.53,2.08-1.83,3.25-4.01,3.25-5.8.01-11.59.02-17.39-.01-2.08-.01-3.35-1.14-3.87-3.11-.48-1.81-.93-3.64-1.38-5.46-1.04-4.17-3.6-5.21-7.32-2.98-1.54.92-3.08,1.86-4.64,2.77-1.92,1.12-3.69,1.01-5.32-.64-3.97-4-7.98-7.97-11.96-11.96-1.61-1.61-1.82-3.35-.58-5.3.97-1.52,1.85-3.09,2.78-4.63,2.19-3.65,1.08-6.36-3.01-7.36-1.9-.47-3.8-.91-5.69-1.43-1.89-.52-2.89-1.81-2.89-3.78-.02-5.8-.01-11.59,0-17.39,0-2.08,1.04-3.38,3.04-3.91,1.96-.52,3.92-1.15,5.92-1.47,1.86-.3,2.79-1.21,3.43-2.97.47-1.31.55-2.27-.23-3.45-1.26-1.89-2.37-3.87-3.52-5.83-1-1.71-.8-3.35.56-4.73,4.13-4.18,8.28-8.33,12.47-12.45,1.4-1.38,3.05-1.48,4.74-.52,1.7.97,3.37,1.99,5.05,2.99,3.5,2.09,6.2.97,7.17-2.95.45-1.82.93-3.64,1.38-5.46.52-2.11,1.88-3.26,4.01-3.28,5.72-.05,11.44-.05,17.16,0,2.24.02,3.64,1.21,4.16,3.41.47,1.98,1.05,3.93,1.43,5.93.29,1.54,1.1,2.28,2.53,2.95,1.66.78,2.88.6,4.29-.38,1.61-1.11,3.34-2.03,5.01-3.05,1.93-1.18,3.7-1.02,5.32.6,3.99,3.99,7.97,7.98,11.96,11.97,1.6,1.6,1.84,3.36.62,5.31-.91,1.46-1.77,2.95-2.66,4.43-2.44,4.05-1.36,6.56,3.29,7.68,1.67.4,3.34.82,5.01,1.25,2.1.53,3.17,1.89,3.17,4.06,0,5.72.01,11.44,0,17.15,0,2.06-1.01,3.4-3.01,3.94-1.81.48-3.61,1.06-5.46,1.36-2.14.35-3.67,1.27-4.01,3.5-.13.89-.13,1.98.25,2.75,1.02,2.02,2.26,3.93,3.45,5.87,1.14,1.86.98,3.58-.55,5.12-4.03,4.06-8.05,8.12-12.15,12.11-.73.71-1.82,1.06-2.72,1.57Zm7.81-72.82c-1.26-1.12-2.45-2.13-3.59-3.2-1.65-1.54-3.13-4.15-4.95-4.4-1.78-.25-3.9,1.86-5.87,2.94-.14.08-.28.15-.41.24-1.59,1.06-3.17,1-4.88.19-1.83-.87-3.71-1.65-5.63-2.32-1.81-.63-2.86-1.78-3.29-3.62-.44-1.9-.87-3.82-1.48-5.67-.18-.56-.94-1.3-1.45-1.32-3.51-.12-7.03-.06-10.66-.06-.39,1.48-.93,2.81-1.08,4.18-.44,4.06-2.42,6.6-6.53,7.42-.97.2-1.91.71-2.78,1.22-1.99,1.16-3.83.98-5.71-.28-1.49-1-3.03-1.95-4.64-2.74-.51-.25-1.55-.16-1.95.2-2.6,2.37-5.08,4.86-7.64,7.34,1.05,1.77,1.84,3.4,2.9,4.83,1.9,2.54,1.48,4.81.59,7.8-1.68,5.69-5.13,8.39-10.74,8.87-1.46.13-1.74.92-1.7,2.21.07,2.74.09,5.48,0,8.22-.05,1.4.31,2.14,1.81,2.4,1.84.31,3.76.64,5.42,1.43,1.27.61,2.47,1.78,3.2,3,1.07,1.79,1.59,3.9,2.53,5.79.86,1.73.78,3.26-.22,4.87-1.27,2.04-2.47,4.12-3.8,6.37,1.53,1.44,2.98,2.76,4.36,4.14,1.37,1.37,2.67,2.8,3.98,4.19,1.36-.81,2.44-1.32,3.35-2.03,3.34-2.63,6.73-3.41,10.48-.78.8.57,1.86.83,2.84,1.08,2.07.53,3.14,1.87,3.57,3.89.36,1.68.85,3.33,1.21,5.02.26,1.21.71,1.88,2.16,1.82,2.89-.13,5.8.05,8.69-.11.66-.04,1.6-.8,1.84-1.44.64-1.75.96-3.62,1.44-5.43,1.02-3.81,10.51-7.74,13.93-5.76,2.02,1.17,4.01,2.38,5.85,3.48,2.88-2.91,5.61-5.68,8.49-8.59-1.07-1.8-2.23-3.83-3.49-5.81-1.02-1.6-1.12-3.14-.29-4.87.92-1.89,1.72-3.85,2.44-5.83.62-1.71,1.68-2.72,3.46-3.13,2.35-.54,4.68-1.19,7.11-1.82,0-1.63.03-3.11,0-4.59-.06-2.4.67-5.43-.51-7.02-1.09-1.48-4.24-1.49-6.51-2.03-1.86-.44-2.98-1.5-3.61-3.29-.67-1.91-1.44-3.8-2.33-5.62-.83-1.71-.84-3.25.19-4.87,1.26-1.98,2.41-4.02,3.89-6.51Z"/>
  <path class="cls-1" d="m216.73,218.75c5.11-5.11,9.96-9.97,14.83-14.83,1.66-1.66,3.28-3.36,5.01-4.95,1.81-1.67,3.95-1.69,5.46-.2,1.58,1.56,1.53,3.76-.3,5.6-7.28,7.33-14.59,14.64-21.93,21.92-1.96,1.94-3.99,1.9-5.97-.04-3.52-3.45-7.01-6.94-10.47-10.45-1.97-1.99-2.08-4.13-.4-5.77,1.58-1.54,3.73-1.43,5.61.43,2.67,2.64,5.27,5.35,8.15,8.3Z"/>
</svg>