<?xml version="1.0" encoding="UTF-8"?>
<svg id="Layer_1" data-name="Layer 1" xmlns="http://www.w3.org/2000/svg" viewBox="0 0 470.63 389.87">
  <defs>
    <style>
      .cls-1 {
        fill: #fff;
      }
    </style>
  </defs>
  <path class="cls-1" d="m224.36,336.95c0-3.45.08-6.53-.05-9.61-.04-.89-.57-1.83-1.09-2.61-9.45-14.21-18.98-28.37-28.36-42.63-1-1.52-1.56-3.56-1.66-5.39-.24-4.38-.1-8.78-.07-13.17.02-2.89,1.49-4.63,3.85-4.66,2.37-.03,3.88,1.72,3.95,4.57,0,.24,0,.49,0,.73.05,4.38-.82,9.04.4,13.08,1.19,3.95,4.49,7.26,6.89,10.84,7.26,10.89,14.48,21.8,21.84,32.62,1.54,2.27,2.31,4.53,2.15,7.26-.17,2.9-.04,5.81-.04,8.84h38.91c.05-.67.14-1.36.14-2.06,0-9.43-.02-18.87.02-28.3.01-2.58-.73-4.76-2.59-6.59-8.11-7.99-16.19-16.02-24.3-24-2.05-2.02-4.34-2.1-6-.36-1.6,1.69-1.43,3.83.46,5.84.39.41.8.81,1.21,1.21,5.29,5.29,10.61,10.55,15.85,15.9.8.82,1.54,1.98,1.69,3.08.39,2.78-2.39,4.79-4.98,3.67-.93-.4-1.75-1.16-2.49-1.89-13.05-12.95-26.06-25.93-39.13-38.86-1.55-1.54-2.28-3.17-2.26-5.38.09-9.11.06-18.22.02-27.33-.02-5.2-2.83-9.27-7.8-11.06,0,3.49.16,6.85-.08,10.18-.09,1.31-.74,2.93-1.7,3.76-2.23,1.92-5.83.29-5.94-2.72-.21-5.44-.15-10.9-.02-16.34.06-2.29,1.85-3.55,4.42-3.55,10.03,0,18.72,8.58,18.89,18.92.15,8.62-.02,17.24.11,25.86.02,1.21.62,2.67,1.44,3.56,3.97,4.29,8.1,8.42,12.32,12.76.57-.66.83-.93,1.05-1.23,4.68-6.56,12.77-7.31,18.54-1.61,7.75,7.66,15.42,15.4,23.13,23.11.62.62,1.27,1.2,2.02,1.91.75-.7,1.41-1.29,2.03-1.9,7.42-7.42,14.83-14.84,22.25-22.26,6.81-6.8,14.34-6.22,20.22,1.82,2.13-2.12,4.24-4.21,6.34-6.31,2.53-2.53,6.04-4.66,7.29-7.72,1.29-3.14.41-7.19.43-10.84.03-5.45-.03-10.9.02-16.35.08-10.13,6.92-18.02,16.93-19.56,4.74-.73,6.49.77,6.49,5.55,0,19.6.05,39.2-.07,58.8-.01,1.89-.65,4.05-1.68,5.62-9.1,13.86-18.32,27.64-27.6,41.38-1.34,1.98-2.1,3.9-1.92,6.31.17,2.25.04,4.53.04,7.14,1.39,0,2.67-.07,3.93.01,2.31.15,3.88,1.78,3.86,3.91-.02,2.13-1.59,3.69-3.92,3.86-.65.05-1.3.02-1.95.02-35.14,0-70.27,0-105.41,0-.41,0-.81,0-1.22,0-2.87-.06-4.61-1.54-4.6-3.92,0-2.38,1.74-3.83,4.63-3.88.96-.02,1.92,0,3.16,0Zm124.96-116.11c-4.6,1.18-7.77,5.56-7.79,10.74-.05,9.19-.07,18.38.02,27.58.02,2.13-.68,3.67-2.17,5.15-8.85,8.75-17.63,17.58-26.43,26.38-4.49,4.49-8.96,8.99-13.47,13.45-1.84,1.82-3.72,2.03-5.45.75-2.15-1.59-2.17-4.06.02-6.27,5.73-5.77,11.52-11.49,17.23-17.28,1.99-2.02,2.03-4.38.26-6.01-1.7-1.58-3.82-1.41-5.81.56-8.08,8.03-16.13,16.08-24.2,24.12-1.7,1.7-2.52,3.72-2.52,6.13.02,9.76,0,19.52.02,29.28,0,.46.1.92.14,1.34h38.9c0-3.27.11-6.36-.04-9.44-.11-2.32.57-4.21,1.86-6.13,9.44-14.03,18.83-28.09,28.15-42.2.75-1.13,1.21-2.67,1.21-4.02.08-17.24.05-34.49.05-51.73v-2.4Z"/>
  <path class="cls-1" d="m232.17,191.17c0-4.56.04-9.11-.02-13.67-.03-2.25.93-3.67,3-4.49,12.68-5.04,25.33-10.15,38.03-15.12,1.16-.45,2.79-.44,3.95,0,12.7,4.97,25.35,10.07,38.02,15.13,1.73.69,2.91,1.86,2.9,3.81-.1,10.24.57,20.57-.53,30.71-2.46,22.86-14.88,38.9-35.54,48.89-5.09,2.46-9.47,2.41-14.47-.11-22.53-11.35-34.41-29.45-35.34-54.68-.13-3.49-.02-6.99-.02-10.49Zm7.81,1.73c-.07,0-.14,0-.21,0,.23,5.11-.01,10.3.78,15.33,3.15,20.09,14.24,34.1,33.09,41.86.81.33,1.97.4,2.76.08,18.96-7.74,30.43-21.74,33.21-41.98,1.24-9.03.54-18.34.59-27.53,0-.63-.97-1.56-1.69-1.85-10.53-4.29-21.08-8.51-31.66-12.66-.94-.37-2.27-.42-3.2-.05-10.74,4.2-21.43,8.52-32.15,12.75-1.17.46-1.56,1.08-1.53,2.32.08,3.9.03,7.81.03,11.71Z"/>
  <path class="cls-1" d="m240.7,154.19c-.81.98-1.5,2.47-2.63,2.98-1.03.47-2.99.38-3.77-.32-4.14-3.76-8.13-7.7-11.98-11.75-1.46-1.54-1.16-3.52.35-5.05,1.51-1.53,3.51-1.87,5.04-.41,4.11,3.91,8.03,8.02,11.96,12.11.46.48.57,1.31,1.02,2.43Z"/>
  <path class="cls-1" d="m271.23,129.72c0-2.44-.06-4.88.02-7.32.07-2.49,1.69-4.12,3.91-4.1,2.21.02,3.82,1.66,3.85,4.16.06,5.04.06,10.08,0,15.12-.03,2.48-1.7,4.12-3.91,4.1-2.21-.02-3.79-1.66-3.85-4.16-.07-2.6-.01-5.2-.01-7.81Z"/>
  <path class="cls-1" d="m212.49,196.37c-2.44,0-4.88.05-7.32-.01-2.52-.06-4.17-1.6-4.22-3.8-.05-2.3,1.64-3.95,4.28-3.97,4.96-.05,9.92-.05,14.88,0,2.52.03,4.17,1.59,4.22,3.79.06,2.29-1.66,3.92-4.29,3.98-2.52.06-5.04.01-7.56.01Z"/>
  <path class="cls-1" d="m337.45,196.37c-2.44,0-4.88.05-7.32-.01-2.52-.06-4.17-1.6-4.22-3.8-.06-2.3,1.64-3.95,4.28-3.98,4.96-.05,9.92-.05,14.88,0,2.52.03,4.17,1.59,4.22,3.79.06,2.29-1.66,3.92-4.29,3.98-2.52.06-5.04.01-7.56.01Z"/>
  <path class="cls-1" d="m329.23,142.54c-.92,1.47-1.4,2.62-2.21,3.45-3.33,3.45-6.74,6.83-10.16,10.19-1.95,1.91-3.68,1.99-5.34.4-1.67-1.6-1.72-3.73.04-5.62,3.38-3.63,6.81-7.21,10.26-10.78,1.23-1.27,2.83-1.95,4.39-.94,1.17.76,1.96,2.1,3.02,3.29Z"/>
  <path class="cls-1" d="m196.94,243.25c2.09-.06,3.89,1.63,3.98,3.73.09,2.09-1.58,3.92-3.67,4.04-2.18.13-4.08-1.66-4.1-3.85-.02-2.1,1.69-3.86,3.79-3.92Z"/>
  <path class="cls-1" d="m267.13,210.86c6.9-6.99,13.23-13.4,19.56-19.81.57-.58,1.13-1.18,1.79-1.65,1.68-1.2,3.42-1.1,4.88.31,1.55,1.49,1.67,3.26.43,5.07-.18.27-.4.52-.62.75-7.64,7.64-15.26,15.31-22.94,22.91-2.02,1.99-3.87,1.89-5.97-.14-2.39-2.32-4.75-4.67-7.07-7.07-1.93-1.99-2.05-4.16-.42-5.82,1.63-1.67,3.79-1.57,5.83.3.78.71,1.56,1.43,2.26,2.22.7.79,1.3,1.66,2.28,2.93Z"/>
</svg>