<?xml version="1.0" encoding="UTF-8"?>
<svg id="Layer_1" data-name="Layer 1" xmlns="http://www.w3.org/2000/svg" xmlns:xlink="http://www.w3.org/1999/xlink" viewBox="0 0 420.86 405.63">
  <defs>
    <style>
      .cls-1 {
        fill: url(#linear-gradient);
      }

      .cls-2 {
        fill: #fff;
      }
    </style>
    <linearGradient id="linear-gradient" x1="81.63" y1="209.96" x2="351.88" y2="209.96" gradientUnits="userSpaceOnUse">
      <stop offset="0" stop-color="#090b65"/>
      <stop offset="1" stop-color="#100931"/>
    </linearGradient>
  </defs>
  <g>
    <polygon class="cls-2" points="223.19 82.81 227.54 173.65 201.94 184.77 191.88 205.41 197.05 225.94 213.59 240.52 227.54 246.17 227.54 341.45 204.06 341.45 197.05 318.69 174.42 311.49 156.8 300.69 140.54 309.69 130.03 310.31 117.65 295.48 116.02 284.36 125.62 271.89 107.85 227.55 87.62 223.47 86.6 196.29 102.12 190.16 108.25 190.16 113.98 173.61 126.44 147.87 115 127.23 135.43 107.62 155.45 119.47 188.55 103.94 198.16 99.65 202.24 77.78 223.19 76.35 223.19 82.81"/>
    <circle class="cls-2" cx="291.41" cy="124.44" r="19.83"/>
    <circle class="cls-2" cx="327.19" cy="209.92" r="19.83"/>
    <circle class="cls-2" cx="291.41" cy="295.48" r="19.83"/>
    <circle class="cls-2" cx="225.86" cy="210.01" r="32.58"/>
  </g>
  <path class="cls-1" d="m286.99,177.78c0-9.44.06-18.48-.12-27.53-.01-.73-1.55-1.77-2.57-2.09-9.72-3.09-16.61-11.46-17.46-21.39-.89-10.34,4.31-19.8,13.41-24.38,12.76-6.43,28.31-.71,33.86,12.45,5.6,13.28-1.26,28.53-15.06,32.91-2.78.88-3.44,2.11-3.38,4.82.2,9.56.13,19.13.18,28.7.02,3.38-1.69,5.11-5.21,5.12-9.37.02-18.73,0-28.1,0-.97,0-1.94,0-3.39,0,3.86,5.79,6.43,11.61,7.38,18.07.07.47,1.11,1.13,1.7,1.13,10.98.07,21.95,0,32.93.09,2.2.02,2-1.58,2.38-2.8,3.28-10.39,12.51-17.45,23.13-17.66,10.46-.2,20.02,6.3,23.66,16.09,4.81,12.92-1.94,27.33-14.96,31.92-13.04,4.6-27.34-2.35-31.51-15.57-.85-2.7-1.91-3.54-4.72-3.48-9.66.2-19.34.13-29,.03-2.41-.03-3.42.4-4.14,3.17-1.42,5.46-3.82,10.66-5.88,16.14,2.62,0,5.79,0,8.95,0,7.15,0,14.3-.01,21.45,0,3.81,0,5.33,1.75,5.3,5.61-.08,9.87,0,19.74-.14,29.61-.03,2.14.99,2.59,2.72,3.12,10.99,3.32,17.92,13.09,17.58,24.6-.32,10.85-7.93,20.24-18.59,22.93-12.83,3.23-26.01-4.25-29.71-16.87-3.76-12.84,3.23-26.36,16.01-30.36,2.78-.87,3.43-2.1,3.37-4.8-.18-8.25-.07-16.5-.07-25.02-1.05-.08-1.91-.19-2.78-.2-10.57-.01-21.15-.05-31.72.04-1.42.01-2.88.62-4.25,1.14-4.39,1.67-8.64,3.9-13.17,4.99-2.8.67-3.18,1.71-3.17,4.13.08,17.32.04,34.64.04,51.97,0,11.78,0,23.57,0,35.35,0,4.59-1.38,6.04-5.84,6.07-5.74.04-11.48.07-17.22,0-7.28-.09-11.78-4.16-12.75-11.45-.43-3.29-.83-6.59-1.13-9.9-.23-2.51-1.32-4.01-3.91-4.61-11.64-2.74-22.56-7.29-32.73-13.58-1.99-1.23-3.7-1.13-5.5.38-2.62,2.2-5.34,4.28-8.04,6.39-5.78,4.52-11.92,4.22-17.1-.88-4.23-4.17-8.44-8.37-12.6-12.6-4.75-4.84-5.14-11-1.05-16.39,2.19-2.89,4.46-5.72,6.76-8.52,1.48-1.8,1.6-3.55.38-5.53-6.37-10.25-10.88-21.29-13.69-33.02-.52-2.19-1.75-3.25-3.93-3.49-3.9-.43-7.81-.82-11.68-1.43-5.74-.91-9.77-4.99-10.04-10.78-.32-6.93-.32-13.9-.01-20.83.27-5.93,4.32-9.98,10.26-10.9,3.78-.58,7.58-.97,11.39-1.38,2.32-.25,3.52-1.42,4.07-3.72,2.79-11.63,7.26-22.57,13.59-32.73,1.31-2.11,1.09-3.91-.47-5.78-2.25-2.71-4.44-5.47-6.58-8.27-4.12-5.4-3.77-11.59.94-16.4,4.3-4.39,8.63-8.74,13.03-13.03,4.71-4.59,10.91-4.94,16.17-.95,2.97,2.25,5.89,4.57,8.76,6.94,1.73,1.43,3.4,1.46,5.25.32,10.26-6.35,21.26-10.94,33.01-13.68,2.47-.58,3.46-2.11,3.69-4.48.35-3.5.75-7.01,1.2-10.5.84-6.4,5.28-10.68,11.69-10.88,6.34-.2,12.69-.13,19.03-.02,3.72.06,5.06,1.73,5.06,5.93,0,29.1.04,58.21-.06,87.31,0,2.67.6,3.59,3.38,4.28,4.43,1.1,8.6,3.22,12.88,4.91,1.01.4,2.02,1.16,3.03,1.17,11.77.08,23.54.05,35.8.05Zm-63.81,122c-23.73-1.58-44.08-10.61-60.49-27.81-16.52-17.31-24.79-38.14-24.88-62.02-.08-19.72,5.8-37.72,17.7-53.49,16.93-22.42,39.72-34.28,67.69-36.35v-37.3c-4.38,0-8.59,0-12.8,0-.9,0-1.82,0-2.71.12-2.04.29-2.81,1.65-3,3.57-.35,3.4-.81,6.79-1.16,10.2-.63,6.05-3.67,10.05-9.48,11.47-11.33,2.78-21.93,7.19-31.91,13.22-4.8,2.89-9.62,2.47-14.09-.95-2.88-2.2-5.71-4.47-8.52-6.75-2.07-1.68-3.94-1.65-5.85.29-4.02,4.09-8.09,8.14-12.17,12.18-1.81,1.79-1.97,3.59-.35,5.59,2.09,2.58,4.14,5.2,6.2,7.81,4.37,5.54,4.72,10.03,1.02,16.1-5.64,9.27-9.68,19.18-12.34,29.69-1.78,7.07-5.38,10.03-12.7,10.73-3.1.29-6.19.78-9.3,1.07-2.63.25-3.64,1.67-3.62,4.22.06,5.74.06,11.48,0,17.22-.02,2.54.99,3.97,3.61,4.22,3.3.32,6.6.77,9.9,1.13,6.74.73,10.38,3.8,12.02,10.37,2.65,10.61,6.73,20.62,12.41,29.98,3.69,6.08,3.34,10.59-1.03,16.1-2.06,2.6-4.11,5.22-6.2,7.8-1.62,2-1.45,3.8.36,5.59,4.08,4.04,8.15,8.09,12.17,12.18,1.91,1.94,3.78,1.98,5.85.3,2.74-2.22,5.5-4.4,8.28-6.57,4.64-3.63,9.57-4.03,14.6-.99,9.8,5.92,20.21,10.28,31.36,12.97,6.01,1.45,9.13,5.41,9.77,11.56.35,3.4.82,6.79,1.17,10.2.2,1.91.95,3.49,2.99,3.55,5.1.14,10.21.05,15.5.05v-37.24Zm.2-171.04c-29.31,2.71-51.96,15.82-66.13,41.17-16.2,28.99-14.88,58.27,3.59,85.88,14.64,21.87,35.94,33.14,62.29,35.32.12-.87.22-1.25.22-1.64.01-12.79-.04-25.58.06-38.37.02-2.22-1.2-2.27-2.78-2.56-17.93-3.31-31.4-18.65-32.16-36.55-.79-18.54,11.06-34.93,28.82-39.85,1.99-.55,4.78-.53,5.75-1.84,1.02-1.39.35-4.06.35-6.17.01-11.57,0-23.13,0-35.38Zm34.65,81.51c-.17-18.15-13.47-30.95-31.94-30.74-15.74.18-29.33,14.55-29.02,30.8.33,17.4,14.69,30.79,32.11,30.19,15.62-.53,29-14.21,28.86-30.25Zm33.22,101.24c8.79.06,16.04-6.99,16.18-15.71.14-8.86-7.1-16.29-15.91-16.31-8.82-.02-16.01,7-16.11,15.74-.11,9.01,6.91,16.22,15.84,16.28Zm.2-203.06c-8.98.02-16.08,7.13-16.05,16.08.03,8.8,7.13,15.91,15.92,15.94,8.86.02,16.17-7.28,16.11-16.11-.06-8.77-7.25-15.93-15.97-15.91Zm51.73,101.44c-.05-8.82-7.2-15.96-15.91-15.92-8.97.05-16.11,7.21-16.07,16.1.04,8.92,7.3,16.02,16.25,15.88,8.83-.13,15.78-7.23,15.74-16.07Z"/>
</svg>