<?xml version="1.0" encoding="UTF-8"?>
<svg id="Layer_1" data-name="Layer 1" xmlns="http://www.w3.org/2000/svg" xmlns:xlink="http://www.w3.org/1999/xlink" viewBox="0 0 420.86 405.63">
  <defs>
    <style>
      .cls-1 {
        fill: url(#linear-gradient);
      }

      .cls-2 {
        fill: #fff;
      }

      .cls-3 {
        fill: url(#linear-gradient-3);
      }

      .cls-4 {
        fill: url(#linear-gradient-4);
      }

      .cls-5 {
        fill: url(#linear-gradient-2);
      }

      .cls-6 {
        fill: url(#linear-gradient-6);
      }

      .cls-7 {
        fill: url(#linear-gradient-7);
      }

      .cls-8 {
        fill: url(#linear-gradient-5);
      }
    </style>
    <linearGradient id="linear-gradient" x1="192.38" y1="268.08" x2="307.87" y2="268.08" gradientUnits="userSpaceOnUse">
      <stop offset="0" stop-color="#090a62" stop-opacity="0"/>
      <stop offset="0" stop-color="#231060" stop-opacity=".12"/>
      <stop offset=".01" stop-color="#4b1a5d" stop-opacity=".31"/>
      <stop offset=".02" stop-color="#6f235a" stop-opacity=".47"/>
      <stop offset=".03" stop-color="#8e2a58" stop-opacity=".62"/>
      <stop offset=".03" stop-color="#a83156" stop-opacity=".74"/>
      <stop offset=".05" stop-color="#be3654" stop-opacity=".83"/>
      <stop offset=".06" stop-color="#ce3a53" stop-opacity=".91"/>
      <stop offset=".07" stop-color="#d93c52" stop-opacity=".96"/>
      <stop offset=".09" stop-color="#e03e52" stop-opacity=".99"/>
      <stop offset=".15" stop-color="#e23f52"/>
    </linearGradient>
    <linearGradient id="linear-gradient-2" x1="113.59" y1="146.61" x2="238.99" y2="146.61" xlink:href="#linear-gradient"/>
    <linearGradient id="linear-gradient-3" x1="69.23" y1="226.77" x2="181.64" y2="226.77" xlink:href="#linear-gradient"/>
    <linearGradient id="linear-gradient-4" x1="192.32" y1="167.58" x2="228.26" y2="167.58" xlink:href="#linear-gradient"/>
    <linearGradient id="linear-gradient-5" x1="198.11" y1="224.41" x2="222.4" y2="224.41" xlink:href="#linear-gradient"/>
    <linearGradient id="linear-gradient-6" x1="153.26" y1="166.59" x2="161.3" y2="166.59" xlink:href="#linear-gradient"/>
    <linearGradient id="linear-gradient-7" x1="286.78" y1="240.92" x2="307.16" y2="240.92" xlink:href="#linear-gradient"/>
  </defs>
  <polygon class="cls-2" points="111.86 270.63 212.13 270.63 224.3 270.63 239 296.95 279.64 313.29 316.01 290.58 323.48 254.84 309.36 228.46 285.26 214.4 273.07 186.15 236.78 121.05 220.2 95.29 202.44 95.29 180.28 131.08 144.82 185.87 111.86 238.78 104.93 252.63 111.86 270.63"/>
  <g>
    <path class="cls-1" d="m314.66,297.37c6.58,6.58,13.04,13.03,19.49,19.48.6.6,1.22,1.18,1.78,1.8,1.87,2.06,1.93,4.42.18,6.07-1.68,1.59-3.97,1.53-5.88-.33-3.16-3.06-6.23-6.2-9.34-9.31-3.99-4-7.98-8-11.95-11.99-23.75,19.72-56.36,15.33-74.53-5.92-17.72-20.72-16.51-51.98,2.92-71.38,19.57-19.54,50.83-20.68,71.56-2.8,21.07,18.17,25.42,50.65,5.76,74.39Zm-40.15,10.26c24.7.03,44.67-19.89,44.68-44.57.01-24.65-20-44.69-44.62-44.68-24.45.01-44.54,20.04-44.62,44.49-.08,24.61,19.95,44.73,44.55,44.76Z"/>
    <path class="cls-5" d="m210.32,90.46c7.99.32,13.89,3.96,17.98,10.66,10.68,17.51,21.34,35.04,32.01,52.55,8.3,13.63,16.59,27.25,24.89,40.88.48.79,1.05,1.56,1.4,2.41.83,2.05.43,3.9-1.49,5.09-1.89,1.17-3.75.86-5.22-.85-.71-.83-1.23-1.81-1.8-2.75-18.8-30.85-37.58-61.71-56.38-92.56-4.34-7.12-12.36-9.18-18.62-4.65-1.65,1.19-3.03,2.95-4.12,4.7-9.68,15.75-19.27,31.55-28.89,47.33-.48.79-.93,1.65-1.58,2.28-1.51,1.47-3.3,1.72-5.07.51-1.63-1.11-2.24-2.71-1.53-4.65.23-.63.58-1.21.93-1.79,9.87-16.23,19.73-32.46,29.61-48.68,4.09-6.71,10.09-10.22,17.89-10.5Z"/>
    <path class="cls-3" d="m165.73,277.16c-13.77,0-27.54-.07-41.31.02-8.52.06-15.12-3.28-19.31-10.72-4.24-7.53-4.04-15.22.37-22.65,5-8.42,10.16-16.74,15.25-25.11,7.86-12.91,15.71-25.82,23.57-38.73.48-.79.93-1.64,1.57-2.29,1.48-1.51,3.26-1.81,5.05-.63,1.74,1.15,2.38,2.83,1.55,4.85-.35.85-.86,1.65-1.34,2.44-12.68,20.84-25.35,41.69-38.08,62.5-2.51,4.1-3.64,8.31-2.09,13.01,1.91,5.79,6.58,9.16,12.84,9.17,27.54.02,55.08,0,82.63,0,.84,0,1.69,0,2.53,0,3.6.01,5.53,1.47,5.48,4.13-.05,2.57-1.94,3.98-5.38,3.98-14.45,0-28.89,0-43.34,0Z"/>
    <path class="cls-4" d="m210.41,131.1c1.86,0,3.71-.03,5.57,0,8.12.14,13.82,6.99,11.92,14.87-4.37,18.19-9.01,36.31-13.53,54.47-.55,2.23-1.8,3.69-4.18,3.63-2.53-.06-3.56-1.83-4.12-4.07-3.7-14.89-7.43-29.76-11.14-44.64-.78-3.11-1.6-6.2-2.3-9.33-1.71-7.68,3.83-14.72,11.7-14.93,2.02-.05,4.05,0,6.08,0Zm-.33,51.31c.15-.01.31-.02.46-.03,3.19-12.79,6.43-25.57,9.55-38.38.63-2.58-1.35-4.7-4.21-4.77-3.46-.08-6.92-.04-10.37-.02-4.08.03-5.69,2.07-4.71,6.01,1.86,7.52,3.76,15.03,5.64,22.55,1.22,4.88,2.43,9.75,3.65,14.63Z"/>
    <path class="cls-8" d="m222.4,224.32c.04,6.82-5.37,12.27-12.15,12.25-6.62-.02-12.08-5.45-12.15-12.08-.07-6.69,5.5-12.27,12.22-12.25,6.68.02,12.04,5.38,12.07,12.07Zm-8.13.18c.04-2.25-1.68-4.08-3.89-4.13-2.16-.05-4.08,1.79-4.14,3.95-.05,2.15,1.79,4.08,3.96,4.13,2.21.05,4.03-1.71,4.07-3.95Z"/>
    <path class="cls-6" d="m161.3,166.79c-.13,2.16-2.1,3.95-4.25,3.84-2.22-.12-3.88-1.97-3.78-4.24.1-2.24,1.96-3.94,4.18-3.83,2.16.11,3.97,2.1,3.85,4.23Z"/>
    <path class="cls-7" d="m307.16,247.37c-1,1.03-1.91,2.49-3.23,3.18-1.63.85-3.3.11-4.46-1.39-1.44-1.87-2.66-3.95-4.31-5.6-1.83-1.84-3.98-3.37-6.08-4.92-2.29-1.69-2.95-3.79-1.67-5.85,1.25-2.01,3.59-2.44,5.99-1,5.17,3.09,9.3,7.25,12.41,12.4.47.77.71,1.68,1.33,3.19Z"/>
  </g>
</svg>