<?xml version="1.0" encoding="UTF-8"?>
<svg id="Layer_1" data-name="Layer 1" xmlns="http://www.w3.org/2000/svg" xmlns:xlink="http://www.w3.org/1999/xlink" viewBox="0 0 420.86 405.63">
  <defs>
    <style>
      .cls-1 {
        fill: url(#linear-gradient);
      }

      .cls-2 {
        fill: #fff;
      }

      .cls-3 {
        fill: url(#linear-gradient-3);
      }

      .cls-4 {
        fill: url(#linear-gradient-4);
      }

      .cls-5 {
        fill: url(#linear-gradient-2);
      }

      .cls-6 {
        fill: url(#linear-gradient-5);
      }
    </style>
    <linearGradient id="linear-gradient" x1="81.09" y1="219.98" x2="280.71" y2="219.98" gradientUnits="userSpaceOnUse">
      <stop offset="0" stop-color="#090a62" stop-opacity="0"/>
      <stop offset="0" stop-color="#231060" stop-opacity=".12"/>
      <stop offset=".01" stop-color="#4b1a5d" stop-opacity=".31"/>
      <stop offset=".02" stop-color="#6f235a" stop-opacity=".47"/>
      <stop offset=".03" stop-color="#8e2a58" stop-opacity=".62"/>
      <stop offset=".03" stop-color="#a83156" stop-opacity=".74"/>
      <stop offset=".05" stop-color="#be3654" stop-opacity=".83"/>
      <stop offset=".06" stop-color="#ce3a53" stop-opacity=".91"/>
      <stop offset=".07" stop-color="#d93c52" stop-opacity=".96"/>
      <stop offset=".09" stop-color="#e03e52" stop-opacity=".99"/>
      <stop offset=".15" stop-color="#e23f52"/>
    </linearGradient>
    <linearGradient id="linear-gradient-2" x1="284.03" y1="119.35" x2="332.91" y2="119.35" xlink:href="#linear-gradient"/>
    <linearGradient id="linear-gradient-3" x1="293.21" y1="171.64" x2="348.16" y2="171.64" xlink:href="#linear-gradient"/>
    <linearGradient id="linear-gradient-4" x1="256.89" y1="86.41" x2="271.74" y2="86.41" xlink:href="#linear-gradient"/>
    <linearGradient id="linear-gradient-5" x1="191.58" y1="178.19" x2="240.25" y2="178.19" xlink:href="#linear-gradient"/>
  </defs>
  <polygon class="cls-2" points="86.83 232.58 125.67 201.51 176.54 101.56 206.87 108.49 240.25 137.14 264.31 178.19 275.62 213.7 269.49 238.57 240.25 245.79 170.83 250.38 202.26 298.93 212.51 323.2 203.88 335.06 187.7 335.06 139.69 268.89 114.34 275.19 92.01 266.56 86.83 232.58"/>
  <g>
    <path class="cls-1" d="m178.84,255.76c.7,1.06,1.23,1.87,1.77,2.68,10.84,15.99,21.79,31.91,32.42,48.04,2.15,3.27,3.82,7.26,4.36,11.11,1.17,8.34-1.74,15.54-8.79,20.43-7.07,4.9-14.74,5.99-22.69,1.97-4.19-2.11-7.54-5.2-10.18-9.09-12.12-17.9-24.28-35.78-36.42-53.67-.72-1.06-1.46-2.11-2.3-3.32-.62.3-1.18.53-1.7.83-20.53,12.05-47.66,1.37-53.29-24.61-3.23-14.91,2.14-27.2,14.54-36.13,7.24-5.21,14.8-9.97,22.1-15.11,1.64-1.15,3.18-2.81,4.06-4.59,14.08-28.31,28.06-56.67,42.03-85.04,3.49-7.09,9.3-10.73,16.95-11.56,9.27-1,17.62,2.08,25.57,6.38,14.73,7.96,26.66,19.26,37.15,32.12,15.16,18.57,27.03,38.96,33.28,62.3,2.69,10.03,4.12,20.21,1.98,30.56-1.28,6.2-3.97,11.64-9.04,15.68-3.42,2.73-7.31,4.04-11.68,4.37-25.97,2.01-51.92,4.11-77.88,6.2-.62.05-1.22.23-2.23.43Zm-8-126.19c.73,4.31,1.16,9.78,2.62,14.96,9.13,32.63,27.29,59.43,53.32,80.92,7.2,5.94,15.21,10.62,24.51,12.73,5.03,1.14,9.38-.24,12.44-3.98,2.24-2.73,3.96-6.24,4.83-9.68,1.76-6.99.78-14.08-.75-21.05-3.11-14.2-9.42-27.03-16.98-39.29-10.17-16.49-22.16-31.43-37.69-43.25-6.99-5.33-14.43-9.87-23.14-11.88-9.67-2.23-16.53,2.25-18.32,12.01-.45,2.43-.51,4.93-.85,8.52Zm-9.69,11.57c-.19.28-.43.56-.58.88-9.27,18.9-18.56,37.79-27.74,56.74-.42.88-.17,2.52.41,3.38,9.38,13.98,18.89,27.88,28.27,41.86,1.04,1.56,2.14,1.9,3.86,1.76,16.51-1.35,33.03-2.62,49.55-3.94,4.54-.36,9.08-.77,13.78-1.17-34.55-25.22-57.08-58.23-67.54-99.51Zm-37.02,67.11c-8.2,5.75-16.59,10.95-24.17,17.15-8.29,6.79-10.09,18.54-5.42,28.2,5.24,10.84,15.44,16.58,26.35,15.03,5.11-.73,9.3-3.24,13.41-6.09,6.02-4.18,12.12-8.26,18.27-12.44-9.51-14.01-18.86-27.77-28.43-41.86Zm22.08,59.36c.12.42.13.62.22.76,13.22,19.48,26.42,38.98,39.68,58.43,1.98,2.9,4.92,4.41,8.42,4.62,4.63.28,8.29-1.6,10.65-5.58,2.61-4.42,2.09-8.77-.75-12.96-12.24-18.03-24.47-36.08-36.71-54.11-1.46-2.16-3.87-2.99-6.08-1.57-5.25,3.35-10.33,6.95-15.42,10.41Z"/>
    <path class="cls-5" d="m290.54,137.14c-3.46.01-5.25-1.24-6.16-3.62-.9-2.36,0-4.83,2.4-6.44,5.27-3.52,10.58-6.97,15.88-10.45,6.91-4.54,13.81-9.08,20.73-13.6,3.41-2.23,6.6-1.91,8.51.84,1.96,2.82,1.05,6.07-2.44,8.37-11.89,7.82-23.79,15.63-35.72,23.4-1.19.78-2.59,1.22-3.19,1.5Z"/>
    <path class="cls-3" d="m298.38,162.21c6.18,1.1,12.15,2.16,18.12,3.23,8.78,1.57,17.55,3.17,26.33,4.71,3.53.62,5.74,3.14,5.27,6.18-.5,3.22-3.44,5.25-6.99,4.62-10.32-1.82-20.63-3.71-30.94-5.59-4.34-.79-8.69-1.53-13.01-2.42-2.44-.5-4.11-2.32-3.94-4.66.13-1.77,1.43-3.56,2.54-5.1.47-.66,1.8-.69,2.63-.97Z"/>
    <path class="cls-4" d="m256.94,104.65c1.33-12.91,2.64-25.82,3.99-38.72.37-3.58,2.79-5.66,6.07-5.32,3.18.33,5.07,2.96,4.7,6.58-1.34,12.91-2.67,25.81-4.02,38.72-.48,4.56-2.66,6.72-6.27,6.29-3.33-.4-4.81-2.92-4.46-7.55Z"/>
    <path class="cls-6" d="m208.3,150.78c14.97-.01,26.19,7.86,30.34,19.87,4.08,11.81.24,24.95-9.62,32.74-1.06.84-2.27,1.65-3.54,2.03-2.52.74-5.12-.62-6.2-2.93-1.12-2.39-.49-4.98,1.93-6.82,4.3-3.27,7.12-7.39,7.8-12.81.93-7.41-1.64-13.46-7.69-17.74-6.06-4.3-12.63-4.56-19.32-1.35-.83.4-1.57.96-2.4,1.36-2.73,1.35-5.72.52-7.23-1.95-1.49-2.44-.86-5.61,1.62-7.31,4.91-3.35,10.37-5.04,14.29-5.07Z"/>
  </g>
</svg>