<?xml version="1.0" encoding="UTF-8"?>
<svg id="Layer_1" data-name="Layer 1" xmlns="http://www.w3.org/2000/svg" xmlns:xlink="http://www.w3.org/1999/xlink" viewBox="0 0 1973.69 329.86">
  <defs>
    <style>
      .cls-1 {
        fill: url(#linear-gradient);
      }

      .cls-2 {
        fill: #fff;
      }

      .cls-3 {
        fill: url(#linear-gradient-3);
      }

      .cls-4 {
        fill: url(#linear-gradient-4);
      }

      .cls-5 {
        fill: url(#linear-gradient-2);
      }

      .cls-6 {
        fill: url(#linear-gradient-6);
      }

      .cls-7 {
        fill: url(#linear-gradient-7);
      }

      .cls-8 {
        fill: url(#linear-gradient-5);
      }
    </style>
    <linearGradient id="linear-gradient" x1="720.89" y1="173.17" x2="928.2" y2="173.17" gradientUnits="userSpaceOnUse">
      <stop offset=".34" stop-color="#090a62"/>
      <stop offset=".53" stop-color="#42185d"/>
      <stop offset=".96" stop-color="#d23b52"/>
      <stop offset="1" stop-color="#e03f52"/>
    </linearGradient>
    <linearGradient id="linear-gradient-2" x1="64.56" y1="172.72" x2="271.87" y2="172.72" xlink:href="#linear-gradient"/>
    <linearGradient id="linear-gradient-3" x1="390.76" x2="598.07" xlink:href="#linear-gradient"/>
    <linearGradient id="linear-gradient-4" x1="1053.63" x2="1260.94" xlink:href="#linear-gradient"/>
    <linearGradient id="linear-gradient-5" x1="1383.97" x2="1591.28" xlink:href="#linear-gradient"/>
    <linearGradient id="linear-gradient-6" x1="1721.63" x2="1928.94" xlink:href="#linear-gradient"/>
    <linearGradient id="linear-gradient-7" x1="811.36" y1="173.17" x2="838.27" y2="173.17" xlink:href="#linear-gradient"/>
  </defs>
  <circle class="cls-1" cx="824.55" cy="173.17" r="103.66"/>
  <path class="cls-5" d="m271.87,173.17c0-57.25-46.41-103.66-103.66-103.66s-103.66,46.41-103.66,103.66c0,52.06,38.38,95.15,88.39,102.53v-66.63h-26.71v-28.97h26.71v-20.95c0-8.54,2.85-16.42,7.65-22.74,7.97-10.5,21.01-15.88,34.13-14.52l15.14,1.57v26.69h-19.23c-4.98,0-9.01,4.03-9.01,9.01v20.95h28.56l-4.78,28.97h-23.78v66.87c50.9-6.59,90.24-50.07,90.24-102.76Z"/>
  <circle class="cls-3" cx="494.41" cy="173.17" r="103.66"/>
  <circle class="cls-4" cx="1157.29" cy="173.17" r="103.66"/>
  <circle class="cls-8" cx="1487.62" cy="173.17" r="103.66"/>
  <circle class="cls-6" cx="1825.28" cy="173.17" r="103.66"/>
  <g>
    <path class="cls-2" d="m528.4,204.02c-8.67-11.55-17.33-23.1-25.99-34.66-1.27,1.34-2.53,2.68-3.79,4.03,8.47,11.3,16.95,22.61,25.43,33.9.16.21.31.41.47.62h-10.94l-20.81-28.27c-1.27,1.34-2.53,2.7-3.79,4.04,5,6.78,9.99,13.56,14.98,20.34,2.29,3.11,4.58,6.22,6.87,9.33h24.58c-2.34-3.11-4.67-6.22-7-9.33Zm-63.19-61.8h10.04l8.46,11.27c3.83,5.11,7.66,10.22,11.5,15.33,1.26-1.34,2.52-2.68,3.78-4.03-7-9.34-14.01-18.67-21.01-28.02h-23.52c6.62,9,13.25,18,19.87,27,3.76,5.1,7.52,10.2,11.27,15.3,1.26-1.34,2.52-2.69,3.79-4.03l-24.16-32.82Z"/>
    <path class="cls-2" d="m492.76,179.64c-1.27,1.34-2.53,2.7-3.79,4.04-6.37,6.78-12.73,13.56-19.1,20.34-2.92,3.11-5.83,6.22-8.75,9.33h-7.68c2.92-3.11,5.83-6.22,8.75-9.33,4.05-4.32,8.11-8.64,12.16-12.97,3.75-4,7.49-7.98,11.24-11.98,1.26-1.34,2.52-2.69,3.79-4.03l3.39,4.59Z"/>
    <path class="cls-2" d="m532.98,136.78c-10.19,10.86-20.38,21.72-30.57,32.58-1.27,1.34-2.53,2.68-3.79,4.03-1.13-1.52-2.28-3.04-3.42-4.56,1.26-1.34,2.52-2.68,3.78-4.03,8.76-9.34,17.52-18.68,26.28-28.02h7.72Z"/>
  </g>
  <g>
    <path class="cls-2" d="m856.92,207.19l-23.73,1.41c-5.76.34-11.53.34-17.29,0l-23.73-1.41c-8.14-.48-14.86-6.53-16.19-14.58h0c-2.13-12.88-2.13-26.02,0-38.89h0c1.33-8.04,8.05-14.09,16.19-14.58l23.73-1.41c5.76-.34,11.53-.34,17.29,0l23.73,1.41c8.14.48,14.86,6.53,16.19,14.58h0c2.13,12.88,2.13,26.02,0,38.89h0c-1.33,8.04-8.05,14.09-16.19,14.58Z"/>
    <path class="cls-7" d="m837.99,172.69l-25.81-14.9c-.37-.21-.83.05-.83.48v29.8c0,.42.46.69.83.48l25.81-14.9c.37-.21.37-.74,0-.96Z"/>
  </g>
  <g>
    <path class="cls-2" d="m1128.69,127.99c-5.07,0-8.9,3.83-8.9,8.9s3.81,8.79,8.68,8.79c2.64,0,5.01-.95,6.68-2.67,1.57-1.63,2.4-3.82,2.33-6.17-.02-5.13-3.71-8.85-8.79-8.85Z"/>
    <rect class="cls-2" x="1121" y="148.99" width="15.38" height="58.92"/>
    <path class="cls-2" d="m1176.08,147.78c-6.61,0-11.78,2.41-15.41,5.6l-.27-4.39h-14.33l.23,3.07c.3,4.03.43,8.28.43,14.19v41.67h15.38v-34.85c0-1.37.18-2.69.49-3.53l.05-.14c1.2-3.92,4.84-7.88,10.25-7.88,6.28,0,9.46,4.33,9.46,12.87v33.53h15.38v-34.63c0-18.82-11.67-25.5-21.65-25.5Z"/>
  </g>
  <g>
    <path class="cls-2" d="m1504.78,213.53h-34.31c-12.79,0-23.2-10.41-23.2-23.2v-34.31c0-12.79,10.41-23.2,23.2-23.2h34.31c12.79,0,23.2,10.41,23.2,23.2v34.31c0,12.79-10.41,23.2-23.2,23.2Zm-34.31-75.07c-9.68,0-17.55,7.87-17.55,17.55v34.31c0,9.68,7.87,17.55,17.55,17.55h34.31c9.68,0,17.55-7.87,17.55-17.55v-34.31c0-9.68-7.87-17.55-17.55-17.55h-34.31Z"/>
    <path class="cls-2" d="m1487.62,193.23c-11.06,0-20.06-9-20.06-20.06s9-20.06,20.06-20.06,20.06,9,20.06,20.06-9,20.06-20.06,20.06Zm0-34.47c-7.95,0-14.41,6.47-14.41,14.41s6.47,14.41,14.41,14.41,14.41-6.47,14.41-14.41-6.47-14.41-14.41-14.41Z"/>
    <circle class="cls-2" cx="1509.77" cy="151.02" r="4.99" transform="translate(5.69 350.91) rotate(-13.28)"/>
  </g>
  <path class="cls-2" d="m1844.21,212.21l-30.1-20.04c-3.14-2.09-3.54-6.54-.84-9.17l28.93-28.04c.85-.82-.23-2.17-1.22-1.51l-39.33,26.02c-3.64,2.41-8.18,3.01-12.32,1.63l-16.83-5.61c-2.71-.91-2.86-4.69-.23-5.81l85.67-36.37c4.58-1.94,9.51,1.89,8.76,6.8l-10.18,66.66c-.88,5.77-7.46,8.68-12.32,5.44Z"/>
</svg>