<?xml version="1.0" encoding="UTF-8"?>
<svg xmlns="http://www.w3.org/2000/svg" xmlns:xlink="http://www.w3.org/1999/xlink" viewBox="0 0 1765.93 367.34">
  <defs>
    <style>
      .cls-1, .cls-2 {
        opacity: .07;
      }

      .cls-1, .cls-3, .cls-4 {
        stroke-width: 0px;
      }

      .cls-1, .cls-5, .cls-4 {
        fill: #d6303f;
      }

      .cls-6 {
        mix-blend-mode: luminosity;
      }

      .cls-7 {
        opacity: .06;
      }

      .cls-8 {
        opacity: .12;
      }

      .cls-3 {
        fill: url(#radial-gradient);
        opacity: .54;
      }

      .cls-5 {
        stroke: #d6303f;
        stroke-miterlimit: 10;
      }

      .cls-9 {
        opacity: .88;
      }

      .cls-10 {
        isolation: isolate;
      }
    </style>
    <radialGradient id="radial-gradient" cx="1392.88" cy="1063.17" fx="1392.88" fy="1063.17" r="727.46" gradientUnits="userSpaceOnUse">
      <stop offset="0" stop-color="#e23f52"/>
      <stop offset=".12" stop-color="#e76272" stop-opacity=".81"/>
      <stop offset=".39" stop-color="#f4bcc3" stop-opacity=".34"/>
      <stop offset=".57" stop-color="#fff" stop-opacity="0"/>
    </radialGradient>
  </defs>
  <g class="cls-10">
    <g id="Layer_1" data-name="Layer 1">
      <circle class="cls-3" cx="1392.88" cy="1063.17" r="727.46"/>
      <g class="cls-9">
        <g class="cls-6">
          <g class="cls-2">
            <g>
              <rect class="cls-5" x="174.27" y="131.74" width="26.14" height="153.53"/>
              <g>
                <rect class="cls-5" x="123.1" y="68.92" width="26.14" height="204.58"/>
                <rect class="cls-5" x="135.98" y="273.5" width=".74" height="29.66"/>
              </g>
              <g>
                <rect class="cls-5" x="75.97" y="168.31" width="26.14" height="80.82"/>
                <rect class="cls-5" x="88.86" y="249.13" width=".74" height="11.72"/>
              </g>
              <g>
                <rect class="cls-5" x="213.66" y="148.31" width="26.14" height="60.19"/>
                <rect class="cls-5" x="226.55" y="208.5" width=".74" height="8.73"/>
              </g>
              <g>
                <rect class="cls-5" x="253.42" y="202.02" width="26.14" height="36.52"/>
                <rect class="cls-5" x="266.31" y="238.54" width=".74" height="5.3"/>
              </g>
              <g>
                <rect class="cls-5" x="298.71" y="132.45" width="26.14" height="113.28"/>
                <rect class="cls-5" x="311.59" y="245.73" width=".74" height="16.42"/>
              </g>
              <g>
                <rect class="cls-5" x="339.2" y="143.44" width="26.14" height="195.11"/>
                <rect class="cls-5" x="352.09" y="338.55" width=".74" height="28.29"/>
              </g>
              <g>
                <rect class="cls-5" x="381.55" y="261.54" width="26.14" height="71.01"/>
                <rect class="cls-5" x="394.44" y="332.55" width=".74" height="10.3"/>
              </g>
              <g>
                <rect class="cls-5" x="425.03" y="206.3" width="26.14" height="97.57"/>
                <rect class="cls-5" x="437.92" y="303.87" width=".74" height="14.15"/>
              </g>
              <g>
                <rect class="cls-5" x="466.54" y="252.8" width="26.14" height="48.78"/>
                <rect class="cls-5" x="479.43" y="301.59" width=".74" height="7.07"/>
              </g>
              <g>
                <rect class="cls-5" x="508" y="154.61" width="26.14" height="117.88"/>
                <rect class="cls-5" x="520.89" y="272.49" width=".74" height="17.09"/>
              </g>
              <g>
                <rect class="cls-5" x="550.15" y="173.92" width="26.14" height="121.73"/>
                <rect class="cls-5" x="563.04" y="295.66" width=".74" height="17.65"/>
              </g>
              <g>
                <rect class="cls-5" x="589.18" y="142.27" width="26.14" height="62.9"/>
                <rect class="cls-5" x="602.06" y="205.17" width=".74" height="9.12"/>
              </g>
              <g>
                <rect class="cls-5" x="627.47" y="92.11" width="26.14" height="177.19"/>
                <rect class="cls-5" x="640.35" y="269.3" width=".74" height="25.69"/>
              </g>
              <g>
                <rect class="cls-5" x="668.7" y="60.72" width="26.14" height="41.93"/>
                <rect class="cls-5" x="681.59" y="102.65" width=".74" height="6.08"/>
              </g>
              <g>
                <rect class="cls-5" x="712.14" y="38.4" width="26.14" height="86.57"/>
                <rect class="cls-5" x="725.03" y="124.97" width=".74" height="12.55"/>
              </g>
              <g>
                <rect class="cls-5" x="753.01" y="107.14" width="26.14" height="64.25"/>
                <rect class="cls-5" x="765.89" y="171.39" width=".74" height="9.32"/>
              </g>
              <g>
                <rect class="cls-5" x="828.11" y="75.44" width="26.14" height="122.41"/>
                <rect class="cls-5" x="841" y="197.85" width=".74" height="17.75"/>
              </g>
              <g>
                <rect class="cls-5" x="792.77" y="104.99" width="26.14" height="28.4"/>
                <rect class="cls-5" x="805.65" y="133.4" width=".74" height="4.12"/>
              </g>
              <g>
                <rect class="cls-5" x="36.58" y="187.76" width="26.14" height="28.4"/>
                <rect class="cls-5" x="49.46" y="216.16" width=".74" height="4.12"/>
              </g>
              <g>
                <rect class="cls-5" x=".5" y="155.37" width="26.14" height="48.69"/>
                <rect class="cls-5" x="13.39" y="204.06" width=".74" height="7.06"/>
              </g>
            </g>
          </g>
          <polygon class="cls-1" points="148.72 28.91 141.94 28.91 136.24 39.93 130.3 28.91 123.25 28.91 131.18 43.25 124.94 43.25 124.94 48.25 133.15 48.25 133.15 51.14 124.94 51.14 124.94 56.14 133.15 56.14 133.15 62.44 139.14 62.44 139.14 56.14 147.02 56.14 147.02 51.14 139.14 51.14 139.14 48.25 147.02 48.25 147.02 43.25 141.04 43.25 148.72 28.91"/>
          <polygon class="cls-1" points="575.78 132.33 569 132.33 563.3 143.35 557.36 132.33 550.3 132.33 558.24 146.67 552 146.67 552 151.67 560.21 151.67 560.21 154.56 552 154.56 552 159.56 560.21 159.56 560.21 165.86 566.2 165.86 566.2 159.56 574.08 159.56 574.08 154.56 566.2 154.56 566.2 151.67 574.08 151.67 574.08 146.67 568.1 146.67 575.78 132.33"/>
          <g class="cls-2">
            <path class="cls-4" d="m82.41,151.75c.38.06.81.14,1.3.25-.08-.97-.24-1.87-.47-2.69-.24-.82-.75-2.34-1.56-4.58h-4.69v-3.14h3.87c-.27-1.16-.46-2.3-.57-3.41-.08-.72-.12-1.37-.12-1.93,0-3.03.9-5.4,2.71-7.1,1.81-1.7,4.04-2.56,6.7-2.56,3.08,0,5.26.74,6.53,2.23.75.89,1.13,1.95,1.13,3.18,0,1.04-.28,1.88-.85,2.53-.57.65-1.42.98-2.57.98-.86,0-1.56-.3-2.08-.89-.52-.6-.78-1.34-.78-2.23,0-.11.03-.8.09-2.07,0-.66-.11-1.16-.33-1.5-.35-.52-.97-.78-1.89-.78-.77,0-1.4.25-1.87.74-.48.49-.72,1.35-.72,2.58,0,.46.23,1.91.7,4.36.46,2.45.85,4.41,1.17,5.89h5.52v3.14h-5.24c0,.11.02.59.07,1.44.02.27.02.53.02.8,0,.93-.07,1.78-.2,2.55-.13.77-.4,1.97-.79,3.61,1.27.42,2.13.69,2.57.8.71.17,1.38.26,2.01.26,1.73,0,2.96-.33,3.68-.99.46-.41.87-1.22,1.25-2.43h1.11c-.14,2.45-.5,4.36-1.06,5.73-1.07,2.53-2.91,3.8-5.52,3.8-.97,0-1.79-.19-2.45-.56-.66-.37-1.77-1.2-3.32-2.5-.83,1.03-1.53,1.73-2.1,2.11-.96.62-2.16.92-3.61.92-1.12,0-2.08-.38-2.88-1.14-.8-.76-1.2-1.74-1.2-2.94,0-1.1.4-2.13,1.19-3.09.79-.96,2.15-1.44,4.07-1.44.41,0,.8.03,1.18.08Zm.41,5.9c.65-.74.98-1.45.98-2.13,0-.19-.35-.51-1.04-.97-.69-.44-1.53-.66-2.5-.66-.79,0-1.42.23-1.89.7-.47.47-.71,1.07-.71,1.81,0,.98.38,1.67,1.13,2.06.41.21.89.31,1.44.31,1.07,0,1.93-.37,2.58-1.11Z"/>
          </g>
          <g class="cls-2">
            <path class="cls-4" d="m516.25,138.68c.38.06.81.14,1.3.25-.08-.97-.24-1.87-.47-2.69-.24-.82-.75-2.34-1.56-4.58h-4.69v-3.14h3.87c-.27-1.16-.46-2.3-.57-3.41-.08-.72-.12-1.37-.12-1.93,0-3.03.9-5.4,2.71-7.1,1.81-1.7,4.04-2.56,6.7-2.56,3.08,0,5.26.74,6.53,2.23.75.89,1.13,1.95,1.13,3.18,0,1.04-.28,1.88-.85,2.53-.57.65-1.42.98-2.57.98-.86,0-1.56-.3-2.08-.89-.52-.6-.78-1.34-.78-2.23,0-.11.03-.8.09-2.07,0-.66-.11-1.16-.33-1.5-.35-.52-.97-.78-1.89-.78-.77,0-1.4.25-1.87.74-.48.49-.72,1.35-.72,2.58,0,.46.23,1.91.7,4.36.46,2.45.85,4.41,1.17,5.89h5.52v3.14h-5.24c0,.11.02.59.07,1.44.02.27.02.53.02.8,0,.93-.07,1.78-.2,2.55-.13.77-.4,1.97-.79,3.61,1.27.42,2.13.69,2.57.8.71.17,1.38.26,2.01.26,1.73,0,2.96-.33,3.68-.99.46-.41.87-1.22,1.25-2.43h1.11c-.14,2.45-.5,4.36-1.06,5.73-1.07,2.53-2.91,3.8-5.52,3.8-.97,0-1.79-.19-2.45-.56-.66-.37-1.77-1.2-3.32-2.5-.83,1.03-1.53,1.73-2.1,2.11-.96.62-2.16.92-3.61.92-1.12,0-2.08-.38-2.88-1.14-.8-.76-1.2-1.74-1.2-2.94,0-1.1.4-2.13,1.19-3.09.79-.96,2.15-1.44,4.07-1.44.41,0,.8.03,1.18.08Zm.41,5.9c.65-.74.98-1.45.98-2.13,0-.19-.35-.51-1.04-.97-.69-.44-1.53-.66-2.5-.66-.79,0-1.42.23-1.89.7-.47.47-.71,1.07-.71,1.81,0,.98.38,1.67,1.13,2.06.41.21.89.31,1.44.31,1.07,0,1.93-.37,2.58-1.11Z"/>
          </g>
          <g class="cls-7">
            <path class="cls-4" d="m15.21,149.09h-1.99v-4.08c-2.69-.3-4.7-.89-6.03-1.76-2.34-1.57-3.49-4.25-3.45-8.04h5.54c.19,1.72.46,2.88.8,3.47.53.92,1.58,1.51,3.14,1.78v-8.76l-1.66-.49c-2.61-.77-4.45-1.83-5.53-3.2-1.07-1.37-1.61-3.01-1.61-4.94,0-1.27.21-2.43.63-3.47.42-1.04,1-1.93,1.75-2.69.97-.97,2.05-1.64,3.24-2.01.72-.23,1.78-.4,3.18-.51v-2.73h1.99v2.77c2.22.18,3.96.72,5.23,1.64,2.3,1.46,3.49,3.84,3.57,7.12h-5.39c-.11-1.22-.31-2.1-.61-2.67-.51-.97-1.45-1.5-2.8-1.6v7.81c3.24,1.12,5.42,2.11,6.53,2.97,1.84,1.44,2.76,3.46,2.76,6.07,0,3.45-1.26,5.95-3.79,7.51-1.54.96-3.38,1.52-5.5,1.68v4.12Zm-1.99-30.13c-1.19.03-2.07.35-2.65.95-.57.61-.86,1.44-.86,2.49,0,1.15.43,2.06,1.29,2.73.48.37,1.22.71,2.22,1.03v-7.2Zm1.99,21.43c1.07-.14,1.85-.38,2.33-.74.85-.63,1.28-1.72,1.28-3.26,0-1.18-.4-2.11-1.2-2.79-.47-.4-1.28-.81-2.41-1.23v8.02Z"/>
          </g>
          <g class="cls-7">
            <path class="cls-4" d="m439,197.12h-1.99v-4.08c-2.69-.3-4.7-.89-6.03-1.76-2.34-1.57-3.49-4.25-3.45-8.04h5.54c.19,1.72.46,2.88.8,3.47.53.92,1.58,1.51,3.14,1.78v-8.76l-1.66-.49c-2.61-.77-4.45-1.83-5.53-3.2-1.07-1.37-1.61-3.01-1.61-4.94,0-1.27.21-2.43.63-3.47.42-1.04,1-1.93,1.75-2.69.97-.97,2.05-1.64,3.24-2.01.72-.23,1.78-.4,3.18-.51v-2.73h1.99v2.77c2.22.18,3.96.72,5.23,1.64,2.3,1.46,3.49,3.84,3.57,7.12h-5.39c-.11-1.22-.31-2.1-.61-2.67-.51-.97-1.45-1.5-2.8-1.6v7.81c3.24,1.12,5.42,2.11,6.53,2.97,1.84,1.44,2.76,3.46,2.76,6.07,0,3.45-1.26,5.95-3.79,7.51-1.54.96-3.38,1.52-5.5,1.68v4.12Zm-1.99-30.13c-1.19.03-2.07.35-2.65.95-.57.61-.86,1.44-.86,2.49,0,1.15.43,2.06,1.29,2.73.48.37,1.22.71,2.22,1.03v-7.2Zm1.99,21.43c1.07-.14,1.85-.38,2.33-.74.85-.63,1.28-1.72,1.28-3.26,0-1.18-.4-2.11-1.2-2.79-.47-.4-1.28-.81-2.41-1.23v8.02Z"/>
          </g>
          <g class="cls-7">
            <path class="cls-4" d="m842.08,69.16h-1.99v-4.08c-2.69-.3-4.7-.89-6.03-1.76-2.34-1.57-3.49-4.25-3.45-8.04h5.54c.19,1.72.46,2.88.8,3.47.53.92,1.58,1.51,3.14,1.78v-8.76l-1.66-.49c-2.61-.77-4.45-1.83-5.53-3.2-1.07-1.37-1.61-3.01-1.61-4.94,0-1.27.21-2.43.63-3.47.42-1.04,1-1.93,1.75-2.69.97-.97,2.05-1.64,3.24-2.01.72-.23,1.78-.4,3.18-.51v-2.73h1.99v2.77c2.22.18,3.96.72,5.23,1.64,2.3,1.46,3.49,3.84,3.57,7.12h-5.39c-.11-1.22-.31-2.1-.61-2.67-.51-.97-1.45-1.5-2.8-1.6v7.81c3.24,1.12,5.42,2.11,6.53,2.97,1.84,1.44,2.76,3.46,2.76,6.07,0,3.45-1.26,5.95-3.79,7.51-1.54.96-3.38,1.52-5.5,1.68v4.12Zm-1.99-30.13c-1.19.03-2.07.35-2.65.95-.57.61-.86,1.44-.86,2.49,0,1.15.43,2.06,1.29,2.73.48.37,1.22.71,2.22,1.03v-7.2Zm1.99,21.43c1.07-.14,1.85-.38,2.33-.74.85-.63,1.28-1.72,1.28-3.26,0-1.18-.4-2.11-1.2-2.79-.47-.4-1.28-.81-2.41-1.23v8.02Z"/>
          </g>
          <path class="cls-1" d="m191.1,95.39h5.46l2.16-3.16h-20.69l-2.07,3.16h4.05c2.91,0,6.47.25,7.77,3.3h-9.69l-2.13,3.15h12.31c-.27,5.39-6.92,5.84-7.84,5.84h-3.21v3.04l12,14.94h5.33l-12.44-15.57s7.16-.2,9.55-5.11c.55-1.13.86-2.18,1-3.16h3.91l2.1-3.15h-6.09c-.43-2.07-1.47-3.3-1.47-3.3Z"/>
          <path class="cls-1" d="m605.82,103.06h5.46l2.16-3.16h-20.69l-2.07,3.16h4.05c2.91,0,6.47.25,7.77,3.3h-9.69l-2.13,3.15h12.31c-.27,5.39-6.92,5.84-7.84,5.84h-3.21v3.04l12,14.94h5.33l-12.44-15.57s7.16-.2,9.55-5.11c.55-1.13.86-2.18,1-3.16h3.91l2.1-3.15h-6.09c-.43-2.07-1.47-3.3-1.47-3.3Z"/>
          <path class="cls-1" d="m235.3,109.8h-12.3v14.18h-4.17v5.5h4.17v2.72h-4.17v4.11h4.17v5.2h6.19v-5.2h4.22v-4.11h-4.22v-2.62h6.1c6.55,0,10.47-4.5,10.47-9.89s-3.92-9.89-10.47-9.89Zm-.31,14.21h-5.79v-8.69h5.79c2.81,0,4.59,1.78,4.59,4.37s-1.78,4.32-4.59,4.32Z"/>
          <path class="cls-1" d="m644.65,50.45h-12.3v14.18h-4.17v5.5h4.17v2.72h-4.17v4.11h4.17v5.2h6.19v-5.2h4.22v-4.11h-4.22v-2.62h6.1c6.55,0,10.47-4.5,10.47-9.89s-3.92-9.89-10.47-9.89Zm-.31,14.21h-5.79v-8.69h5.79c2.81,0,4.59,1.78,4.59,4.37s-1.78,4.32-4.59,4.32Z"/>
          <g class="cls-2">
            <rect class="cls-4" x="256.31" y="161.7" width="19.72" height="5.21"/>
            <path class="cls-4" d="m281.23,187.27v-.15h-4.71v.19c0,.22,0,.81-.1.92,0,0-.34.33-1.73.33-1.3,0-1.68-.25-1.69-.25h0c-.14-.24-.14-1.23-.14-1.82v-9.81h7.9v-5.21h-27.77v5.21h7.53c-.64,11.52-7.37,12.15-7.67,12.17l.13,2.35.1,2.35c.34-.01,3.37-.21,6.39-2.75,4.25-3.58,5.53-9.35,5.76-14.12h2.91v9.79c0,1.62-.02,3.63,1.49,5.15,1.1,1.11,2.75,1.65,5.04,1.65s3.94-.58,5.07-1.72c1.49-1.5,1.47-3.38,1.46-4.28Z"/>
          </g>
          <g class="cls-2">
            <rect class="cls-4" x="671.58" y="22.47" width="19.72" height="5.21"/>
            <path class="cls-4" d="m696.5,48.05v-.15h-4.71v.19c0,.22,0,.81-.1.92,0,0-.34.33-1.73.33-1.3,0-1.68-.25-1.69-.25h0c-.14-.24-.14-1.23-.14-1.82v-9.81h7.9v-5.21h-27.77v5.21h7.53c-.64,11.52-7.37,12.15-7.67,12.17l.13,2.35.1,2.35c.34-.01,3.37-.21,6.39-2.75,4.25-3.58,5.53-9.35,5.76-14.12h2.91v9.79c0,1.62-.02,3.63,1.49,5.15,1.1,1.11,2.75,1.65,5.04,1.65s3.94-.58,5.07-1.72c1.49-1.5,1.47-3.38,1.46-4.28Z"/>
          </g>
          <polygon class="cls-1" points="407.69 227.92 407.69 222.46 389.74 222.46 389.74 243.78 385.64 243.78 385.64 249.2 389.74 249.2 389.74 254.62 396.38 254.62 396.38 249.2 400.26 249.2 400.26 243.78 396.38 243.78 396.38 238.7 406.95 238.7 406.95 233.28 396.38 233.28 396.38 227.92 407.69 227.92"/>
          <polygon class="cls-1" points="816.68 69.03 816.68 63.57 798.72 63.57 798.72 84.89 794.63 84.89 794.63 90.31 798.72 90.31 798.72 95.73 805.36 95.73 805.36 90.31 809.24 90.31 809.24 84.89 805.36 84.89 805.36 79.81 815.94 79.81 815.94 74.39 805.36 74.39 805.36 69.03 816.68 69.03"/>
          <path class="cls-1" d="m330.02,107.38v-4.01h-3.37l1.78-7.55h-5.1l-1.61,7.55h-6.49l-1.51-7.55h-7.13l-1.46,7.55h-6.37l-1.59-7.55h-5.51l1.81,7.55h-3.4v4.01h4.37l.7,2.92h-5.07v4.01h6.03l2.5,10.43h6.79l2.01-10.43h5.4l2.05,10.43h6.75l2.46-10.43h5.96v-4.01h-5.01l.69-2.92h4.32Zm-19.97-6.74h.08l.54,2.73h-1.14l.53-2.73Zm-10.43,6.74h4.74l-.56,2.92h-3.57l-.62-2.92Zm2.51,11.55h-.08l-.98-4.63h1.95l-.89,4.63Zm6.05-8.64l.56-2.92h2.7l.57,2.92h-3.84Zm10.23,8.64h-.08l-.92-4.63h1.98l-.98,4.63Zm1.84-8.64h-3.64l-.58-2.92h4.84l-.62,2.92Z"/>
          <path class="cls-1" d="m745.74,11.56v-4.01h-3.37l1.78-7.55h-5.1l-1.61,7.55h-6.49l-1.51-7.55h-7.13l-1.46,7.55h-6.37l-1.59-7.55h-5.51l1.81,7.55h-3.4v4.01h4.37l.7,2.92h-5.07v4.01h6.03l2.5,10.43h6.79l2.01-10.43h5.4l2.05,10.43h6.75l2.46-10.43h5.96v-4.01h-5.01l.69-2.92h4.32Zm-19.97-6.74h.08l.54,2.73h-1.14l.53-2.73Zm-10.43,6.74h4.74l-.56,2.92h-3.57l-.62-2.92Zm2.51,11.55h-.08l-.98-4.63h1.95l-.89,4.63Zm6.05-8.64l.56-2.92h2.7l.57,2.92h-3.84Zm10.23,8.64h-.08l-.92-4.63h1.98l-.98,4.63Zm1.84-8.64h-3.64l-.58-2.92h4.84l-.62,2.92Z"/>
          <g class="cls-2">
            <path class="cls-4" d="m34.61,170.65l.83-3.96h4.87c-.05-.66-.08-1.35-.08-2.07,0-.63.02-1.25.06-1.85h-5.68l.83-3.96h5.4c.55-2.35,1.49-4.32,2.82-5.91,1.98-2.39,4.51-3.59,7.59-3.59,4.1,0,7.1,1.6,9.01,4.81,1.05,1.8,1.62,3.61,1.69,5.42h-5.1c-.33-1.39-.76-2.44-1.28-3.15-.92-1.26-2.29-1.89-4.12-1.89s-3.32.89-4.39,2.68c-.29.49-.54,1.03-.75,1.64h7.82l-.83,3.96h-7.78c-.04.62-.06,1.27-.06,1.95s.02,1.35.06,1.97h7.29l-.83,3.96h-5.58c.21.51.46.98.75,1.4,1.13,1.62,2.57,2.42,4.32,2.42s3.15-.7,4.08-2.09c.53-.75.96-1.87,1.3-3.37h5.04c-.45,3.17-1.58,5.74-3.39,7.73-1.81,1.98-4.14,2.98-6.98,2.98-3.51,0-6.27-1.34-8.28-4.02-1.05-1.41-1.83-3.09-2.33-5.05h-6.31Z"/>
          </g>
          <g class="cls-2">
            <path class="cls-4" d="m465.76,235.63l.83-3.96h4.87c-.05-.66-.08-1.35-.08-2.07,0-.63.02-1.25.06-1.85h-5.68l.83-3.96h5.4c.55-2.35,1.49-4.32,2.82-5.91,1.98-2.39,4.51-3.59,7.59-3.59,4.1,0,7.1,1.6,9.01,4.81,1.05,1.8,1.62,3.61,1.69,5.42h-5.1c-.33-1.39-.76-2.44-1.28-3.15-.92-1.26-2.29-1.89-4.12-1.89s-3.32.89-4.39,2.68c-.29.49-.54,1.03-.75,1.64h7.82l-.83,3.96h-7.78c-.04.62-.06,1.27-.06,1.95s.02,1.35.06,1.97h7.29l-.83,3.96h-5.58c.21.51.46.98.75,1.4,1.13,1.62,2.57,2.42,4.32,2.42s3.15-.7,4.08-2.09c.53-.75.96-1.87,1.3-3.37h5.04c-.45,3.17-1.58,5.74-3.39,7.73-1.81,1.98-4.14,2.98-6.98,2.98-3.51,0-6.27-1.34-8.28-4.02-1.05-1.41-1.83-3.09-2.33-5.05h-6.31Z"/>
          </g>
          <g class="cls-2">
            <path class="cls-4" d="m870.04,72.44l.83-3.96h4.87c-.05-.66-.08-1.35-.08-2.07,0-.63.02-1.25.06-1.85h-5.68l.83-3.96h5.4c.55-2.35,1.49-4.32,2.82-5.91,1.98-2.39,4.51-3.59,7.59-3.59,4.1,0,7.1,1.6,9.01,4.81,1.05,1.8,1.62,3.61,1.69,5.42h-5.1c-.33-1.39-.76-2.44-1.28-3.15-.92-1.26-2.29-1.89-4.12-1.89s-3.32.89-4.39,2.68c-.29.49-.54,1.03-.75,1.64h7.82l-.83,3.96h-7.78c-.04.62-.06,1.27-.06,1.95s.02,1.35.06,1.97h7.29l-.83,3.96h-5.58c.21.51.46.98.75,1.4,1.13,1.62,2.57,2.42,4.32,2.42s3.15-.7,4.08-2.09c.53-.75.96-1.87,1.3-3.37h5.04c-.45,3.17-1.58,5.74-3.39,7.73-1.81,1.98-4.14,2.98-6.98,2.98-3.51,0-6.27-1.34-8.28-4.02-1.05-1.41-1.83-3.09-2.33-5.05h-6.31Z"/>
          </g>
          <path class="cls-1" d="m361.44,113.65c1.5-.84,2.57-2.44,2.57-4.2v-.09c0-3.8-3.83-6.18-8.27-6.24v-5.44h-3.49v5.44h-1.98v-5.44h-3.49v5.44h-6.6v3.34h2.86c.67,0,1.21.54,1.21,1.21v15.27c0,.67-.54,1.2-1.21,1.2h-2.86v3.34h6.6v5.49h3.49v-5.49h1.98v5.49h3.49v-5.49h2.39c4.04,0,7.31-3.27,7.31-7.31h0c0-2.85-1.63-5.32-4.01-6.52Zm-7.16-6.89c1.8,0,3.27,1.46,3.27,3.27h0c0,1.8-1.46,3.27-3.27,3.27h-3.99v-6.53h3.99Zm4.88,13.41c0,2.01-1.63,3.64-3.64,3.64h-5.23v-7.28h5.23c2.01,0,3.64,1.63,3.64,3.64h0Z"/>
          <path class="cls-1" d="m774.51,80.01c1.5-.84,2.57-2.44,2.57-4.2v-.09c0-3.8-3.83-6.18-8.27-6.24v-5.44h-3.49v5.44h-1.98v-5.44h-3.49v5.44h-6.6v3.34h2.86c.67,0,1.21.54,1.21,1.21v15.27c0,.67-.54,1.2-1.21,1.2h-2.86v3.34h6.6v5.49h3.49v-5.49h1.98v5.49h3.49v-5.49h2.39c4.04,0,7.31-3.27,7.31-7.31h0c0-2.85-1.63-5.32-4.01-6.52Zm-7.16-6.89c1.8,0,3.27,1.46,3.27,3.27h0c0,1.8-1.46,3.27-3.27,3.27h-3.99v-6.53h3.99Zm4.88,13.41c0,2.01-1.63,3.64-3.64,3.64h-5.23v-7.28h5.23c2.01,0,3.64,1.63,3.64,3.64h0Z"/>
        </g>
        <g class="cls-6">
          <g class="cls-8">
            <g>
              <rect class="cls-5" x="1042.75" y="131.74" width="26.14" height="153.53"/>
              <g>
                <rect class="cls-5" x="991.57" y="68.92" width="26.14" height="204.58"/>
                <rect class="cls-5" x="1004.46" y="273.5" width=".74" height="29.66"/>
              </g>
              <g>
                <rect class="cls-5" x="944.45" y="168.31" width="26.14" height="80.82"/>
                <rect class="cls-5" x="957.33" y="249.13" width=".74" height="11.72"/>
              </g>
              <g>
                <rect class="cls-5" x="1082.14" y="148.31" width="26.14" height="60.19"/>
                <rect class="cls-5" x="1095.02" y="208.5" width=".74" height="8.73"/>
              </g>
              <g>
                <rect class="cls-5" x="1121.9" y="202.02" width="26.14" height="36.52"/>
                <rect class="cls-5" x="1134.78" y="238.54" width=".74" height="5.3"/>
              </g>
              <g>
                <rect class="cls-5" x="1167.18" y="132.45" width="26.14" height="113.28"/>
                <rect class="cls-5" x="1180.07" y="245.73" width=".74" height="16.42"/>
              </g>
              <g>
                <rect class="cls-5" x="1207.68" y="143.44" width="26.14" height="195.11"/>
                <rect class="cls-5" x="1220.56" y="338.55" width=".74" height="28.29"/>
              </g>
              <g>
                <rect class="cls-5" x="1250.03" y="261.54" width="26.14" height="71.01"/>
                <rect class="cls-5" x="1262.91" y="332.55" width=".74" height="10.3"/>
              </g>
              <g>
                <rect class="cls-5" x="1293.51" y="206.3" width="26.14" height="97.57"/>
                <rect class="cls-5" x="1306.39" y="303.87" width=".74" height="14.15"/>
              </g>
              <g>
                <rect class="cls-5" x="1335.02" y="252.8" width="26.14" height="48.78"/>
                <rect class="cls-5" x="1347.9" y="301.59" width=".74" height="7.07"/>
              </g>
              <g>
                <rect class="cls-5" x="1376.48" y="154.61" width="26.14" height="117.88"/>
                <rect class="cls-5" x="1389.36" y="272.49" width=".74" height="17.09"/>
              </g>
              <g>
                <rect class="cls-5" x="1418.63" y="173.92" width="26.14" height="121.73"/>
                <rect class="cls-5" x="1431.52" y="295.66" width=".74" height="17.65"/>
              </g>
              <g>
                <rect class="cls-5" x="1457.66" y="142.27" width="26.14" height="62.9"/>
                <rect class="cls-5" x="1470.54" y="205.17" width=".74" height="9.12"/>
              </g>
              <g>
                <rect class="cls-5" x="1495.94" y="92.11" width="26.14" height="177.19"/>
                <rect class="cls-5" x="1508.83" y="269.3" width=".74" height="25.69"/>
              </g>
              <g>
                <rect class="cls-5" x="1537.18" y="60.72" width="26.14" height="41.93"/>
                <rect class="cls-5" x="1550.06" y="102.65" width=".74" height="6.08"/>
              </g>
              <g>
                <rect class="cls-5" x="1580.62" y="38.4" width="26.14" height="86.57"/>
                <rect class="cls-5" x="1593.51" y="124.97" width=".74" height="12.55"/>
              </g>
              <g>
                <rect class="cls-5" x="1621.48" y="107.14" width="26.14" height="64.25"/>
                <rect class="cls-5" x="1634.37" y="171.39" width=".74" height="9.32"/>
              </g>
              <g>
                <rect class="cls-5" x="1696.59" y="75.44" width="26.14" height="122.41"/>
                <rect class="cls-5" x="1709.47" y="197.85" width=".74" height="17.75"/>
              </g>
              <g>
                <rect class="cls-5" x="1661.25" y="104.99" width="26.14" height="28.4"/>
                <rect class="cls-5" x="1674.13" y="133.4" width=".74" height="4.12"/>
              </g>
              <g>
                <rect class="cls-5" x="1739.29" y="88.25" width="26.14" height="45.31"/>
                <rect class="cls-5" x="1752.18" y="133.56" width=".74" height="6.57"/>
              </g>
              <g>
                <rect class="cls-5" x="905.06" y="187.76" width="26.14" height="28.4"/>
                <rect class="cls-5" x="917.94" y="216.16" width=".74" height="4.12"/>
              </g>
              <g>
                <rect class="cls-5" x="868.98" y="90.17" width="26.14" height="105.63"/>
                <rect class="cls-5" x="881.86" y="195.8" width=".74" height="15.32"/>
              </g>
            </g>
          </g>
          <polygon class="cls-1" points="1017.19 28.91 1010.41 28.91 1004.72 39.93 998.78 28.91 991.72 28.91 999.66 43.25 993.42 43.25 993.42 48.25 1001.63 48.25 1001.63 51.14 993.42 51.14 993.42 56.14 1001.63 56.14 1001.63 62.44 1007.62 62.44 1007.62 56.14 1015.5 56.14 1015.5 51.14 1007.62 51.14 1007.62 48.25 1015.5 48.25 1015.5 43.25 1009.52 43.25 1017.19 28.91"/>
          <polygon class="cls-1" points="1444.25 132.33 1437.47 132.33 1431.78 143.35 1425.83 132.33 1418.78 132.33 1426.72 146.67 1420.48 146.67 1420.48 151.67 1428.69 151.67 1428.69 154.56 1420.48 154.56 1420.48 159.56 1428.69 159.56 1428.69 165.86 1434.67 165.86 1434.67 159.56 1442.56 159.56 1442.56 154.56 1434.67 154.56 1434.67 151.67 1442.56 151.67 1442.56 146.67 1436.58 146.67 1444.25 132.33"/>
          <g class="cls-2">
            <path class="cls-4" d="m950.89,151.75c.38.06.81.14,1.3.25-.08-.97-.24-1.87-.47-2.69-.24-.82-.75-2.34-1.56-4.58h-4.69v-3.14h3.87c-.27-1.16-.46-2.3-.57-3.41-.08-.72-.12-1.37-.12-1.93,0-3.03.9-5.4,2.71-7.1,1.81-1.7,4.04-2.56,6.7-2.56,3.08,0,5.26.74,6.53,2.23.75.89,1.13,1.95,1.13,3.18,0,1.04-.28,1.88-.85,2.53-.57.65-1.42.98-2.57.98-.86,0-1.56-.3-2.08-.89-.52-.6-.78-1.34-.78-2.23,0-.11.03-.8.09-2.07,0-.66-.11-1.16-.33-1.5-.35-.52-.97-.78-1.89-.78-.77,0-1.4.25-1.87.74-.48.49-.72,1.35-.72,2.58,0,.46.23,1.91.7,4.36.46,2.45.85,4.41,1.17,5.89h5.52v3.14h-5.24c0,.11.02.59.07,1.44.02.27.02.53.02.8,0,.93-.07,1.78-.2,2.55-.13.77-.4,1.97-.79,3.61,1.27.42,2.13.69,2.57.8.71.17,1.38.26,2.01.26,1.73,0,2.96-.33,3.68-.99.46-.41.87-1.22,1.25-2.43h1.11c-.14,2.45-.5,4.36-1.06,5.73-1.07,2.53-2.91,3.8-5.52,3.8-.97,0-1.79-.19-2.45-.56-.66-.37-1.77-1.2-3.32-2.5-.83,1.03-1.53,1.73-2.1,2.11-.96.62-2.16.92-3.61.92-1.12,0-2.08-.38-2.88-1.14-.8-.76-1.2-1.74-1.2-2.94,0-1.1.4-2.13,1.19-3.09.79-.96,2.15-1.44,4.07-1.44.41,0,.8.03,1.18.08Zm.41,5.9c.65-.74.98-1.45.98-2.13,0-.19-.35-.51-1.04-.97-.69-.44-1.53-.66-2.5-.66-.79,0-1.42.23-1.89.7-.47.47-.71,1.07-.71,1.81,0,.98.38,1.67,1.13,2.06.41.21.89.31,1.44.31,1.07,0,1.93-.37,2.58-1.11Z"/>
          </g>
          <g class="cls-2">
            <path class="cls-4" d="m1384.73,138.68c.38.06.81.14,1.3.25-.08-.97-.24-1.87-.47-2.69-.24-.82-.75-2.34-1.56-4.58h-4.69v-3.14h3.87c-.27-1.16-.46-2.3-.57-3.41-.08-.72-.12-1.37-.12-1.93,0-3.03.9-5.4,2.71-7.1,1.81-1.7,4.04-2.56,6.7-2.56,3.08,0,5.26.74,6.53,2.23.75.89,1.13,1.95,1.13,3.18,0,1.04-.28,1.88-.85,2.53-.57.65-1.42.98-2.57.98-.86,0-1.56-.3-2.08-.89-.52-.6-.78-1.34-.78-2.23,0-.11.03-.8.09-2.07,0-.66-.11-1.16-.33-1.5-.35-.52-.97-.78-1.89-.78-.77,0-1.4.25-1.87.74-.48.49-.72,1.35-.72,2.58,0,.46.23,1.91.7,4.36.46,2.45.85,4.41,1.17,5.89h5.52v3.14h-5.24c0,.11.02.59.07,1.44.02.27.02.53.02.8,0,.93-.07,1.78-.2,2.55-.13.77-.4,1.97-.79,3.61,1.27.42,2.13.69,2.57.8.71.17,1.38.26,2.01.26,1.73,0,2.96-.33,3.68-.99.46-.41.87-1.22,1.25-2.43h1.11c-.14,2.45-.5,4.36-1.06,5.73-1.07,2.53-2.91,3.8-5.52,3.8-.97,0-1.79-.19-2.45-.56-.66-.37-1.77-1.2-3.32-2.5-.83,1.03-1.53,1.73-2.1,2.11-.96.62-2.16.92-3.61.92-1.12,0-2.08-.38-2.88-1.14-.8-.76-1.2-1.74-1.2-2.94,0-1.1.4-2.13,1.19-3.09.79-.96,2.15-1.44,4.07-1.44.41,0,.8.03,1.18.08Zm.41,5.9c.65-.74.98-1.45.98-2.13,0-.19-.35-.51-1.04-.97-.69-.44-1.53-.66-2.5-.66-.79,0-1.42.23-1.89.7-.47.47-.71,1.07-.71,1.81,0,.98.38,1.67,1.13,2.06.41.21.89.31,1.44.31,1.07,0,1.93-.37,2.58-1.11Z"/>
          </g>
          <g class="cls-7">
            <path class="cls-4" d="m1307.48,197.12h-1.99v-4.08c-2.69-.3-4.7-.89-6.03-1.76-2.34-1.57-3.49-4.25-3.45-8.04h5.54c.19,1.72.46,2.88.8,3.47.53.92,1.58,1.51,3.14,1.78v-8.76l-1.66-.49c-2.61-.77-4.45-1.83-5.53-3.2-1.07-1.37-1.61-3.01-1.61-4.94,0-1.27.21-2.43.63-3.47.42-1.04,1-1.93,1.75-2.69.97-.97,2.05-1.64,3.24-2.01.72-.23,1.78-.4,3.18-.51v-2.73h1.99v2.77c2.22.18,3.96.72,5.23,1.64,2.3,1.46,3.49,3.84,3.57,7.12h-5.39c-.11-1.22-.31-2.1-.61-2.67-.51-.97-1.45-1.5-2.8-1.6v7.81c3.24,1.12,5.42,2.11,6.53,2.97,1.84,1.44,2.76,3.46,2.76,6.07,0,3.45-1.26,5.95-3.79,7.51-1.54.96-3.38,1.52-5.5,1.68v4.12Zm-1.99-30.13c-1.19.03-2.07.35-2.65.95-.57.61-.86,1.44-.86,2.49,0,1.15.43,2.06,1.29,2.73.48.37,1.22.71,2.22,1.03v-7.2Zm1.99,21.43c1.07-.14,1.85-.38,2.33-.74.85-.63,1.28-1.72,1.28-3.26,0-1.18-.4-2.11-1.2-2.79-.47-.4-1.28-.81-2.41-1.23v8.02Z"/>
          </g>
          <g class="cls-7">
            <path class="cls-4" d="m1710.56,69.16h-1.99v-4.08c-2.69-.3-4.7-.89-6.03-1.76-2.34-1.57-3.49-4.25-3.45-8.04h5.54c.19,1.72.46,2.88.8,3.47.53.92,1.58,1.51,3.14,1.78v-8.76l-1.66-.49c-2.61-.77-4.45-1.83-5.53-3.2-1.07-1.37-1.61-3.01-1.61-4.94,0-1.27.21-2.43.63-3.47.42-1.04,1-1.93,1.75-2.69.97-.97,2.05-1.64,3.24-2.01.72-.23,1.78-.4,3.18-.51v-2.73h1.99v2.77c2.22.18,3.96.72,5.23,1.64,2.3,1.46,3.49,3.84,3.57,7.12h-5.39c-.11-1.22-.31-2.1-.61-2.67-.51-.97-1.45-1.5-2.8-1.6v7.81c3.24,1.12,5.42,2.11,6.53,2.97,1.84,1.44,2.76,3.46,2.76,6.07,0,3.45-1.26,5.95-3.79,7.51-1.54.96-3.38,1.52-5.5,1.68v4.12Zm-1.99-30.13c-1.19.03-2.07.35-2.65.95-.57.61-.86,1.44-.86,2.49,0,1.15.43,2.06,1.29,2.73.48.37,1.22.71,2.22,1.03v-7.2Zm1.99,21.43c1.07-.14,1.85-.38,2.33-.74.85-.63,1.28-1.72,1.28-3.26,0-1.18-.4-2.11-1.2-2.79-.47-.4-1.28-.81-2.41-1.23v8.02Z"/>
          </g>
          <path class="cls-1" d="m1059.57,95.39h5.46l2.16-3.16h-20.69l-2.07,3.16h4.05c2.91,0,6.47.25,7.77,3.3h-9.69l-2.13,3.15h12.31c-.27,5.39-6.92,5.84-7.84,5.84h-3.21v3.04l12,14.94h5.33l-12.44-15.57s7.16-.2,9.55-5.11c.55-1.13.86-2.18,1-3.16h3.91l2.1-3.15h-6.09c-.43-2.07-1.47-3.3-1.47-3.3Z"/>
          <path class="cls-1" d="m1474.3,103.06h5.46l2.16-3.16h-20.69l-2.07,3.16h4.05c2.91,0,6.47.25,7.77,3.3h-9.69l-2.13,3.15h12.31c-.27,5.39-6.92,5.84-7.84,5.84h-3.21v3.04l12,14.94h5.33l-12.44-15.57s7.16-.2,9.55-5.11c.55-1.13.86-2.18,1-3.16h3.91l2.1-3.15h-6.09c-.43-2.07-1.47-3.3-1.47-3.3Z"/>
          <path class="cls-1" d="m1103.78,109.8h-12.3v14.18h-4.17v5.5h4.17v2.72h-4.17v4.11h4.17v5.2h6.19v-5.2h4.22v-4.11h-4.22v-2.62h6.1c6.55,0,10.47-4.5,10.47-9.89s-3.92-9.89-10.47-9.89Zm-.31,14.21h-5.79v-8.69h5.79c2.81,0,4.59,1.78,4.59,4.37s-1.78,4.32-4.59,4.32Z"/>
          <path class="cls-1" d="m1513.13,50.45h-12.3v14.18h-4.17v5.5h4.17v2.72h-4.17v4.11h4.17v5.2h6.19v-5.2h4.22v-4.11h-4.22v-2.62h6.1c6.55,0,10.47-4.5,10.47-9.89s-3.92-9.89-10.47-9.89Zm-.31,14.21h-5.79v-8.69h5.79c2.81,0,4.59,1.78,4.59,4.37s-1.78,4.32-4.59,4.32Z"/>
          <g class="cls-2">
            <rect class="cls-4" x="1124.78" y="161.7" width="19.72" height="5.21"/>
            <path class="cls-4" d="m1149.7,187.27v-.15h-4.71v.19c0,.22,0,.81-.1.92,0,0-.34.33-1.73.33-1.3,0-1.68-.25-1.69-.25h0c-.14-.24-.14-1.23-.14-1.82v-9.81h7.9v-5.21h-27.77v5.21h7.53c-.64,11.52-7.37,12.15-7.67,12.17l.13,2.35.1,2.35c.34-.01,3.37-.21,6.39-2.75,4.25-3.58,5.53-9.35,5.76-14.12h2.91v9.79c0,1.62-.02,3.63,1.49,5.15,1.1,1.11,2.75,1.65,5.04,1.65s3.94-.58,5.07-1.72c1.49-1.5,1.47-3.38,1.46-4.28Z"/>
          </g>
          <g class="cls-2">
            <rect class="cls-4" x="1540.06" y="22.47" width="19.72" height="5.21"/>
            <path class="cls-4" d="m1564.98,48.05v-.15h-4.71v.19c0,.22,0,.81-.1.92,0,0-.34.33-1.73.33-1.3,0-1.68-.25-1.69-.25h0c-.14-.24-.14-1.23-.14-1.82v-9.81h7.9v-5.21h-27.77v5.21h7.53c-.64,11.52-7.37,12.15-7.67,12.17l.13,2.35.1,2.35c.34-.01,3.37-.21,6.39-2.75,4.25-3.58,5.53-9.35,5.76-14.12h2.91v9.79c0,1.62-.02,3.63,1.49,5.15,1.1,1.11,2.75,1.65,5.04,1.65s3.94-.58,5.07-1.72c1.49-1.5,1.47-3.38,1.46-4.28Z"/>
          </g>
          <polygon class="cls-1" points="1276.17 227.92 1276.17 222.46 1258.21 222.46 1258.21 243.78 1254.12 243.78 1254.12 249.2 1258.21 249.2 1258.21 254.62 1264.86 254.62 1264.86 249.2 1268.74 249.2 1268.74 243.78 1264.86 243.78 1264.86 238.7 1275.43 238.7 1275.43 233.28 1264.86 233.28 1264.86 227.92 1276.17 227.92"/>
          <polygon class="cls-1" points="1685.15 69.03 1685.15 63.57 1667.2 63.57 1667.2 84.89 1663.11 84.89 1663.11 90.31 1667.2 90.31 1667.2 95.73 1673.84 95.73 1673.84 90.31 1677.72 90.31 1677.72 84.89 1673.84 84.89 1673.84 79.81 1684.41 79.81 1684.41 74.39 1673.84 74.39 1673.84 69.03 1685.15 69.03"/>
          <path class="cls-1" d="m1198.49,107.38v-4.01h-3.37l1.78-7.55h-5.1l-1.61,7.55h-6.49l-1.51-7.55h-7.13l-1.46,7.55h-6.37l-1.59-7.55h-5.51l1.81,7.55h-3.4v4.01h4.37l.7,2.92h-5.07v4.01h6.03l2.5,10.43h6.79l2.01-10.43h5.4l2.05,10.43h6.75l2.46-10.43h5.96v-4.01h-5.01l.69-2.92h4.32Zm-19.97-6.74h.08l.54,2.73h-1.14l.53-2.73Zm-10.43,6.74h4.74l-.56,2.92h-3.57l-.62-2.92Zm2.51,11.55h-.08l-.98-4.63h1.95l-.89,4.63Zm6.05-8.64l.56-2.92h2.7l.57,2.92h-3.84Zm10.23,8.64h-.08l-.92-4.63h1.98l-.98,4.63Zm1.84-8.64h-3.64l-.58-2.92h4.84l-.62,2.92Z"/>
          <path class="cls-1" d="m1614.22,11.56v-4.01h-3.37l1.78-7.55h-5.1l-1.61,7.55h-6.49l-1.51-7.55h-7.13l-1.46,7.55h-6.37l-1.59-7.55h-5.51l1.81,7.55h-3.4v4.01h4.37l.7,2.92h-5.07v4.01h6.03l2.5,10.43h6.79l2.01-10.43h5.4l2.05,10.43h6.75l2.46-10.43h5.96v-4.01h-5.01l.69-2.92h4.32Zm-19.97-6.74h.08l.54,2.73h-1.14l.53-2.73Zm-10.43,6.74h4.74l-.56,2.92h-3.57l-.62-2.92Zm2.51,11.55h-.08l-.98-4.63h1.95l-.89,4.63Zm6.05-8.64l.56-2.92h2.7l.57,2.92h-3.84Zm10.23,8.64h-.08l-.92-4.63h1.98l-.98,4.63Zm1.84-8.64h-3.64l-.58-2.92h4.84l-.62,2.92Z"/>
          <g class="cls-2">
            <path class="cls-4" d="m903.09,170.65l.83-3.96h4.87c-.05-.66-.08-1.35-.08-2.07,0-.63.02-1.25.06-1.85h-5.68l.83-3.96h5.4c.55-2.35,1.49-4.32,2.82-5.91,1.98-2.39,4.51-3.59,7.59-3.59,4.1,0,7.1,1.6,9.01,4.81,1.05,1.8,1.62,3.61,1.69,5.42h-5.1c-.33-1.39-.76-2.44-1.28-3.15-.92-1.26-2.29-1.89-4.12-1.89s-3.32.89-4.39,2.68c-.29.49-.54,1.03-.75,1.64h7.82l-.83,3.96h-7.78c-.04.62-.06,1.27-.06,1.95s.02,1.35.06,1.97h7.29l-.83,3.96h-5.58c.21.51.46.98.75,1.4,1.13,1.62,2.57,2.42,4.32,2.42s3.15-.7,4.08-2.09c.53-.75.96-1.87,1.3-3.37h5.04c-.45,3.17-1.58,5.74-3.39,7.73-1.81,1.98-4.14,2.98-6.98,2.98-3.51,0-6.27-1.34-8.28-4.02-1.05-1.41-1.83-3.09-2.33-5.05h-6.31Z"/>
          </g>
          <g class="cls-2">
            <path class="cls-4" d="m1334.24,235.63l.83-3.96h4.87c-.05-.66-.08-1.35-.08-2.07,0-.63.02-1.25.06-1.85h-5.68l.83-3.96h5.4c.55-2.35,1.49-4.32,2.82-5.91,1.98-2.39,4.51-3.59,7.59-3.59,4.1,0,7.1,1.6,9.01,4.81,1.05,1.8,1.62,3.61,1.69,5.42h-5.1c-.33-1.39-.76-2.44-1.28-3.15-.92-1.26-2.29-1.89-4.12-1.89s-3.32.89-4.39,2.68c-.29.49-.54,1.03-.75,1.64h7.82l-.83,3.96h-7.78c-.04.62-.06,1.27-.06,1.95s.02,1.35.06,1.97h7.29l-.83,3.96h-5.58c.21.51.46.98.75,1.4,1.13,1.62,2.57,2.42,4.32,2.42s3.15-.7,4.08-2.09c.53-.75.96-1.87,1.3-3.37h5.04c-.45,3.17-1.58,5.74-3.39,7.73-1.81,1.98-4.14,2.98-6.98,2.98-3.51,0-6.27-1.34-8.28-4.02-1.05-1.41-1.83-3.09-2.33-5.05h-6.31Z"/>
          </g>
          <g class="cls-2">
            <path class="cls-4" d="m1738.51,72.44l.83-3.96h4.87c-.05-.66-.08-1.35-.08-2.07,0-.63.02-1.25.06-1.85h-5.68l.83-3.96h5.4c.55-2.35,1.49-4.32,2.82-5.91,1.98-2.39,4.51-3.59,7.59-3.59,4.1,0,7.1,1.6,9.01,4.81,1.05,1.8,1.62,3.61,1.69,5.42h-5.1c-.33-1.39-.76-2.44-1.28-3.15-.92-1.26-2.29-1.89-4.12-1.89s-3.32.89-4.39,2.68c-.29.49-.54,1.03-.75,1.64h7.82l-.83,3.96h-7.78c-.04.62-.06,1.27-.06,1.95s.02,1.35.06,1.97h7.29l-.83,3.96h-5.58c.21.51.46.98.75,1.4,1.13,1.62,2.57,2.42,4.32,2.42s3.15-.7,4.08-2.09c.53-.75.96-1.87,1.3-3.37h5.04c-.45,3.17-1.58,5.74-3.39,7.73-1.81,1.98-4.14,2.98-6.98,2.98-3.51,0-6.27-1.34-8.28-4.02-1.05-1.41-1.83-3.09-2.33-5.05h-6.31Z"/>
          </g>
          <path class="cls-1" d="m1229.92,113.65c1.5-.84,2.57-2.44,2.57-4.2v-.09c0-3.8-3.83-6.18-8.27-6.24v-5.44h-3.49v5.44h-1.98v-5.44h-3.49v5.44h-6.6v3.34h2.86c.67,0,1.21.54,1.21,1.21v15.27c0,.67-.54,1.2-1.21,1.2h-2.86v3.34h6.6v5.49h3.49v-5.49h1.98v5.49h3.49v-5.49h2.39c4.04,0,7.31-3.27,7.31-7.31h0c0-2.85-1.63-5.32-4.01-6.52Zm-7.16-6.89c1.8,0,3.27,1.46,3.27,3.27h0c0,1.8-1.46,3.27-3.27,3.27h-3.99v-6.53h3.99Zm4.88,13.41c0,2.01-1.63,3.64-3.64,3.64h-5.23v-7.28h5.23c2.01,0,3.64,1.63,3.64,3.64h0Z"/>
          <path class="cls-1" d="m1642.99,80.01c1.5-.84,2.57-2.44,2.57-4.2v-.09c0-3.8-3.83-6.18-8.27-6.24v-5.44h-3.49v5.44h-1.98v-5.44h-3.49v5.44h-6.6v3.34h2.86c.67,0,1.21.54,1.21,1.21v15.27c0,.67-.54,1.2-1.21,1.2h-2.86v3.34h6.6v5.49h3.49v-5.49h1.98v5.49h3.49v-5.49h2.39c4.04,0,7.31-3.27,7.31-7.31h0c0-2.85-1.63-5.32-4.01-6.52Zm-7.16-6.89c1.8,0,3.27,1.46,3.27,3.27h0c0,1.8-1.46,3.27-3.27,3.27h-3.99v-6.53h3.99Zm4.88,13.41c0,2.01-1.63,3.64-3.64,3.64h-5.23v-7.28h5.23c2.01,0,3.64,1.63,3.64,3.64h0Z"/>
        </g>
      </g>
    </g>
  </g>
</svg>