<?xml version="1.0" encoding="UTF-8"?>
<svg id="Layer_1" data-name="Layer 1" xmlns="http://www.w3.org/2000/svg" viewBox="0 0 847.94 438.92">
  <defs>
    <style>
      .cls-1 {
        fill: #fff;
      }

      .cls-2 {
        fill: #588020;
      }
    </style>
  </defs>
  <path class="cls-1" d="m367.97,96.72c2.98,0,5.74,0,8.5,0,30.5,0,61,0,91.5.02,5.96,0,5.93.06,5.92,6,0,6.18.02,12.36.14,18.54.03,1.85-.47,2.82-2.5,2.72-2.01-.1-4.02-.04-6.03-.04-22.71,0-45.41-.01-68.12-.02-.57,0-1.15,0-1.92,0-.09.87-.23,1.6-.23,2.32,0,24.39.04,48.77-.01,73.16,0,2.39,1.28,2.49,3.04,2.49,21.2.01,42.4.05,63.6.08,3.27,0,6.54-.12,9.8-.01,2.04.07,2.48-.73,2.48-2.66-.09-24.55-.09-49.11-.12-73.66,0-.41.04-.82.07-1.4.69-.1,1.32-.26,1.95-.26,7.87-.02,15.75.02,23.62-.03,1.73,0,1.79.95,1.79,2.27-.04,32.57-.05,65.14-.08,97.71,0,5.39-.04,5.37-5.47,5.37-41.56,0-83.12.02-124.68.04-3.44,0-3.37.01-3.38-3.38-.01-42.26-.05-84.52-.07-126.77,0-.81.13-1.61.2-2.49Z"/>
  <path class="cls-1" d="m500.9,268.13c2.58,0,5.07-.08,7.55.02,6.43.25,12.9.24,19.28.97,6.96.79,11.53,4.92,12.69,10.42,1.14,5.42-1.13,10.12-6.12,12.67-.5.26-.99.55-1.94,1.08,1.07.69,1.78,1.3,2.61,1.66,5.15,2.25,7.73,6.28,7.93,11.75.21,5.68-2.06,10.2-7,13.26-5.07,3.15-10.85,4-16.58,4.44-6.06.47-12.18.11-18.43.11v-56.39Zm11.88,31.46c0,4.62-.08,8.45.08,12.26.03.63,1.06,1.73,1.64,1.74,3.25.06,6.54.05,9.77-.33,4.01-.48,6.19-2.68,6.42-5.87.22-3.05-2.06-6.28-5.72-6.92-3.89-.68-7.92-.6-12.19-.88Zm4.72-8.07s0,.05.01.08c1.83-.17,3.68-.23,5.49-.52,2.93-.47,5.32-3.11,5.4-5.77.09-2.95-1.73-5.31-5-5.94-2.53-.48-5.16-.49-7.72-.83-2.37-.32-2.89.83-2.77,2.89.13,2.16.22,4.34.05,6.49-.29,3.63-.34,3.67,3.28,3.61.42,0,.84,0,1.26,0Z"/>
  <path class="cls-1" d="m470.44,268.11c-.48,13.3-.58,25.9-1.52,38.43-.61,8.19-5.68,13.71-13.4,16.58-2.79,1.04-5.69,2.05-8.62,2.4-6.48.78-12.14-1.84-17.33-5.35-5.56-3.76-7.86-9.56-8.19-15.92-.5-9.57-.43-19.18-.59-28.77-.04-2.24,0-4.48,0-7.32,3.7,0,7.58-.07,11.45.11.37.02.95,1.56.96,2.39.05,9.35-.05,18.7.04,28.05.02,2.48.35,5.01.94,7.41,1.11,4.51,4.28,7.1,8.89,7.54,1.66.16,3.34.12,5.01.07,4.31-.13,7.23-2.54,8.37-6.39,1.09-3.71,1.7-7.67,1.78-11.53.17-8.51-.09-17.02-.26-25.54-.03-1.62.45-2.25,2.12-2.2,3.24.09,6.48.03,10.35.03Z"/>
  <path class="cls-2" d="m321.04,268.28c-4.09,5.99-7.84,11.5-11.62,16.99-1.75,2.54-3.65,4.99-5.31,7.59-.41.64-.53,1.96-.15,2.52,5.13,7.51,10.38,14.95,15.61,22.4,1.45,2.07,2.94,4.11,4.73,6.61-4.18,0-7.56-.12-10.92.05-1.97.1-3.33-.44-4.41-2.11-3.72-5.74-7.53-11.43-11.31-17.14-.54-.82-1.09-1.63-1.86-2.79-.81,1-1.48,1.68-1.99,2.47-3.52,5.47-7.04,10.96-10.5,16.47-1.16,1.84-2.53,2.86-4.9,2.7-3.23-.22-6.49-.06-9.94-.06.29-.56.65-1.43,1.17-2.18,5.41-7.83,10.84-15.65,16.29-23.45,2.87-4.1,2.88-4.08-.04-8.28-4.63-6.65-9.24-13.3-13.84-19.97-.31-.44-.44-1.01-.69-1.6,4.26,0,8.32-.11,12.37.09.83.04,1.81,1.08,2.36,1.9,3.01,4.51,5.91,9.1,8.86,13.65.3.47.65.91,1.21,1.69.82-.98,1.57-1.72,2.13-2.58,2.6-3.98,5.2-7.97,7.7-12.02,1.31-2.12,2.97-3.16,5.57-2.98,2.98.21,5.98.05,9.47.05Z"/>
  <path class="cls-1" d="m660.03,282.83c-1.14-.48-1.98-.75-2.75-1.16-6.08-3.22-12.54-4.26-19.21-2.66-8.18,1.95-13.13,9.3-12.59,18.15.5,8.11,7.01,15.44,14.75,16.45,6.65.87,13.04.2,18.7-3.85.33-.23.74-.35,1.49-.69.15,1.14.35,2.06.37,2.99.03,2.25-.26,4.53.02,6.75.25,1.96-.5,2.63-2.19,3.18-5.47,1.78-10.78,4.55-16.75,3.58-12.87-2.09-26.45-8.9-28.47-26.37-1.62-14,7.73-27.36,21.71-30.85,7.92-1.98,15.8-1.35,23.35,1.94.68.3,1.47,1.25,1.5,1.92.15,3.39.07,6.8.07,10.62Z"/>
  <path class="cls-1" d="m391.03,283.27c-5.52-3.87-11.07-4.96-16.99-4.82-9.25.21-16.75,7.07-17.19,15.91-.51,10.15,5.84,18.09,15.35,19.31,5.75.74,11.16-.1,16.24-2.95,1.07-.6,2.21-1.06,3.47-1.65,0,3.87.06,7.43-.06,10.99-.02.57-.7,1.4-1.28,1.64-6.43,2.71-12.93,4.96-20.15,3.6-15.36-2.89-25.7-14.87-25.58-29.86.11-14.07,11.74-26.54,25.97-27.87,6.08-.57,12.03-.06,17.8,2.07,1.73.64,2.53,1.6,2.45,3.52-.13,3.13-.03,6.28-.03,10.11Z"/>
  <path class="cls-2" d="m220.97,291.17c4.93,0,9.52.02,14.11,0q6.28-.03,6.37,6.26c.06,3.93-.12,4.05-4.05,3.91-4.43-.16-8.87-.21-13.31-.24-.97,0-1.95.27-3.13.45v22.76h-12.62c-.09-.75-.24-1.46-.24-2.17-.01-17.19.02-34.38-.05-51.58,0-1.95.8-2.44,2.54-2.43,10.38.06,20.77.11,31.15.08,2.09,0,3.11.59,2.89,2.88-.18,1.82-.11,3.67,0,5.5.12,1.77-.6,2.35-2.33,2.32-6.28-.08-12.56,0-18.84-.11-1.93-.03-2.67.54-2.56,2.56.17,3.15.04,6.32.04,9.8Z"/>
  <path class="cls-2" d="m527.26,82.99c0,3.76-.09,7.51.04,11.26.07,1.93-.53,2.71-2.54,2.69-7.54-.07-15.08-.05-22.62,0-1.77.01-2.32-.73-2.28-2.43.18-7.59.34-15.18.34-22.76,0-2.03.49-2.81,2.63-2.78,7.29.09,14.58.07,21.86-.04,2.13-.03,2.71.78,2.64,2.8-.14,3.75-.04,7.51-.04,11.26,0,0-.01,0-.02,0Z"/>
  <path class="cls-1" d="m571.92,324.59v-56.43c3.64,0,7.37-.07,11.1.1.41.02,1.07,1.47,1.07,2.25.08,7.25.04,14.51.02,21.77-.02,9.84-.09,19.68-.03,29.52.01,2.18-.71,2.96-2.92,2.83-2.91-.17-5.84-.04-9.25-.04Z"/>
</svg>