<?xml version="1.0" encoding="UTF-8"?>
<svg id="Layer_1" data-name="Layer 1" xmlns="http://www.w3.org/2000/svg" xmlns:xlink="http://www.w3.org/1999/xlink" viewBox="0 0 847.94 438.92">
  <defs>
    <style>
      .cls-1 {
        fill: url(#linear-gradient);
      }

      .cls-1, .cls-2, .cls-3 {
        fill-rule: evenodd;
      }

      .cls-2 {
        fill: #3fa580;
      }

      .cls-3 {
        fill: #fff;
      }
    </style>
    <linearGradient id="linear-gradient" x1="3760.74" y1="1495.16" x2="3760.74" y2="1492.87" gradientTransform="translate(-57280.59 51295.36) scale(15.3 -34.17)" gradientUnits="userSpaceOnUse">
      <stop offset="0" stop-color="#3fa580"/>
      <stop offset="1" stop-color="#1b634e"/>
    </linearGradient>
  </defs>
  <g id="Components">
    <g id="homepage-light-version">
      <g id="main-logo">
        <path id="Fill-1" class="cls-1" d="m244.73,145.9v20.88l-.05,94.84c-.22,9.37-7.88,16.9-17.31,16.9,32.06,0,57.33-24.85,59.32-54.71l.05-2.34v-57.05l-42.02-18.52"/>
        <path id="Fill-2" class="cls-2" d="m227.76,278.51c-.14,0-.27.02-.41.02h-.17c-9.57,0-17.32-7.75-17.32-17.32s7.75-17.32,17.32-17.32c2.73,0,5.32.64,7.61,1.76v-43.33c-2.49-.32-5.04-.48-7.61-.48-5.38,0-10.59.73-15.54,2.07-15.94,3.26-35.44,9.53-44.93,12.54,0,0,.06,21.21.15,41.65-.08,1.21.02,3.56.02,4.78,0,4,.21,12.38.8,17.4.56,6.68,1.2,13.24,2.3,16.86.6,1.96,1.21,3.72,1.98,4.9.84,1.31,1.5,2.25,2.63,3.42,2.85,2.95,6.93,7.04,13.13,11.42,15.99,11.29,39.49,23.04,39.49,23.04,0,0,45.86-23.25,54.74-38.65,1.31-2.27,2.3-6.96,3.03-13.01.06-.34.15-1.09.25-2.25.59-5.59,1-12.14,1.27-18.94-.09,1-.19,1.96-.27,2.88.09-1.99.18-4.13.27-6.44h.05l.16-39.45v-.27c-1.98,29.74-27.07,54.52-58.96,54.7"/>
        <path id="Fill-3" class="cls-3" d="m697.27,221.44c5.53,0,10.73,1.05,15.61,3.15,4.88,2.1,9.1,4.95,12.69,8.55,3.58,3.6,6.41,7.83,8.48,12.69,2.07,4.86,3.1,10.05,3.1,15.57s-1.06,10.71-3.15,15.58c-2.1,4.86-4.95,9.09-8.55,12.69-3.6,3.6-7.83,6.45-12.69,8.55-4.86,2.1-10.05,3.15-15.57,3.15s-10.71-1.03-15.57-3.1c-4.86-2.07-9.09-4.89-12.7-8.48-3.6-3.59-6.45-7.82-8.55-12.69-2.1-4.88-3.15-10.07-3.15-15.61,0-6.86,1.66-13.29,4.97-19.31.71-1.32,1.74-2.19,3.1-2.61,1.36-.42,2.7-.28,4.02.45,1.32.72,2.16,1.77,2.52,3.16.36,1.39.24,2.74-.36,4.06-2.52,4.33-3.79,9.08-3.79,14.26,0,4.09.78,7.91,2.35,11.46,1.57,3.55,3.68,6.65,6.34,9.3,2.65,2.64,5.76,4.75,9.32,6.32,3.56,1.57,7.39,2.35,11.49,2.35s7.93-.78,11.49-2.35c3.55-1.57,6.66-3.68,9.32-6.33,2.65-2.65,4.77-5.76,6.33-9.32,1.57-3.56,2.35-7.39,2.35-11.5s-.78-7.93-2.34-11.49c-1.56-3.56-3.67-6.67-6.32-9.32-2.65-2.65-5.75-4.77-9.29-6.33-3.55-1.57-7.37-2.35-11.46-2.35-5.18,0-9.92,1.26-14.26,3.79-1.33.72-2.68.88-4.06.45-1.39-.42-2.44-1.29-3.16-2.61-.72-1.32-.9-2.66-.54-4.02.36-1.36,1.2-2.39,2.53-3.1,6.15-3.33,12.64-4.99,19.5-4.99"/>
        <path id="Fill-4" class="cls-2" d="m615.35,199.79c2.04,0,3.82.76,5.32,2.26,1.5,1.5,2.26,3.34,2.26,5.5,0,2.05-.76,3.85-2.26,5.41-1.5,1.56-3.28,2.34-5.32,2.34-2.16,0-4-.78-5.5-2.34-1.51-1.56-2.26-3.36-2.26-5.41,0-2.17.75-4,2.26-5.5,1.5-1.5,3.33-2.26,5.5-2.26"/>
        <path id="Fill-5" class="cls-3" d="m504.93,218.33v15.92c-3.73-3.97-8.12-7.13-13.18-9.48-5.05-2.34-10.46-3.52-16.24-3.52s-10.73,1.06-15.61,3.16c-4.87,2.1-9.11,4.96-12.72,8.57-3.61,3.61-6.47,7.85-8.57,12.72-2.11,4.87-3.16,10.08-3.16,15.61s1.03,10.74,3.1,15.61c2.07,4.87,4.89,9.11,8.48,12.72,3.58,3.6,7.81,6.46,12.68,8.57,4.88,2.11,10.08,3.16,15.61,3.16,7.45,0,14.31-1.89,20.57-5.67,1.32-.71,2.16-1.78,2.53-3.19.36-1.43.12-2.74-.72-3.94-.72-1.32-1.78-2.16-3.16-2.53-1.39-.36-2.74-.12-4.06.72-4.58,2.77-9.62,4.15-15.16,4.15-4.09,0-7.91-.79-11.46-2.36-3.55-1.58-6.65-3.69-9.29-6.35-2.65-2.66-4.76-5.78-6.32-9.35-1.56-3.57-2.35-7.42-2.35-11.53s.79-7.96,2.36-11.53c1.56-3.57,3.67-6.69,6.33-9.35,2.66-2.66,5.76-4.78,9.32-6.35,3.56-1.57,7.39-2.36,11.5-2.36s7.93.78,11.49,2.35c3.56,1.57,6.67,3.68,9.32,6.33,2.66,2.65,4.76,5.76,6.33,9.31,1.57,3.56,2.36,7.39,2.36,11.49v40.16h10.46v-83.04h-10.46s0,0,0,0h0"/>
        <path id="Fill-6" class="cls-3" d="m618.9,222.61c-1-1.02-2.22-1.53-3.64-1.53-1.54,0-2.81.51-3.81,1.53-1,1.02-1.51,2.32-1.51,3.88v46.55h10.47v-46.55c0-1.56-.5-2.86-1.51-3.88"/>
        <polygon id="Fill-7" class="cls-3" points="549.86 273.04 560.68 273.04 560.68 175.43 549.86 175.43 549.86 273.04"/>
        <path id="Fill-8" class="cls-2" d="m571.69,292.17c-1.08-1.08-2.34-1.62-3.79-1.62-2.05,0-3.76-.69-5.14-2.08-1.38-1.38-2.07-3.1-2.07-5.14v-5.55h-10.83v6.26h.03c.16,4.74,1.88,8.78,5.2,12.09,3.49,3.49,7.76,5.24,12.81,5.24,1.44,0,2.71-.51,3.79-1.53,1.09-1.02,1.62-2.32,1.62-3.88,0-1.45-.54-2.71-1.62-3.79"/>
        <path id="Fill-9" class="cls-2" d="m609.94,277.78v18.18c0,1.56.51,2.86,1.51,3.88,1,1.02,2.27,1.53,3.81,1.53,1.42,0,2.63-.51,3.64-1.53,1-1.02,1.51-2.32,1.51-3.88v-18.18h-10.47"/>
        <path id="Fill-10" class="cls-3" d="m400.82,254.85c-.72-4.79-2.29-9.25-4.69-13.38-2.41-4.13-5.36-7.67-8.84-10.6-3.49-2.93-7.46-5.24-11.91-6.92-4.45-1.67-9.14-2.51-14.07-2.51-6.86,0-13.26,1.62-19.21,4.86-5.96,3.24-10.78,7.8-14.46,13.68-1.54,2.28-2.75,4.65-3.63,7.12-.89,2.46-1.57,5.07-2.04,7.83-.35,2.16-.53,4.32-.53,6.48,0,5.52,1.04,10.71,3.1,15.58,2.07,4.86,4.9,9.09,8.48,12.69,3.58,3.6,7.81,6.45,12.69,8.55,4.87,2.1,10.07,3.15,15.61,3.15,6.37,0,12.33-1.36,17.86-4.08,5.53-2.72,10.23-6.59,14.08-11.62,1.68-2.16,3.18-4.69,4.51-7.58.6-1.32.63-2.68.09-4.06-.54-1.38-1.47-2.37-2.8-2.97-1.33-.6-2.68-.66-4.06-.18-1.39.48-2.38,1.38-2.98,2.71-.48.97-1,1.93-1.53,2.88-.54.97-1.11,1.87-1.71,2.71-2.77,3.73-6.22,6.62-10.38,8.66-4.15,2.05-8.51,3.07-13.08,3.07-4.09,0-7.91-.78-11.46-2.35-3.55-1.57-6.64-3.68-9.29-6.33-2.64-2.66-4.75-5.76-6.31-9.32-1.56-3.56-2.35-7.39-2.35-11.49,0-.84.03-1.66.09-2.44.06-.78.15-1.54.27-2.27.72-4.1,2.17-7.84,4.33-11.22,2.77-4.22,6.32-7.54,10.64-9.96,4.33-2.41,9.02-3.62,14.07-3.62,6.13,0,11.67,1.71,16.6,5.14,4.93,3.42,8.48,7.85,10.65,13.26h-48.18v11h6.34v-.18h33.45c3.06,0,5.8-.03,8.21-.09,2.41-.06,5.11-.09,8.12-.09,1.44-.24,2.58-.95,3.43-2.15.84-1.2,1.14-2.51.9-3.95"/>
      </g>
    </g>
  </g>
</svg>