<?xml version="1.0" encoding="UTF-8"?>
<svg id="Layer_1" data-name="Layer 1" xmlns="http://www.w3.org/2000/svg" xmlns:xlink="http://www.w3.org/1999/xlink" viewBox="0 0 847.94 438.92">
  <defs>
    <style>
      .cls-1 {
        fill: url(#linear-gradient);
      }

      .cls-2 {
        fill: #689ad0;
      }

      .cls-3 {
        fill: #fff;
      }

      .cls-4 {
        fill: #91c5eb;
      }
    </style>
    <linearGradient id="linear-gradient" x1="124.44" y1="2483.81" x2="678.48" y2="2483.81" gradientTransform="translate(0 2780.87) scale(1 -1)" gradientUnits="userSpaceOnUse">
      <stop offset="0" stop-color="#fff"/>
      <stop offset="1" stop-color="#81bae2"/>
    </linearGradient>
  </defs>
  <polyline class="cls-4" points="603.71 141.72 564.43 200.82 579.56 224.22 619.19 165.34 603.71 141.72"/>
  <polyline class="cls-4" points="472.24 305.81 566.54 164.68 551 141.72 441.29 305.81 472.24 305.81"/>
  <polyline class="cls-2" points="628.28 255.48 551 141.31 535.37 164.68 596.48 255.77 628.28 255.48"/>
  <polyline class="cls-2" points="603.71 141.72 588.21 165.06 647.65 255.77 678.48 255.77 603.71 141.72"/>
  <polyline class="cls-2" points="505.01 144.36 473.85 144.36 548.32 255.77 579.59 255.64 505.01 144.36"/>
  <path class="cls-2" d="m270.16,161.94c-3.02,0-5.54-1.01-7.55-3.02-2.01-2.01-3.02-4.53-3.02-7.55s1.01-5.5,3.02-7.45c2.01-1.95,4.53-2.93,7.55-2.93s5.54.98,7.55,2.93c2.01,1.95,3.02,4.43,3.02,7.45s-1.01,5.54-3.02,7.55c-2.01,2.04-4.53,3.02-7.55,3.02"/>
  <path class="cls-3" d="m124.44,141.72h34.6c7.71,0,14.56,1.45,20.51,4.31,5.94,2.89,10.63,7.01,14,12.39,3.37,5.38,5.06,11.67,5.06,18.9s-1.6,13.27-4.84,18.68c-3.21,5.44-7.83,9.69-13.84,12.74-6.01,3.08-13.02,4.62-21.04,4.62h-16.86v39.72h-17.58v-111.37m17.58,56.71h14.22c8.02,0,14.06-1.76,18.18-5.28,4.12-3.52,6.16-8.71,6.16-15.54s-2.08-12.05-6.23-15.6c-4.15-3.55-10.19-5.35-18.12-5.35h-14.22v41.77Z"/>
  <path class="cls-3" d="m207.54,179.08h16.14l.13,12.46c2.04-4.4,4.91-7.77,8.59-10.13,3.65-2.36,7.89-3.52,12.68-3.52,1.26,0,2.74.16,4.4.44,1.67.31,3.08.69,4.25,1.16l-1.6,15.82c-2.74-1.16-5.66-1.76-8.81-1.76-5.98,0-10.6,2.17-13.93,6.51-3.3,4.34-4.97,10.38-4.97,18.09v34.88h-16.86v-73.94"/>
  <rect class="cls-3" x="262.77" y="179.08" width="16.86" height="74.01"/>
  <path class="cls-3" d="m294.97,179.08h16.14l.16,9.53c2.04-3.81,5.1-6.73,9.09-8.81,3.99-2.04,8.74-3.08,14.22-3.08s10,1.16,13.84,3.46c3.87,2.3,6.86,5.63,9.03,10.03,2.23-4.21,5.57-7.49,9.97-9.91,4.4-2.39,9.28-3.59,14.66-3.59,9,0,15.85,2.7,20.6,8.18,4.75,5.41,7.11,13.21,7.11,23.37v44.85h-16.86v-41.77c0-6.64-1.26-11.57-3.74-14.81-2.48-3.21-6.29-4.84-11.35-4.84-5.38,0-9.56,1.86-12.52,5.57-2.99,3.71-4.47,8.9-4.47,15.54v40.29h-16.86v-41.74c0-6.73-1.2-11.7-3.59-14.88-2.39-3.18-6.2-4.75-11.35-4.75s-9.47,1.89-12.52,5.63c-3.08,3.77-4.62,8.87-4.62,15.32v40.45h-16.86v-74.04"/>
  <path class="cls-3" d="m461.58,255.45c-8.4,0-15.79-1.54-22.14-4.62-6.35-3.08-11.29-7.58-14.81-13.56-3.52-5.94-5.28-12.96-5.28-20.95,0-7.52,1.54-14.28,4.62-20.22,3.08-5.94,7.45-10.66,13.12-14.15,5.66-3.46,12.2-5.22,19.63-5.22,6.73,0,12.71,1.48,17.96,4.4,5.22,2.93,9.31,7.17,12.24,12.74,2.93,5.57,4.4,12.08,4.4,19.5,0,3.71-.19,6.51-.6,8.37h-54.54c1.07,6.35,3.93,11.26,8.59,14.72,4.62,3.46,10.73,5.19,18.24,5.19,8.78,0,17.08-1.92,24.91-5.72l1.76,13.18c-3.62,1.95-7.93,3.49-12.9,4.62-4.94,1.16-10,1.73-15.19,1.73m13.34-46.46c-.41-6.07-2.2-10.76-5.41-14.06-3.24-3.3-7.67-4.97-13.34-4.97s-10.1,1.67-13.62,4.97c-3.52,3.33-5.66,8.02-6.45,14.06h38.81Z"/>
  <path class="cls-1" d="m480.04,305.49l11.04-16.89h187.39v16.89h-198.43m-355.6-16.86v16.89h310.44l11.29-16.89H124.44"/>
</svg>