<?xml version="1.0" encoding="UTF-8"?>
<svg id="Layer_1" data-name="Layer 1" xmlns="http://www.w3.org/2000/svg" viewBox="0 0 847.94 438.92">
  <defs>
    <style>
      .cls-1 {
        fill: #fff;
      }
    </style>
  </defs>
  <path class="cls-1" d="m47.14,223.97c-.66-36.97,28.41-67.78,65.33-69.42,39.2-1.75,69.69,28.76,71.51,64.51,1.99,38.94-28.19,70.71-66.01,72-38.26,1.3-70.07-28.87-70.83-67.08Zm67.06,59.3c33.45.99,61.77-25.91,62.1-60.12.3-31.42-24.68-60.51-60.07-60.91-33.63-.38-59.88,26.01-61.23,57.75-1.5,35.47,26.59,62.77,59.2,63.28Z"/>
  <path class="cls-1" d="m398.58,244.34v-72.91c3.9-.26,7.58-.21,11.4-.03v92.01c-2.44,0-4.78-.22-7.06.05-3.27.39-5.25-.84-7.11-3.55-3.23-4.71-6.97-9.07-10.48-13.59-5.19-6.7-10.35-13.43-15.54-20.13-9.09-11.72-18.21-23.43-27.31-35.14-.39-.5-.8-.97-1.17-1.42-.17.04-.24.05-.3.08-.05.03-.13.08-.13.13-.03.28-.07.56-.07.84,0,23.93,0,47.86,0,71.79,0,.14-.04.28-.07.42-.02.06-.06.12-.17.35h-11.15v-91.74c.45-.08.91-.22,1.37-.23,2.76-.02,5.52.04,8.28-.02,1.26-.03,2.05.48,2.81,1.47,11.2,14.38,22.44,28.73,33.67,43.08,6.92,8.85,13.84,17.69,20.77,26.53.59.75,1.23,1.45,1.85,2.17.14-.06.27-.12.41-.18Z"/>
  <path class="cls-1" d="m274.37,169.91c26.09.22,47.69,21.08,47.27,48.3-.41,26.37-22.29,47.12-48.38,46.54-26.38-.59-46.91-22.05-46.64-47.71.29-27.42,23-47.16,47.75-47.13Zm-.16,83.8c17.9.86,36.02-14.96,36.54-35.35.47-18.53-13.87-37.47-36.86-37.44-19.83.02-36.24,15.82-36.28,36.48-.05,21.69,18.57,37.05,36.6,36.31Z"/>
  <path class="cls-1" d="m753.07,169.94c24.72-.31,47.34,19.27,47.74,46.76.39,27.31-21.13,46.78-44.95,48-26.75,1.37-49.57-19.57-50.02-46.57-.46-27.27,22.15-48.12,47.24-48.19Zm-.1,83.77c19.01.81,36.41-15.79,36.73-35.8.27-17.41-13.34-36.94-36.69-36.99-20.38-.04-36.36,16.22-36.49,36.3-.14,21.17,17.81,37.05,36.45,36.5Z"/>
  <path class="cls-1" d="m707.24,263.3c-1.02.05-1.77.11-2.52.11-2.97,0-5.94-.09-8.91.02-1.53.06-2.42-.52-3.26-1.75-8.09-11.75-16.27-23.43-24.33-35.2-1.09-1.59-2.2-2.41-4.11-2.09-.68.11-1.38.08-2.25.13v38.73h-11.46v-91.84c.66-.05,1.33-.15,2-.14,5.8.03,11.6.04,17.4.14,4.25.07,8.46.6,12.57,1.75,8.35,2.32,13.97,7.63,16.6,15.8,2.85,8.85,1.86,17.33-3.76,24.94-3.86,5.23-9.17,8.27-15.6,9.33-.21.03-.41.09-.62.14-.06.02-.12.07-.3.18.01.94.76,1.56,1.26,2.26,4.56,6.29,9.15,12.56,13.74,18.83,4.17,5.7,8.35,11.39,12.52,17.09.32.43.59.9,1.03,1.59Zm-45.53-48.29c2.59,0,4.99.12,7.37-.03,4.16-.26,8.34-.6,12.19-2.42,4.72-2.24,7.77-5.84,8.45-11.11.25-1.94.22-3.95.06-5.9-.33-4.12-2.36-7.32-5.74-9.67-1.99-1.38-4.15-2.41-6.51-2.99-5.06-1.24-10.21-1.32-15.38-1.18-.11,0-.22.16-.43.33v32.97Z"/>
  <path class="cls-1" d="m564.81,181.77c-7.9,0-15.37,0-22.84,0s-14.82,0-22.36,0v-10.15c1.63-.43,56.24-.5,58.8-.04,0,.63,0,1.31,0,1.99,0,2.05-.06,4.1.06,6.14.09,1.51-.42,2.73-1.28,3.91-8.77,12.04-17.52,24.11-26.29,36.15-5.7,7.82-11.43,15.61-17.13,23.43-2.24,3.07-4.46,6.15-6.84,9.44,2.57.39,4.94.15,7.29.19,2.48.04,4.95.01,7.43.01h29.29c2.39,0,4.78,0,7.35,0v10.41h-65.09c0-2.07.14-4.11-.03-6.12-.25-2.92.75-5.21,2.48-7.56,15.99-21.83,31.86-43.73,47.76-65.62.44-.6.81-1.24,1.42-2.19Z"/>
  <path class="cls-1" d="m470.65,171.64v10.07c-.86.04-1.67.12-2.48.12-10.96.01-21.93.01-32.89.02-.83,0-1.66,0-2.62,0v25.88h36.68v10.36h-36.67v34.7c2.43.13,4.95.04,7.46.06,2.55.02,5.09,0,7.64,0h22.8v10.43h-49.47v-91.61c1.88-.49,47.26-.55,49.55-.03Z"/>
  <path class="cls-1" d="m589.84,263.29v-91.59c1.66-.53,46.7-.6,49.26-.08v10.15c-4.2.16-8.42.02-12.62.05-4.17.02-8.35,0-12.52,0-4.23,0-8.46,0-12.79,0v25.92h36.71v10.31h-36.73v34.76c6.26.05,12.53.02,18.79.02,6.29,0,12.59,0,18.84,0,.5,1.52.61,7.95.19,10.44h-49.13Z"/>
  <path class="cls-1" d="m119.72,267.57h-7.59v-89.56h7.55c.25.81.29,88.43.04,89.56Z"/>
</svg>