<?xml version="1.0" encoding="UTF-8"?>
<svg id="Layer_1" data-name="Layer 1" xmlns="http://www.w3.org/2000/svg" viewBox="0 0 847.94 438.92">
  <defs>
    <style>
      .cls-1 {
        fill: #fff;
      }
    </style>
  </defs>
  <path class="cls-1" d="m424.1,280c2.39-5.79,4.02-11.72,3.43-18.1-.37-3.97-1.42-7.76-3.1-11.35-1.35-2.88-3.18-5.45-6.61-6.09-2.72-.51-5.15.53-7.33,2.04-4.6,3.19-7.74,7.61-10.39,12.44-3.78,6.91-5.56,14.49-7.53,22.01-2.92,11.12-5.86,22.24-8.79,33.36-3.69,13.97-7.39,27.95-11.08,41.92-.34,1.3-.77,2.6-.95,3.93-.21,1.51-1.06,2.42-2.28,3.13-3.4,1.98-7.12,2.13-10.9,1.82-3.38-.28-6.6-1.27-9.32-3.25-1.71-1.25-3.09-3.01-4.39-4.71-1.02-1.33-1.01-3-.57-4.63,2.13-7.74,4.25-15.48,6.37-23.23,3.11-11.34,6.23-22.68,9.3-34.03.64-2.39,1.07-4.83,1.28-7.43-.4.55-.79,1.11-1.19,1.65-4.88,6.64-10.55,12.41-17.84,16.48-5.38,3-11.04,4.26-17.13,3-9.24-1.92-15.03-9.46-14.62-18.9.02-.54,0-1.08,0-1.85-1.1,1.65-2.01,3.14-3.04,4.54-5.78,7.78-13.05,13.62-22.65,15.83-9.28,2.14-17.67.39-24.29-7.05-2.46-2.77-3.03-6.3-4.07-9.65-.25-.82-.52-1.64-.78-2.45-3.35,3.08-6.52,6.12-9.82,9-8.16,7.13-17.84,10.42-28.55,10.97-6.23.32-12.3-.48-17.9-3.34-7.45-3.8-11.56-9.92-12.02-18.32-.42-7.63.65-15.09,2.57-22.47,2.2-8.47,4.22-16.99,6.32-25.48.03-.14,0-.29,0-.69-3.24.55-6.39,1.11-9.55,1.61-2.77.44-5.56.81-8.33,1.25-.98.15-1.62-.16-1.95-1.09-2.36-6.64-3.15-13.3-.32-20.02,1.12-2.65,3.09-4.25,5.9-4.79,6.53-1.25,13.06-2.53,19.61-3.68,1.08-.19,1.5-.61,1.76-1.57,1.83-6.8,3.69-13.6,5.53-20.4.96-3.55,1.91-7.1,2.87-10.65,1-3.72,3.3-5.74,7.93-6.03,7.75-.48,14.83,1.58,20.88,6.62,1.16.97,1.68,2.27,1.22,3.78-1.32,4.31-2.65,8.61-4.02,12.9-1.12,3.5-2.31,6.99-3.45,10.48-.19.57-.31,1.17-.52,1.96.89,0,1.55-.02,2.22,0,7.28.29,14.56.47,21.83.95,3.51.23,6.99,1.04,10.48,1.56,1.15.17,1.82.77,2.24,1.87.9,2.34.3,4.62-.13,6.9-.94,4.93-1.54,9.95-3.76,14.55-.5,1.02-.98,2.08-1.63,3-1.19,1.67-2.64,2.44-4.93,2.04-11.3-1.94-22.73-2.66-34.19-2.91-.96-.02-1.39.31-1.65,1.2-3.02,10.34-6.12,20.67-9.08,31.03-.88,3.07-.88,6.26-.31,9.42.96,5.3,5.7,9.33,11.62,9.11,12.11-.45,21.91-5.36,28.27-15.99,2.53-4.22,4.67-8.68,7.05-12.99,7.57-13.71,18.11-24.19,32.91-30.06,8.99-3.56,18.28-4.89,27.85-3.63,4.78.63,9.51,1.66,14.23,2.67,1.44.31,2.83,1.04,4.14,1.76,4.23,2.34,5.54,5.25,4.24,9.86-1.55,5.48-3.41,10.88-4.93,16.37-2.28,8.18-4.47,16.39-6.49,24.64-.45,1.85-.27,3.94,0,5.87.35,2.6,2.28,4.11,4.91,4.06,4.07-.07,7.46-2.06,10.34-4.58,2.95-2.58,5.64-5.54,8.03-8.65,5.99-7.76,10.21-16.52,13.29-25.75,2.94-8.84,5.41-17.84,7.89-26.83,1.4-5.09,3.79-7.35,9.14-7.68,6.78-.43,12.85,1.65,18.3,5.5,2.35,1.66,3.58,3.53,2.26,6.67-1.12,2.67-1.91,5.47-2.83,8.23-.19.56-.27,1.16-.08,1.98,1-.79,2.02-1.56,3.01-2.37,5.22-4.23,10.53-8.37,17-10.54,6.46-2.16,13-2.75,19.17.87,5.59,3.28,8.59,8.55,9.89,14.69,2.09,9.88,1.39,19.66-2.34,29.05-1.92,4.84-4.58,9.39-6.91,14.06-.34.67-.72,1.32-1.08,1.98l.22.46c1.85-.32,3.73-.54,5.56-.98,10.79-2.62,17.51-9.73,21.39-19.74,4.77-12.28,12.46-22.43,22.86-30.36,10.86-8.28,23.39-12.01,37.08-11.54,4.41.15,8.84.5,13.21,1.13,2.64.38,5.26,1.27,7.74,2.3,4.63,1.93,6.9,6.15,5.9,11.31-.89,4.57-2.1,9.08-3.46,13.54-2.72,8.91-6.23,17.6-7.78,26.84-.22,1.28-.25,2.59-.52,3.85-.95,4.51,4.22,8.29,8.87,6.07,5.9-2.82,10.92-6.73,14.41-12.28,4.7-7.46,9.21-15.05,13.69-22.64,5.72-9.68,11.56-19.26,20.11-26.8,6.44-5.68,13.7-9.83,22.38-10.87,7.55-.91,14.55.95,21.05,4.79.61.36,1.15.9,1.62,1.45,1.37,1.59,1.35,2.69-.02,4.26-.44.51-.89,1.04-1.43,1.43-2.91,2.11-3.72,5.19-3.76,8.5-.04,4.07.58,8.06,2.43,11.77,1.2,2.41,1.37,2.48,4.08,2.19,3.62-.38,7.25-.92,10.88-.97,3.35-.04,6.72.39,10.07.78,1.95.23,2.95,1.63,3.16,3.53.65,6.14-.55,11.99-3.03,17.57-.79,1.78-1.94,3.41-3.03,5.04-.72,1.07-1.83,1.47-3.15,1.24-3.89-.7-7.79-1.33-11.66-2.09-1.3-.26-1.94-.13-2.02,1.38-.09,1.6-.5,3.18-.66,4.77-.67,6.46-4.01,11.45-8.65,15.73-6.02,5.55-13.33,8.37-21.24,9.73-6.31,1.08-12.55.77-18.5-1.93-9.37-4.26-14.03-13.79-11.6-23.8,2.58-10.6,9.43-17.53,19.17-21.89,2.27-1.02,4.63-1.85,7-2.64,1.02-.34,1.2-.77,1.03-1.8-.89-5.39-3.4-10.08-6.09-14.72-.47-.8-.95-.87-1.77-.44-5.13,2.72-9.26,6.66-12.58,11.25-5.36,7.39-10.32,15.07-15.32,22.71-4.72,7.21-9.21,14.58-15.11,20.95-4.92,5.32-10.64,9.44-17.64,11.61-5.11,1.59-10.23,1.84-15.25-.37-5.25-2.3-7.9-6.77-9.44-11.94-.74-2.47-.86-5.13-1.24-7.62-.26.41-.74,1.09-1.15,1.81-5.75,10.12-14.27,16.52-25.76,18.64-8.08,1.49-15.62.17-21.63-5.94-3.64-3.7-5.66-8.27-6.16-13.47-.03-.3-.06-.61-.12-1.25-.65.49-1.13.81-1.56,1.19-8.09,7.15-17.57,9.72-28.2,8.59-1.01-.11-1.89-.43-3.01.66-6.59,6.44-14.12,11.24-23.8,10.97-6.6-.18-12.2-2.72-15.75-8.55-5.97-9.82.02-22.66,11.38-24.69,5.96-1.06,11.5-.39,16.35,3.56.12.1.26.18.4.24.09.04.2.04.39.07Zm-139.48,3.41c.12,2.98.21,6,3.22,7.51,3.06,1.54,5.59-.22,7.98-1.98.08-.06.18-.12.24-.19,2.22-2.65,4.69-5.15,6.61-8,4.43-6.56,7.49-13.84,10.46-21.14,1.38-3.39,2.8-6.82,2.69-10.61-.09-3.21-2.23-4.99-5.17-3.79-3.29,1.33-6.73,2.74-9.47,4.91-10.67,8.49-14.75,20.38-16.57,33.3Zm212.5-1.68c.15,1.33.16,2.7.48,4,.98,3.95,4.85,5.56,8.36,3.53,2.85-1.65,5.04-4.01,6.89-6.67,6.06-8.7,10.32-18.32,14-28.19.83-2.24,1.19-4.72,1.37-7.13.17-2.32-1.34-3.65-3.63-3.28-1.86.3-3.77.85-5.43,1.72-7.85,4.13-13.23,10.57-16.86,18.54-2.54,5.57-5.1,11.14-5.17,17.48Zm105.26,4.2c.12,5.22,3.03,7.42,7.21,6.07,1.42-.46,2.82-1.36,3.91-2.39,3.17-2.99,4.21-6.9,4.4-11.13.04-.99-.37-1.4-1.27-1.18-3.36.81-6.84,1.35-10.03,2.62-2.8,1.12-4.33,3.64-4.22,6.01Zm-189.92,5.47c1.93.05,5.48-2.18,6.05-3.85.09-.28-.02-.74-.21-.98-1.28-1.62-2.81-2.9-4.96-3.23-2.32-.35-4.69,1.6-4.96,4.11-.22,2.05,1.68,3.88,4.08,3.94Z"/>
</svg>