<?xml version="1.0" encoding="UTF-8"?>
<svg id="Layer_1" data-name="Layer 1" xmlns="http://www.w3.org/2000/svg" viewBox="0 0 847.94 438.92">
  <defs>
    <style>
      .cls-1 {
        fill: #fff;
      }
    </style>
  </defs>
  <path class="cls-1" d="m546.07,214.57c1.38.38,2.77.73,4.14,1.15,7.45,2.3,14.14,5.8,19.31,11.82,4.61,5.36,7.21,11.61,8.05,18.55.93,7.67.75,15.31-2.21,22.57-4.94,12.15-13.16,21.02-26.22,24.5-4.29,1.14-8.74,1.72-13.14,2.37-5.11.75-10.25,1.3-15.37,1.91-.79.09-1.6.1-2.39.1-21.83,0-43.66,0-65.48-.02-.55,0-1.1-.05-1.71-.08v-32.99c.5-.03.95-.07,1.4-.07,3.15,0,6.3-.03,9.46.01.87.01,1.25-.15,1.25-1.15-.02-10.32,0-20.63.03-30.95,0-.84-.27-1-1.07-.99-3.66.05-7.31.02-11.05.02v-89.89c.35-.02.66-.07.98-.07,24.51,0,49.02,0,73.53.02,7.34,0,14.59.83,21.39,3.7,12.42,5.25,20.5,14.22,23.12,27.68,1.53,7.82.8,15.42-2.43,22.69-3.94,8.86-10.96,14.43-19.84,17.91-.59.23-1.17.5-1.75.74,0,.15.01.3.02.45Zm-63.96,33.48s.01,0,.02,0c0,4.83,0,9.66,0,14.49,0,.94.07,1.6,1.33,1.6,7.62-.05,15.24,0,22.86-.07,4.76-.04,9.48-.5,13.99-2.22,10.14-3.86,12.65-17.95,4.47-25.06-3.33-2.9-7.46-4.01-11.6-4.18-10.05-.4-20.13-.3-30.19-.41-.79,0-.89.39-.89,1.07.03,4.92.01,9.85.01,14.77Zm.03-60.47s0,0,0,0c0,4.55.02,9.1-.02,13.65,0,.95.21,1.33,1.24,1.33,6.82-.05,13.64.02,20.46-.07,2.43-.03,4.89-.21,7.29-.62,5.8-1,10.23-3.82,11.62-9.92.46-2.03.46-4.18.48-6.27.05-4.31-3.26-9.42-7.36-10.73-3.19-1.02-6.56-1.85-9.88-1.98-7.52-.3-15.05-.11-22.58-.15-.96,0-1.3.26-1.29,1.28.06,4.5.03,9.01.03,13.51Z"/>
  <path class="cls-1" d="m413.07,141.47c-1.41,1.72-2.56,3.19-3.79,4.59-7.64,8.66-15.3,17.3-22.97,25.94-6.32,7.13-12.68,14.23-18.97,21.38-7.2,8.17-14.34,16.4-21.52,24.59-3.09,3.53-6.24,7.01-9.32,10.56-.42.48-.76,1.21-.76,1.83-.05,10.88-.02,21.76-.05,32.65,0,1.17.49,1.39,1.53,1.39,24.14-.02,48.27-.02,72.41,0,1.29,0,3-.32,3.76.36.65.58.24,2.37.24,3.62.01,9.15,0,18.29,0,27.44v1.61h-100.24c0-2.23,0-4.33,0-6.42,0-36.54,0-73.08.01-109.61,0-1.1-.14-1.69-1.52-1.69-15.24.05-30.49.04-45.73.04-.65,0-1.29,0-2.02,0v-38.25h148.94Z"/>
  <path class="cls-1" d="m413.58,187.36v43.94h-41.02c13.75-14.73,27.28-29.22,41.02-43.94Z"/>
</svg>