<?xml version="1.0" encoding="UTF-8"?>
<svg id="Layer_1" data-name="Layer 1" xmlns="http://www.w3.org/2000/svg" viewBox="0 0 847.94 438.92">
  <defs>
    <style>
      .cls-1 {
        fill: #d96921;
        fill-rule: evenodd;
      }
    </style>
  </defs>
  <path class="cls-1" d="m780.98,172.55c-21.11-8.5-46.06-.41-77.04-3.29-.96.14-.96,1.23-.82,2.47,4.66,25.91-7.26,75.25,2.47,95.82,7.13,15.22,39.75,16.86,63.05,13.98,21.11-2.74,38.79-20.7,44.28-37.7,9.32-29.06-6.03-60.86-31.94-71.28Zm-10.69,79.5c-11.1,4.11-21.93.27-38.52,1.64.55-18.64-1.1-39.34.82-56.47,14.12,1.1,27.41-2.19,37.7,1.64,22.48,8.22,24.67,44,0,53.18Zm-424.25-35.23c-3.15-30.43-29.2-50.85-59.76-49.07-24.13,1.37-44.41,18.23-50.85,38.52-6.31,20.15-.27,46.06-2.47,73.75,15.63-2.06,23.03-5.48,27-15.63,5.35-13.57-1.78-33.72,2.47-49.21,6.17-22.89,44.82-29.61,54.01-.82,4.25,13.16-1.51,34.41,2.47,48.39,3.15,10.69,12.75,16.04,27,17.27-1.23-23.44,2.06-44.69.14-63.19Zm-177.79,7.4c.41,17.82,38.24,17.68,49.21,5.76,4.11-4.52,5.62-11.79,6.58-19.6-20.15,2.33-56.2-8.09-55.79,13.84Zm-35.23,7.26c4.39,38.66,40.85,53.32,90.88,48.39-1.1-13.43-5.76-23.03-15.49-26.18-10.83-3.56-22.62.55-31.12-3.29-22.75-10.28-20.42-46.19,2.47-54.14,10.42-3.7,22.07.27,30.29-3.29,9.32-3.98,12.61-13.43,13.98-25.36-55.1-8.09-96.23,17.27-91.02,63.88Zm-13.84,22.21c-8.77-2.6-19.33.82-28.65-2.47-25.5-8.91-22.75-46.88.82-54.83,9.05-3.02,19.05-.14,27-2.47,11.65-3.43,15.22-12.47,16.45-26.18-53.05-6.85-90.74,13.84-91.02,55.65-.41,44.14,37.28,62.09,90.88,56.47-1.51-14.8-4.8-23.03-15.49-26.18Zm311.98,0c-10.42-2.74-20.56.69-29.47-3.29-11.1-4.93-18.78-19.88-15.49-36.05,27.28,1.92,50.99.27,49.21-27-16.45-.55-34.95,1.1-50.03-.82,2.74-26.73-3.15-44.82-27-45.1-.96.14-.96,1.37-.82,2.47,2.06,30.57-2.74,60.04,0,86.77,4.25,40.71,40.71,53.46,90.88,49.21-.82-14.12-6.17-23.3-17.27-26.18Zm114.73-86.08c-35.64-2.6-61.14,1.92-76.21,17.96-18.78,20.29-14.67,54.14-14.67,94.31,13.57-.82,23.3-6.17,27-15.63,7.26-18.78-1.92-37.7,3.29-51.54,2.74-7.26,10.01-13.84,17.13-16.45,13.57-4.66,28.1.82,36.87-8.22,4.8-4.8,5.89-8.91,6.58-20.42Zm38.52.82c-23.99,2.33-39.89,16.86-46.74,31.94-17.82,39.2,12.61,79.5,51.54,79.5,25.08,0,49.9-16.72,55.65-42.63,9.32-40.57-22.89-72.24-60.45-68.81Zm-4.93,82.79c-27.96-9.87-21.11-52.09,6.58-55.65,16.59-2.06,31.66,8.22,31.94,27.83.27,19.46-17.96,35.09-38.52,27.83Zm77.04-83.62c-.96.14-.82,1.23-.82,2.47,5.76,40.3-17.96,110.21,28.65,109.8-5.89-40.85,17.68-111.03-27.83-112.26Z"/>
</svg>