<?xml version="1.0" encoding="UTF-8"?>
<svg id="Layer_1" data-name="Layer 1" xmlns="http://www.w3.org/2000/svg" viewBox="0 0 847.94 438.92">
  <defs>
    <style>
      .cls-1 {
        fill: #f59a81;
      }

      .cls-2 {
        fill: #f28066;
      }

      .cls-3 {
        fill: #e7e6e9;
      }

      .cls-4 {
        fill: #fff;
      }

      .cls-5 {
        fill: #9cca8a;
      }

      .cls-6 {
        fill: #b3d5a3;
      }

      .cls-7 {
        fill: #439ccd;
      }

      .cls-8 {
        fill: #70b0d6;
      }

      .cls-9 {
        fill: #484d59;
      }

      .cls-10 {
        fill: #353b45;
      }
    </style>
  </defs>
  <path class="cls-9" d="m183.3,176.04l-7.25-9.16-7.38-9.29h-23.4l-7.38,9.16-7.25,9.03,2.54,11.45,2.54,11.45,10.56,5.09,10.56,5.21,10.56-5.09,10.56-5.09,2.67-11.32,2.67-11.45Z"/>
  <path class="cls-2" d="m219.81,306.54l-23.15-7.5-23.28-7.63-14.37-19.71-14.37-19.84v-48.84l14.37-19.84,14.37-19.71,23.28-7.63,23.15-7.5v158.23Z"/>
  <path class="cls-6" d="m219.81,306.54l-23.15-7.5-23.28-7.63-14.37-19.71-14.37-19.84v-21.75l75.17,49.6v26.84Z"/>
  <path class="cls-5" d="m173.38,163.45l27.09,50.62-16.28,13.74-4.07,43.12-35.49-19.08v-48.84l14.37-19.84,14.37-19.71Z"/>
  <path class="cls-4" d="m196.15,252.99l23.78,16.53v32.43l-47.06-34.98,11.57-39.43,16.03-13.48-4.32,38.92Z"/>
  <path class="cls-10" d="m189.28,193.09l11.19,20.99-16.03,13.48-7.12,24.55-9.79-11.19v-34.21l21.75-13.61Z"/>
  <path class="cls-6" d="m173.38,163.45l-5.85,43.25,21.75-13.61-15.9-29.64Z"/>
  <path class="cls-6" d="m167.53,206.7l-22.89-3.69,22.89,37.9v-34.21Z"/>
  <path class="cls-6" d="m167.53,240.91l-22.89,10.94,28.24,15.14-5.34-26.07Z"/>
  <path class="cls-3" d="m184.45,227.56l11.7,25.44,4.32-38.92-16.03,13.48Z"/>
  <path class="cls-5" d="m144.64,251.85l28.24,15.14.51,24.42-28.75-39.56Z"/>
  <path class="cls-2" d="m219.81,214.07l-19.46-36.38-11.07,15.39,11.19,20.99h19.33Z"/>
  <path class="cls-1" d="m173.38,163.45l26.96,14.37-11.07,15.26-15.9-29.64Zm26.96,14.37l19.46-6.49v42.74l-19.46-36.25Z"/>
  <path class="cls-1" d="m219.81,148.31l-19.46,29.51,19.46-6.49v-23.02Z"/>
  <path class="cls-3" d="m200.86,267.88l19.08,34.09-47.06-34.98,27.98.89Z"/>
  <path class="cls-9" d="m256.44,176.04l7.25-9.16,7.25-9.29h23.53l7.25,9.16,7.38,9.03-2.54,11.45-2.54,11.45-10.56,5.09-10.56,5.21-10.56-5.09-10.68-5.09-2.54-11.32-2.67-11.45Z"/>
  <path class="cls-2" d="m219.81,306.54l23.28-7.5,23.28-7.63,14.37-19.71,14.37-19.84v-48.84l-14.37-19.84-14.37-19.71-23.28-7.63-23.28-7.5v158.23Z"/>
  <path class="cls-8" d="m219.81,306.54l23.28-7.5,23.28-7.63,14.37-19.71,14.37-19.84v-21.75l-75.3,49.6v26.84Z"/>
  <path class="cls-7" d="m266.36,163.45l-27.09,50.62,16.28,13.74,3.94,43.12,35.61-19.08v-48.84l-14.37-19.84-14.37-19.71Z"/>
  <path class="cls-4" d="m243.59,252.99l-23.78,16.53v32.43l47.06-34.98-11.57-39.43-16.03-13.48,4.32,38.92Z"/>
  <path class="cls-10" d="m250.46,193.09l-11.19,20.99,16.03,13.48,7.12,24.55,9.79-11.19v-34.21l-21.75-13.61Z"/>
  <path class="cls-8" d="m266.36,163.45l5.85,43.25-21.75-13.61,15.9-29.64Zm5.85,43.25l22.89-3.69-22.89,37.9v-34.21Z"/>
  <path class="cls-8" d="m272.21,240.91l22.89,10.94-28.24,15.14,5.34-26.07Z"/>
  <path class="cls-3" d="m255.29,227.56l-11.7,25.44-4.32-38.92,16.03,13.48Z"/>
  <path class="cls-7" d="m295.1,251.85l-28.24,15.14-.51,24.42,28.75-39.56Z"/>
  <path class="cls-2" d="m219.81,214.07l19.46-36.38,11.19,15.39-11.19,20.99h-19.46Z"/>
  <path class="cls-1" d="m266.36,163.45l-27.09,14.37,11.19,15.26,15.9-29.64Zm-27.09,14.37l-19.46-6.49v42.74l19.46-36.25Z"/>
  <path class="cls-1" d="m219.81,148.31l19.46,29.51-19.46-6.49v-23.02Z"/>
  <path class="cls-3" d="m238.89,267.88l-19.08,34.09,47.06-34.98-27.98.89Z"/>
  <path class="cls-4" d="m219.93,252.99h-23.78l4.32-38.92h38.79l4.32,38.92h-23.66Z"/>
  <path class="cls-10" d="m219.93,273.6h-.13l-18.95-5.72-4.71-14.88h47.44l-4.71,14.88-18.95,5.72Z"/>
  <path class="cls-10" d="m216.37,269.27h7v15.77h-7v-15.77Z"/>
  <path class="cls-10" d="m219.93,291.28h-.13l-16.28-6.87h32.69l-16.28,6.87Z"/>
  <path class="cls-4" d="m374.09,164.6c3.05,0,5.98.13,8.78.25,2.8.13,5.21.38,7.5.64,2.89.33,5.74.92,8.52,1.78,2.29.56,4.47,1.46,6.49,2.67,1.95,1.11,3.71,2.53,5.21,4.2,1.53,1.63,2.81,3.47,3.82,5.47,2,3.94,3.05,8.3,3.05,12.72,0,4.61-.87,9.18-2.54,13.48-1.5,3.82-3.9,7.22-7,9.92-3.87,2.91-8.35,4.91-13.1,5.85-6.38,1.44-12.92,2.13-19.46,2.04h-16.66v33.58h-19.21v-92.47h34.6v-.13Zm78.99,79.88c6.76-.99,13.43-2.48,19.97-4.45l16.41-4.32.76-.13v21.75h-17.04v-5.85c-3.18,2.04-13.48,7.76-29,7.76s-27.98-5.09-27.98-22c0-6.42,3.31-12.39,8.78-15.77,4.71-3.18,11.96-5.6,23.02-5.85.13,0,28.11.76,22.89-11.07-.41-.89-1.08-1.64-1.91-2.16-1.03-.72-2.14-1.32-3.31-1.78-4.96-2.04-18.57-1.4-23.02,1.53-1.27.66-2.36,1.62-3.18,2.8-.98,1.67-1.59,3.54-1.78,5.47l-.13.51h-.51l-16.53-.13h-.64v-.64c.28-6.12,2.82-11.92,7.12-16.28,11.57-11.07,40.07-10.68,53.55-3.18,6.36,3.56,9.92,8.52,9.92,14.25v14.25l-.51.13-27.98,3.94-5.98.89c-1.65.25-3.31.38-4.71.64s-2.8.38-3.94.51c-9.29,1.27-12.72,7-11.96,11.96.51,4.71,5.34,8.9,17.68,7.25h0Zm44.14,12.08v-22.89l.51-.13,18.44-4.58.76-.13v28.36h-19.71v-.64Zm71.35-50.75c0,.38.13.76.13,1.02l.13.64-.64.13-18.32,2.67h-.51c-2.67-12.46-20.35-10.05-27.47-3.31-2.27,2.17-4.08,4.76-5.34,7.63l-.13.25h-.38l-18.19,2.54-.76.13v-29.89h18.7v9.67c1.01-1.43,2.16-2.75,3.43-3.94,1.71-1.65,3.64-3.06,5.72-4.2,2.07-1.14,4.3-1.96,6.61-2.42,14.37-3.31,33.83,1.27,36.76,17.93.12.37.2.76.25,1.14Zm-17.93,50.75v-36.25l.51-.13,17.3-4.2.76-.13v41.46h-18.57v-.76Zm83.57-59.91v-33.58h18.44v94h-18.57v-9.67c-2.56,3.15-5.66,5.82-9.16,7.89-4.29,2.48-9.17,3.76-14.12,3.69-4.78.13-9.53-.7-13.99-2.42-9.67-3.85-17.16-11.76-20.48-21.62-2.04-6.11-2.54-14.63-.51-20.86l21.11-5.21,1.53-.38-.89,1.27c-2.41,3.97-3.81,8.47-4.07,13.1-.05,2.18.16,4.36.64,6.49.49,1.95,1.21,3.83,2.16,5.6,5.09,9.03,16.03,10.68,25.18,7.38,13.86-4.96,17.04-25.18,8.14-35.36-1.74-1.99-3.92-3.56-6.36-4.58-2.67-1.07-5.52-1.63-8.39-1.65-8.01-.13-28.11,4.07-35.61,5.09l-1.14.13.51-1.02c.74-1.42,1.59-2.78,2.54-4.07,1.09-1.63,2.37-3.13,3.82-4.45,3.35-3.21,7.22-5.83,11.45-7.76,4.7-2.02,9.77-3.01,14.88-2.93,4.79,0,9.51,1.18,13.74,3.43,3.42,2.02,6.51,4.55,9.16,7.5h0Zm96.16,60.42l-15.52.13h-.64v-6.36c-4.07,2.54-20.22,11.96-37.14,8.39-11.45-2.42-19.84-8.14-19.84-20.48-.08-2.54.26-5.08,1.02-7.5.87-2.55,2.21-4.93,3.94-7,5.98-7.89,19.46-8.78,31.29-9.67,5.98-.38,11.57-.89,15.26-2.04,7.5-2.54,4.96-9.16-1.65-11.45-7-2.54-16.66-2.54-23.02,1.65-2.8,1.76-4.81,4.54-5.6,7.76l-.13.51h-18.06l.13-.76.13-.38c5.34-24.17,28.24-27.6,49.35-23.02,3.52.73,6.93,1.89,10.18,3.43,3.03,1.45,5.66,3.64,7.63,6.36,2.29,3.18,3.94,7.76,3.94,14.37,0,9.92-.51,45.66-.51,45.66v.64l-.76-.25Zm-15.01-33.45c-3.18.76-6.87,1.53-10.81,2.16-5.09.89-10.56,1.53-16.28,2.16-19.46,2.16-16.03,17.55-4.07,17.93,7.76.25,19.08-4.96,31.16-22.26Zm-356.9-16.92h18.32c8.39,0,20.61.13,20.48-14.37-.13-12.59-17.04-12.21-21.62-12.08h-17.3v26.46h.13Zm360.34,72.25c.02-.76.4-1.47,1.02-1.91.78-.55,1.72-.82,2.67-.76,1.05.03,2.08.24,3.05.64,1.1.45,2.12,1.05,3.05,1.78l2.16-3.05c-1.12-.89-2.37-1.61-3.69-2.16-1.42-.53-2.93-.79-4.45-.76-1.04-.04-2.08.13-3.05.51-.88.27-1.7.7-2.42,1.27-.62.62-1.17,1.3-1.65,2.04-.8,1.68-.85,3.62-.13,5.34.32.73.8,1.39,1.4,1.91.7.52,1.47.95,2.29,1.27,1.03.39,2.1.69,3.18.89.86.2,1.71.46,2.54.76.53.2,1.04.46,1.53.76.35.2.62.51.76.89.16.36.24.75.25,1.14.01.8-.37,1.56-1.02,2.04-.87.55-1.89.82-2.93.76-1.31.02-2.61-.24-3.82-.76-1.19-.58-2.3-1.31-3.31-2.16l-2.42,2.8c1.26,1.22,2.78,2.13,4.45,2.67,1.58.6,3.27.9,4.96.89,1.12.03,2.24-.14,3.31-.51.92-.27,1.78-.7,2.54-1.27.72-.57,1.29-1.31,1.65-2.16.42-.92.64-1.92.64-2.93.04-.84-.13-1.67-.51-2.42-.31-.7-.79-1.31-1.4-1.78-.67-.57-1.45-1-2.29-1.27-1.04-.39-2.1-.73-3.18-1.02-1.02-.25-1.91-.51-2.67-.76-.57-.21-1.13-.46-1.65-.76-.32-.23-.59-.53-.76-.89,0-.25-.13-.64-.13-1.02h0Zm-18.95.51v16.15h3.94v-22.51h-4.2l-6.87,10.68-6.87-10.68h-4.2v22.51h3.94v-16.15l7,10.56h.13l7.12-10.56Zm-29-6.49h-16.66v22.51h16.92v-3.56h-12.97v-5.98h11.32v-3.56h-11.32v-5.85h12.72v-3.56Zm-33.96,3.69h7.12v-3.69h-18.32v3.69h7.12v18.82h3.94v-18.82h.13Zm-32.31,2.29c.02-.76.4-1.47,1.02-1.91.78-.55,1.72-.82,2.67-.76,1.05.03,2.08.24,3.05.64,1.1.45,2.12,1.05,3.05,1.78l2.16-3.05c-1.12-.89-2.37-1.61-3.69-2.16-1.42-.53-2.93-.79-4.45-.76-1.04-.04-2.08.13-3.05.51-.88.27-1.7.7-2.42,1.27-.66.59-1.21,1.27-1.65,2.04-.8,1.68-.85,3.62-.13,5.34.32.73.8,1.39,1.4,1.91.73.55,1.55.98,2.42,1.27,1.03.39,2.1.69,3.18.89.86.2,1.71.46,2.54.76.53.2,1.04.46,1.53.76.35.2.62.51.76.89.16.36.24.75.25,1.14.01.8-.37,1.56-1.02,2.04-.87.55-1.89.82-2.93.76-1.31.02-2.61-.24-3.82-.76-1.19-.58-2.3-1.31-3.31-2.16l-2.42,2.8c1.26,1.22,2.78,2.13,4.45,2.67,1.58.61,3.27.92,4.96.89,1.12.03,2.24-.14,3.31-.51.92-.27,1.78-.7,2.54-1.27.72-.57,1.29-1.31,1.65-2.16.42-.92.64-1.92.64-2.93.04-.84-.13-1.67-.51-2.42-.31-.7-.79-1.31-1.4-1.78-.67-.57-1.45-1-2.29-1.27-1.04-.39-2.1-.73-3.18-1.02-1.02-.25-1.91-.51-2.67-.76-.57-.21-1.13-.46-1.65-.76-.62-.44-1-1.15-1.02-1.91h0Zm-20.48,7.63l8.9-13.61h-4.58l-6.36,9.92-6.36-9.92h-4.71l8.9,13.61v8.9h3.94v-8.9h.25Zm-32.94-7.63c.02-.76.4-1.47,1.02-1.91.78-.55,1.72-.82,2.67-.76,1.05.03,2.08.24,3.05.64,1.1.45,2.12,1.05,3.05,1.78l2.16-3.05c-1.12-.89-2.37-1.61-3.69-2.16-1.42-.53-2.93-.79-4.45-.76-1.04-.04-2.08.13-3.05.51-.88.27-1.7.7-2.42,1.27-.66.59-1.21,1.27-1.65,2.04-.8,1.68-.85,3.62-.13,5.34.32.73.8,1.39,1.4,1.91.73.55,1.55.98,2.42,1.27,1.03.39,2.1.69,3.18.89.86.2,1.71.46,2.54.76.53.2,1.04.46,1.53.76.35.2.62.51.76.89.16.36.24.75.25,1.14.01.8-.37,1.56-1.02,2.04-.87.55-1.89.82-2.93.76-1.31.02-2.61-.24-3.82-.76-1.19-.58-2.3-1.31-3.31-2.16l-2.42,2.8c1.26,1.22,2.78,2.13,4.45,2.67,1.58.6,3.27.9,4.96.89,1.12.03,2.24-.14,3.31-.51.92-.27,1.78-.7,2.54-1.27.72-.57,1.29-1.31,1.65-2.16.42-.92.64-1.92.64-2.93.04-.84-.13-1.67-.51-2.42-.31-.7-.79-1.31-1.4-1.78-.67-.57-1.45-1-2.29-1.27-1.04-.39-2.1-.73-3.18-1.02-1.02-.25-1.91-.51-2.67-.76-.57-.21-1.13-.46-1.65-.76-.62-.44-1-1.15-1.02-1.91h0Zm-24.04,13.48v-9.41h-9.54v3.43h5.72v4.2c-.75.52-1.56.95-2.42,1.27-.99.31-2.02.48-3.05.51-1.09-.02-2.17-.23-3.18-.64-.9-.4-1.72-.96-2.42-1.65-.65-.75-1.17-1.61-1.53-2.54-.36-1.02-.54-2.1-.51-3.18-.04-1.04.13-2.08.51-3.05.36-.93.87-1.79,1.53-2.54.65-.73,1.42-1.33,2.29-1.78.92-.41,1.92-.62,2.93-.64.64-.03,1.28.01,1.91.13.57.09,1.13.26,1.65.51.48.23.95.48,1.4.76.48.27.91.61,1.27,1.02l2.54-3.05c-.56-.47-1.16-.89-1.78-1.27-.61-.35-1.25-.65-1.91-.89-.73-.3-1.5-.52-2.29-.64-.88-.16-1.78-.25-2.67-.25-1.61-.04-3.22.27-4.71.89-1.37.62-2.62,1.48-3.69,2.54-1.02,1.07-1.84,2.32-2.42,3.69-.55,1.42-.85,2.93-.89,4.45-.04,1.57.27,3.13.89,4.58,1.1,2.79,3.31,5.01,6.11,6.11,1.53.64,3.18.94,4.83.89.94-.02,1.87-.1,2.8-.25.88-.12,1.74-.38,2.54-.76.76-.3,1.48-.69,2.16-1.14.7-.32,1.34-.75,1.91-1.27h0Zm-35.74-3.82l-12.08-15.64h-3.69v22.51h3.94v-15.9l12.46,16.03h3.31v-22.51h-3.94v15.52Zm-31.67-15.64v22.51h3.94v-22.51h-3.94Zm-15.01,11.32c.04,1.04-.13,2.08-.51,3.05-.65,1.84-2.1,3.29-3.94,3.94-1.02.36-2.1.54-3.18.51h-4.71v-15.39h4.45c1.09,0,2.17.22,3.18.64.94.32,1.78.89,2.42,1.65.65.7,1.17,1.52,1.53,2.42.49.99.75,2.08.76,3.18h0Zm4.07,0c.02-1.53-.28-3.05-.89-4.45-.58-1.33-1.4-2.53-2.42-3.56-1.1-1.05-2.4-1.87-3.82-2.42-1.55-.56-3.18-.86-4.83-.89h-8.39v22.51h8.39c1.66.05,3.3-.25,4.83-.89,1.42-.55,2.72-1.37,3.82-2.42,2.11-2.08,3.3-4.92,3.31-7.89h0Zm-38.03,2.29h-7.76l3.82-9.03,3.94,9.03Zm-2.04-13.74h-3.69l-9.92,22.64h4.07l2.29-5.47h10.68l2.29,5.47h4.2l-9.92-22.64Zm-26.46,7.5c.04,1.08-.43,2.12-1.27,2.8-1,.71-2.21,1.07-3.43,1.02h-5.85v-7.63h5.72c1.21-.05,2.4.26,3.43.89.93.68,1.45,1.78,1.4,2.93Zm4.71,15.26l-6.11-8.52c.75-.22,1.48-.52,2.16-.89.63-.36,1.19-.84,1.65-1.4.5-.56.89-1.2,1.14-1.91.27-.82.4-1.68.38-2.54,0-1.01-.22-2.01-.64-2.93-.36-.89-.92-1.67-1.65-2.29-.77-.66-1.69-1.14-2.67-1.4-1.11-.37-2.27-.55-3.43-.51h-10.05v22.51h3.94v-7.89h4.96l5.6,7.89h4.71v-.13Zm-36.38-18.95h7.12v-3.69h-18.19v3.69h7.12v18.82h3.94v-18.82Z"/>
</svg>