<?xml version="1.0" encoding="UTF-8"?>
<svg id="Layer_1" data-name="Layer 1" xmlns="http://www.w3.org/2000/svg" viewBox="0 0 190.46 87.03">
  <defs>
    <style>
      .cls-1 {
        fill: #ff4a00;
      }
    </style>
  </defs>
  <path class="cls-1" d="m114.27,37.83h-4.76c-.11-.37-.16-.85-.21-1.38-.11-1.01-.11-2.01,0-3.02.05-.53.11-.95.21-1.38h11.85v37.46c-.58.11-1.16.16-1.8.21-.58.05-1.22.05-1.8.05s-1.16-.05-1.69-.05c-.58-.05-1.22-.11-1.8-.21v-31.69h0Zm41.21,9.42c0-1.38-.16-2.65-.53-3.91-.37-1.22-.9-2.33-1.59-3.23-.69-.9-1.59-1.69-2.7-2.22-1.11-.58-2.38-.85-3.91-.85-2.96,0-5.24.9-6.82,2.7-1.59,1.8-2.54,4.29-2.91,7.51h18.46Zm-18.57,5.4c.11,4.07,1.16,7.09,3.17,8.99s5.03,2.86,8.94,2.86c3.44,0,6.72-.63,9.84-1.85.37.74.69,1.64.95,2.65s.37,2.06.42,3.12c-1.59.69-3.39,1.22-5.29,1.53-1.9.32-4.07.53-6.4.53-3.39,0-6.35-.48-8.78-1.43-2.43-.95-4.44-2.27-6.03-4.02-1.59-1.75-2.75-3.76-3.49-6.14s-1.11-4.97-1.11-7.78.37-5.34,1.06-7.78c.69-2.43,1.8-4.5,3.23-6.3,1.48-1.8,3.28-3.17,5.5-4.23,2.22-1.06,4.81-1.59,7.83-1.59,2.59,0,4.87.42,6.77,1.32,1.96.9,3.6,2.06,4.87,3.6,1.32,1.53,2.33,3.39,3.02,5.5.69,2.12,1.01,4.44,1.01,6.88,0,.69,0,1.38-.05,2.17-.05.63-.11,1.27-.16,1.96h-25.29Zm33.7-20.53c.53-.11,1.01-.16,1.53-.21.48-.05,1.01-.05,1.53-.05s1.06,0,1.59.05c.53.05,1.01.11,1.48.21.16.74.26,1.69.42,2.91s.21,2.22.21,3.02c1.01-1.64,2.38-3.07,4.07-4.29,1.69-1.22,3.81-1.8,6.45-1.8.37,0,.79,0,1.22.05.37,0,.69.05,1.06.11.11.42.16.9.21,1.38s.05,1.01.05,1.53c0,.58-.05,1.22-.11,1.8-.05.63-.16,1.22-.26,1.85-.37-.11-.79-.16-1.22-.16h-1.01c-1.32,0-2.59.16-3.76.53-1.22.37-2.27,1.01-3.23,1.96-.95.95-1.69,2.17-2.27,3.81-.58,1.59-.85,3.65-.85,6.19v18.62c-.58.11-1.16.16-1.8.21-.63.05-1.27.05-1.8.05-.58,0-1.22-.05-1.8-.05-.63-.05-1.27-.11-1.85-.21l.11-37.51h0Zm-51.26-20c0,.9-.16,1.75-.48,2.54-.79.32-1.69.48-2.54.48h0c-.9,0-1.75-.16-2.54-.48-.32-.79-.48-1.69-.48-2.54h0c0-.9.16-1.75.48-2.54.79-.32,1.69-.48,2.54-.48h0c.9,0,1.75.16,2.54.48.32.79.48,1.64.48,2.54h0Zm8.89-2.01h-7.09l5.03-5.03c-.79-1.11-1.75-2.06-2.86-2.86l-5.03,5.03V.16c-.69-.11-1.32-.16-2.01-.16h0c-.69,0-1.38.05-2.01.16v7.09l-5.03-5.03c-.53.37-1.06.85-1.53,1.32h0c-.48.48-.9,1.01-1.32,1.53l5.03,5.03h-7.09s-.16,1.32-.16,2.01h0c0,.69.05,1.38.16,2.01h7.09l-5.03,5.03c.79,1.11,1.75,2.06,2.86,2.86l5.03-5.03v7.09c.63.11,1.32.16,2.01.16h0c.69,0,1.32-.05,2.01-.16v-7.09l5.03,5.03c.53-.37,1.06-.85,1.53-1.32h0c.48-.48.9-1.01,1.32-1.53l-5.03-5.03h7.09c.11-.63.16-1.32.16-2.01h0c.05-.69,0-1.38-.16-2.01h0ZM0,68.56l19.73-30.68H2.33c-.16-.9-.21-1.85-.21-2.91s.05-1.96.21-2.86h28.09l.37.95-19.84,30.74h18.62c.16.95.21,1.96.21,3.02,0,.95-.05,1.9-.21,2.75H.37l-.37-1.01h0Zm56.87-16.61c-.74-.11-1.64-.21-2.75-.32-1.11-.11-2.06-.16-2.86-.16-3.02,0-5.34.58-6.88,1.69-1.59,1.11-2.38,2.8-2.38,5.13,0,1.48.26,2.59.79,3.44s1.22,1.48,2.01,1.9,1.69.69,2.65.79,1.9.16,2.75.16c1.11,0,2.27-.05,3.49-.16s2.27-.32,3.17-.53v-11.96h0Zm0-7.04c0-2.86-.74-4.87-2.17-5.98-1.48-1.11-3.6-1.69-6.35-1.69-1.69,0-3.28.16-4.76.42s-2.91.63-4.34,1.06c-.95-1.59-1.38-3.54-1.38-5.77,1.64-.53,3.49-.95,5.5-1.22,2.01-.32,3.91-.42,5.77-.42,4.87,0,8.57,1.11,11.11,3.33,2.54,2.22,3.81,5.77,3.81,10.63v23.44c-1.69.37-3.76.79-6.19,1.22-2.49.42-4.97.63-7.46.63s-4.55-.21-6.45-.63c-1.9-.42-3.54-1.16-4.87-2.12s-2.38-2.22-3.12-3.7c-.74-1.53-1.11-3.33-1.11-5.5s.42-3.91,1.27-5.5c.85-1.59,2.01-2.91,3.49-3.97s3.12-1.85,5.03-2.33c1.9-.53,3.91-.79,5.98-.79,1.53,0,2.86.05,3.81.11,1.01.05,1.85.16,2.54.26l-.11-1.48h0Zm22.22,18.52c.9.32,1.85.58,2.86.74.95.16,2.22.21,3.81.21,1.75,0,3.33-.26,4.81-.85,1.48-.58,2.7-1.43,3.76-2.59,1.06-1.16,1.85-2.65,2.49-4.44.58-1.8.9-3.86.9-6.3,0-3.91-.74-6.98-2.17-9.26s-3.81-3.44-7.04-3.44c-1.22,0-2.38.21-3.49.63s-2.12,1.11-3.02,1.96c-.9.85-1.59,2.01-2.12,3.33s-.79,2.91-.79,4.76v15.24h0Zm-7.25-31.32c.48-.11,1.01-.16,1.48-.21.53-.05,1.06-.05,1.59-.05.48,0,1.01,0,1.53.05.53.05,1.06.11,1.53.21.05.11.11.42.16.9.05.53.16,1.06.21,1.64.05.58.16,1.16.21,1.69.05.53.11.9.11,1.01.48-.79,1.06-1.53,1.75-2.27.69-.74,1.48-1.38,2.43-1.96.95-.58,2.01-1.06,3.23-1.38,1.22-.32,2.54-.53,3.97-.53,2.17,0,4.23.37,6.08,1.11,1.85.74,3.49,1.85,4.81,3.39,1.32,1.53,2.38,3.49,3.12,5.82.74,2.38,1.11,5.13,1.11,8.36,0,6.4-1.75,11.43-5.24,15.08-3.49,3.65-8.41,5.45-14.81,5.45-1.06,0-2.17-.05-3.28-.21-1.11-.16-2.12-.32-2.91-.58v17.14c-.63.11-1.22.16-1.85.21-.63.05-1.27.05-1.8.05-.58,0-1.22-.05-1.8-.05-.58-.05-1.22-.11-1.8-.21l.16-54.65h0Z"/>
</svg>