<?xml version="1.0" encoding="UTF-8"?>
<svg id="Layer_1" data-name="Layer 1" xmlns="http://www.w3.org/2000/svg" viewBox="0 0 299.87 65.31">
  <defs>
    <style>
      .cls-1 {
        fill: #fff;
      }
    </style>
  </defs>
  <g id="L4dtMQ.tif">
    <g>
      <path class="cls-1" d="m43.45,65.31c0-1.16,0-2.32,0-3.48,0-14.71,0-29.42-.01-44.13,0-.3.02-.61-.03-.91-.08-.38.08-.48.42-.48,1.13,0,2.27,0,3.4,0,.79,0,1.59,0,2.38,0,.35,0,.48.11.47.47-.02.72,0,1.43,0,2.23,5.53-4.07,11.5-5.15,17.88-2.59,3.71,1.49,6.63,4.01,8.68,7.51,4.23,7.24,2.66,15.83-2.53,21.23-3.18,3.31-7.11,5.1-11.66,5.44-4.56.34-8.65-1.04-12.4-3.93v18.63h-6.6Zm29.36-32.38c0-5.83-4.39-11.57-11.6-11.68-6.57-.1-11.59,5.7-11.57,11.56.02,6.46,5.15,11.67,11.55,11.67,6.39,0,11.61-5.2,11.62-11.56Z"/>
      <path class="cls-1" d="m299.87,34.71c-.51.06-1.02.18-1.53.18-8.19.02-16.37.02-24.56.02-.17,0-.33,0-.56,0,.04,1.05.18,2.05.54,2.99,1.47,3.79,4.24,6.09,8.26,6.8,4.64.81,8.39-.8,11.34-4.39.09-.1.16-.22.24-.32.03-.04.08-.06.14-.1,1.53,1.21,3.06,2.42,4.63,3.66-.06.1-.12.21-.2.31-2.91,3.61-6.65,5.81-11.27,6.44-4.75.65-9.21-.16-13.22-2.82-3.65-2.43-5.91-5.9-6.83-10.14-1.32-6.04-.22-11.63,3.84-16.42,2.29-2.7,5.32-4.34,8.77-5.12,3.84-.86,7.64-.67,11.28.88,2.94,1.25,5.14,3.37,6.7,6.15,1.37,2.44,2.14,5.03,2.13,7.84,0,.15.02.3.03.45,0,.06.02.13.08.2.06-.38.13-.76.19-1.14v4.54Zm-26.73-5.28c.35.02.5.04.65.04,4.65,0,9.3,0,13.95,0,1.59,0,3.18-.02,4.77,0,.37,0,.54-.08.43-.49-.09-.32-.1-.66-.16-.99-.5-2.51-1.64-4.61-3.86-6.02-2.28-1.45-4.79-1.56-7.34-1.13-3.49.6-5.9,2.69-7.48,5.76-.43.85-.62,1.82-.95,2.83Z"/>
      <path class="cls-1" d="m172.42,49.55c0-.27,0-.46,0-.66,0-6.08.02-12.15-.01-18.23-.01-2.13-.24-4.24-1.28-6.16-1.62-2.98-3.69-3.69-6.57-3.58-3.85.15-6.51,3.06-7.46,6.86-.42,1.68-.46,3.4-.46,5.11,0,5.37.02,10.74.03,16.11,0,.38-.1.53-.52.52-1.86-.02-3.72-.03-5.58,0-.5,0-.59-.14-.59-.59.01-6.14,0-12.29.01-18.43,0-1.57,0-3.14-.42-4.66-.69-2.5-2.1-4.33-4.82-4.79-3.86-.66-6.96.91-8.84,4.4-1.08,2.01-1.41,4.2-1.41,6.44-.01,5.69,0,11.38.02,17.07,0,.39-.11.55-.51.55-1.84-.01-3.69-.01-5.53,0-.44,0-.62-.1-.61-.6.04-1.78.03-3.57.03-5.35.01-6.93.04-13.87.01-20.8,0-2.03-.2-4.06-.33-6.09-.02-.34.07-.45.41-.44,1.81,0,3.62.01,5.43,0,.39,0,.53.13.55.52.04.99.12,1.97.19,3.04.16-.13.27-.21.37-.31,2.73-2.66,6-4.04,9.82-4.16,2.42-.08,4.7.33,6.8,1.61,1.18.72,2.14,1.63,2.88,2.79.13.19.27.38.36.51.4-.35.77-.68,1.15-1,2.14-1.8,4.54-3.11,7.32-3.6,2.53-.44,5.09-.56,7.59.14,2.76.77,4.91,2.4,6.46,4.82,1.59,2.48,2.17,5.23,2.18,8.12.01,6.75,0,13.5.02,20.25,0,.45-.11.61-.59.6-2.01-.03-4.02-.01-6.1-.01Z"/>
      <path class="cls-1" d="m17.83,15.03c9.24-.24,17.88,7.82,17.8,17.79-.08,10.21-8.42,17.75-17.8,17.76C7.95,50.59,0,42.62,0,32.66,0,22.72,8.6,14.73,17.83,15.03Zm-.37,29.24c5.68.33,11.58-4.29,11.84-11.11.22-5.9-4.58-11.65-11.06-11.86-6.54-.21-11.53,4.89-11.92,10.79-.42,6.5,4.77,12.13,11.14,12.18Z"/>
      <path class="cls-1" d="m206.18,49.55c-2.59,0-5.17,0-7.76,0-.36,0-.59-.12-.81-.39-3.29-4.12-6.6-8.23-9.89-12.35-.11-.14-.17-.41-.13-.59,1.13-4.96,2.28-9.92,3.4-14.88.13-.58.37-.97.95-1.25,4.62-2.21,9.23-4.46,13.85-6.68.23-.11.61-.11.85,0,2.77,1.32,5.52,2.68,8.29,4.01,1.94.94,3.9,1.85,5.86,2.75.31.14.46.33.54.66,1.18,5.16,2.36,10.31,3.54,15.47.03.15-.02.37-.11.49-2.78,3.48-5.56,6.94-8.35,10.41-.54.67-1.06,1.35-1.63,1.99-.16.18-.47.33-.72.33-2.62.02-5.24.01-7.86.01Zm.02-6.01c1.52,0,3.04-.03,4.57.01.6.02,1-.16,1.37-.63,1.86-2.36,3.74-4.69,5.64-7.01.41-.5.61-.9.43-1.63-.78-3.04-1.43-6.12-2.11-9.18-.08-.35-.22-.56-.54-.71-3.02-1.43-6.02-2.89-9.04-4.32-.14-.07-.37-.08-.51-.01-3,1.44-5.98,2.89-8.98,4.33-.38.18-.59.42-.68.85-.68,3.07-1.38,6.13-2.11,9.19-.12.5-.05.84.27,1.23,2.01,2.47,4.01,4.95,6,7.44.26.32.52.46.93.46,1.59-.02,3.18,0,4.77,0Z"/>
      <path class="cls-1" d="m227.74,16.27c.44,0,.79,0,1.14,0,1.93,0,3.85.02,5.78.02.42,0,.58.15.73.56.49,1.39,1.08,2.75,1.62,4.13,1.85,4.76,3.7,9.52,5.54,14.29.72,1.86,1.42,3.74,2.14,5.6.07.18.2.33.34.55.09-.14.16-.21.2-.29,1.62-4.2,3.24-8.4,4.87-12.6,1.53-3.93,3.07-7.86,4.59-11.79.13-.34.31-.48.66-.48,2.05,0,4.09,0,6.14,0,.13,0,.26.04.45.08-.18.44-.35.84-.51,1.24-3.27,8.16-6.54,16.32-9.82,24.48-.91,2.28-1.85,4.55-2.75,6.83-.19.49-.45.68-1,.67-1.96-.04-3.92-.03-5.88,0-.45,0-.65-.15-.82-.55-2.8-6.91-5.62-13.82-8.43-20.73-1.43-3.5-2.85-7-4.28-10.5-.19-.46-.41-.91-.68-1.5Z"/>
      <path class="cls-1" d="m86.66,22.38c0-4.59,0-9.19,0-13.78,0-.41.09-.55.54-.55,1.86.03,3.72.02,5.58,0,.43,0,.59.11.59.56-.02,2.09-.01,4.17-.02,6.26,0,.25,0,.51-.03.76-.07.61-.07.61.57.61,2.45.01,4.9.03,7.35.02.43,0,.58.11.57.57-.03,1.51-.03,3.03,0,4.54.01.48-.15.6-.6.6-2.37-.02-4.73,0-7.1,0-.79,0-.77,0-.77.77,0,3.9.05,7.81-.02,11.71-.06,3.01.78,5.68,2.54,8.12.88,1.22,2.01,2.13,3.2,2.98.33.23.31.37.14.72-.65,1.36-1.25,2.76-1.86,4.14-.08.18-.17.37-.23.56-.13.41-.35.47-.72.26-2.39-1.3-4.43-3.01-6.08-5.18-2.47-3.25-3.65-6.93-3.64-11,.01-4.22,0-8.45,0-12.67,0,0,0,0,0,0Z"/>
      <path class="cls-1" d="m109.7,49.55c0-.54,0-1.01,0-1.48,0-10.27,0-20.53,0-30.8,0-1.01,0-1.01,1.04-1.01,1.69,0,3.38.02,5.07.01.39,0,.5.13.5.53-.01,10.64-.01,21.27-.02,31.91,0,.17.04.35-.02.5-.05.13-.21.32-.32.32-2.06.02-4.12.01-6.25.01Z"/>
      <path class="cls-1" d="m113.11,8.51c-2.21.11-4.42-1.75-4.53-3.84-.14-2.54,1.64-4.53,4.19-4.66,2.41-.13,4.48,1.69,4.62,4.05.14,2.33-1.78,4.32-4.28,4.45Z"/>
    </g>
  </g>
</svg>