<?xml version="1.0" encoding="UTF-8"?>
<svg id="Layer_1" data-name="Layer 1" xmlns="http://www.w3.org/2000/svg" viewBox="0 0 262.92 77.33">
  <defs>
    <style>
      .cls-1 {
        fill: #fff;
      }
    </style>
  </defs>
  <g id="LFx51f.tif">
    <g>
      <path class="cls-1" d="m56.94.06c0,.51,0,.94,0,1.38,0,16.1-.02,32.19,0,48.29,0,1.44.08,2.89.32,4.31.43,2.57,2.12,4.07,4.71,4.37.2.02.42.01.58.1.2.11.35.32.52.49-.2.14-.38.32-.61.42-.15.07-.35.02-.52.02-9.51,0-19.03,0-28.54,0-2.62,0-4.8-.89-6.3-3.05-1.46-2.1-2.79-4.29-4.14-6.46-1.98-3.17-3.93-6.37-5.89-9.55-.07-.12-.18-.22-.31-.37-1.16,1.26-2.3,2.47-3.39,3.71-.17.2-.19.57-.2.87-.02,2.45-.06,4.9,0,7.35.03,1.1.17,2.23.48,3.28.44,1.52,1.49,2.54,3.07,2.97.11.03.26.03.3.1.15.24.34.5.36.76,0,.12-.36.36-.57.37-.77.05-1.54.02-2.31.02-4.55,0-9.1,0-13.64,0-.75,0-1.01-.28-.8-.86.05-.12.17-.28.29-.31,2.75-.66,3.73-2.68,4.01-5.21.12-1.06.17-2.14.17-3.21,0-12.77.01-25.54-.01-38.31,0-1.26-.05-2.55-.33-3.77-.44-1.93-1.56-3.35-3.64-3.8-.21-.05-.45-.37-.51-.61-.1-.4.21-.56.57-.64,2.77-.59,5.53-1.19,8.29-1.79,1.14-.24,2.27-.49,3.41-.73.25-.05.51-.08.83-.13v41.94c.19-.12.3-.17.37-.25,3.26-3.76,6.55-7.48,9.74-11.3.98-1.18,1.87-2.52,2.42-3.94.9-2.33.22-3.88-1.82-4.85-.2-.09-.42-.28-.48-.47-.19-.61.01-.81.77-.82,4.5,0,9.01,0,13.51,0,.29,0,.67-.12.71.35.03.42,0,.76-.52.99-1.48.66-2.98,1.3-4.35,2.15-3.46,2.14-6.4,4.89-9.13,7.89-2.2,2.41-4.42,4.81-6.63,7.21-.04.05-.07.11-.17.27.4,0,.73.03,1.06,0,4.85-.51,8.56,1.32,11.17,5.39,1.9,2.97,3.78,5.95,5.65,8.93.89,1.42,1.93,2.7,3.36,3.64,1.49.98,3.11,1.42,4.88,1.18,2.25-.31,3.96-2.08,4.43-4.6.16-.85.2-1.74.2-2.61.01-13.86,0-27.73.02-41.59,0-1.5-.28-2.91-1.21-4.13-.64-.83-1.46-1.38-2.54-1.47-.36-.03-.63-.11-.66-.56-.03-.45.17-.6.58-.69,3.82-.8,7.63-1.62,11.45-2.44.31-.07.63-.12.99-.19Z"/>
      <path class="cls-1" d="m121.17,52.91c.91-2.55,1.72-4.92,2.59-7.26,1.96-5.35,3.95-10.69,5.93-16.03.5-1.34.84-2.7.73-4.16-.14-1.77-1.08-2.9-2.65-3.58-.36-.16-.74-.27-1.12-.37-.43-.11-.7-.39-.54-.8.07-.18.46-.35.7-.35,8.79-.02,17.58-.01,26.36-.04.65,0,.7.28.7.79-.01,9.82-.03,19.64,0,29.46,0,1.39.13,2.8.45,4.15.41,1.72,1.48,2.99,3.26,3.57.24.08.37.45.56.68-.28.15-.56.43-.85.44-4.02.03-8.04.02-12.06.02-1.23,0-2.46,0-3.69,0-.37,0-.79.03-.83-.51-.04-.47.26-.6.66-.72,2.16-.67,3.19-2.32,3.52-4.41.22-1.37.25-2.78.25-4.18.02-7.76.02-15.53,0-23.29,0-.61-.03-1.23-.15-1.82-.36-1.69-1.75-2.82-3.71-3-2.02-.19-3.83.37-5.36,1.72-2.19,1.94-3.59,4.41-4.58,7.1-2.28,6.21-4.49,12.44-6.71,18.67-1.17,3.27-2.3,6.55-3.43,9.83-.15.44-.35.63-.84.62-1.63-.03-3.25-.02-4.88,0-.37,0-.53-.11-.65-.47-2.82-8.54-5.85-17.01-9.19-25.36-.96-2.39-1.89-4.8-2.97-7.13-.51-1.09-1.26-2.11-2.08-3.01-.63-.69-1.51-1.16-2.29-1.72-.12-.09-.33-.1-.4-.2-.18-.26-.3-.56-.45-.84.24-.12.48-.34.72-.34,3.1-.02,6.2-.01,9.29-.01,2.42,0,4.83,0,7.25,0,.41,0,.74-.01.78.53.04.54-.29.67-.72.75-1.54.29-2.46,1.22-2.46,2.77,0,1.26.03,2.57.4,3.75,1.08,3.48,2.35,6.9,3.52,10.35,1.56,4.56,3.1,9.13,4.65,13.7.07.19.14.38.27.73Z"/>
      <path class="cls-1" d="m194.65,39.88c.07-8.26,3.9-14.31,10.98-18.4,2.98-1.72,6.3-2.24,9.71-2.15,9.79.25,17.33,8.22,18.86,16.1,1.36,6.95-.22,13.18-5.07,18.47-2.83,3.08-6.25,5.26-10.4,6.03-7.07,1.32-13.26-.36-18.32-5.64-3.87-4.04-5.84-8.8-5.76-14.41Zm30.33,1.55c0-5.35-.62-9.27-2.17-13.02-.98-2.36-2.16-4.59-4.23-6.23-2.16-1.7-5.03-1.88-7.39-.47-1.59.95-2.72,2.34-3.64,3.89-1.7,2.87-2.55,6.01-2.98,9.29-.61,4.62-.45,9.2.86,13.7.81,2.78,1.85,5.46,3.75,7.73,2.77,3.32,6.98,3.65,10.12.68.95-.91,1.79-2,2.44-3.14,2.45-4.24,3.21-8.91,3.24-12.42Z"/>
      <path class="cls-1" d="m101.37,58.39q.07,1.16-.96,1.41c-2.19.53-4.38.92-6.64.42-1.89-.42-3.33-1.42-4.13-3.22-.54-1.2-.93-2.44-1.03-3.82-.16.22-.33.43-.48.65-2.87,4.34-7.02,6.4-12.14,6.6-1.91.07-3.81-.21-5.62-.92-3.65-1.44-5.5-4.44-5.46-8.64.04-3.71,2.17-6.11,4.96-8.1,2.13-1.52,4.6-2.39,7.07-3.1,3.43-.99,6.91-1.78,10.37-2.65,1.3-.33,1.33-.31,1.35-1.67.06-2.89.06-5.78-.75-8.59-.86-3-2.62-5.18-5.86-5.82-1.33-.26-2.67-.21-3.96.25-2.56.92-3.88,3.31-3.28,5.96.24,1.06.57,2.11.8,3.17.47,2.15-.49,3.82-2.58,4.51-1.12.37-2.29.52-3.43.11-1.76-.62-2.53-2.03-2.75-3.76-.29-2.28.29-4.37,1.8-6.11,3.27-3.76,7.36-5.74,12.44-5.6,2.07.06,4.13.1,6.13.65,5.07,1.36,8.02,4.75,9.1,9.76.41,1.89.61,3.85.64,5.78.09,5.9.03,11.81.07,17.71,0,.86.15,1.75.41,2.58.56,1.8,1.66,2.51,3.54,2.46.11,0,.21,0,.36,0Zm-12.57-20.4c-.81.28-1.4.48-1.99.7-2.84,1.09-5.72,2.06-8.42,3.49-2.75,1.46-5.18,4.7-4.56,8.83.49,3.23,2.79,5.36,6.07,5.41,2.35.03,4.29-.93,6.04-2.38,1.44-1.2,2.43-2.73,2.52-4.59.2-3.74.23-7.49.34-11.46Z"/>
      <path class="cls-1" d="m181.21,53.01c.15-.3.24-.47.31-.64,2.24-6.46,4.5-12.9,6.68-19.38.67-1.98,1.18-4.02,1.57-6.07.18-.93.02-1.97-.21-2.9-.3-1.22-1.17-2.03-2.44-2.32-.34-.08-.73-.08-1.02-.25-.21-.12-.37-.44-.41-.7-.02-.11.33-.39.51-.39,4-.02,8-.03,12,0,.16,0,.43.26.47.44.07.32.14.75-.37.83-1.53.23-2.62,1.13-3.56,2.28-1.91,2.33-3.13,5.04-4.21,7.82-3.94,10.11-7.33,20.42-10.69,30.74-.86,2.63-1.87,5.22-2.89,7.79-.37.95-.92,1.84-1.46,2.71-1.78,2.9-4.35,4.37-7.8,4.37-3.61,0-6.49-1.35-8.43-4.44-1.22-1.95-1.61-4.06-.88-6.28,1.07-3.26,5.76-4.39,8.06-1.98.88.93,1.14,2.03.76,3.21-.28.86-.7,1.69-1.13,2.5-1.16,2.16-.16,4.27,2.28,4.72,2.31.43,4.17-.34,5.54-2.19,2.67-3.59,3.44-7.55,1.85-11.77-4.08-10.78-8.22-21.54-12.4-32.28-.66-1.7-1.6-3.3-2.55-4.86-.74-1.21-1.78-2.16-3.26-2.49-.39-.08-.61-.35-.45-.71.08-.19.4-.39.62-.39,5.62-.02,11.25-.02,16.87,0,.17,0,.48.27.49.43.02.22-.17.47-.29.69-.03.05-.16.04-.25.06-1.8.47-2.62,1.55-2.63,3.41,0,1.84.44,3.6,1.07,5.31,2.07,5.68,4.19,11.34,6.28,17.02.67,1.84,1.29,3.7,1.99,5.73Z"/>
      <path class="cls-1" d="m262.92.09c-1.05,1.68-1.99,3.2-2.95,4.71-1.05,1.64-2.1,3.28-3.18,4.9-.27.41-.24.73.02,1.13,1.86,2.91,3.7,5.84,5.54,8.76.16.25.28.51.46.85-.53,0-.94,0-1.35,0-9.4,0-18.8,0-28.21,0-1.15,0-1.14,0-1.14-1.14,0-5.95,0-11.89,0-17.84,0-1.47-.02-1.46,1.47-1.46,9.42,0,18.85,0,28.27.02.3,0,.59.04,1.08.07Z"/>
      <path class="cls-1" d="m144.11,10.23c0-2.79,2.39-5.15,5.22-5.17,2.85-.02,5.32,2.39,5.32,5.17,0,2.99-2.29,5.35-5.28,5.3-2.73-.04-5.29-1.94-5.26-5.29Z"/>
    </g>
  </g>
</svg>