<?xml version="1.0" encoding="UTF-8"?>
<svg id="Layer_1" data-name="Layer 1" xmlns="http://www.w3.org/2000/svg" viewBox="0 0 219.9 75.69">
  <defs>
    <style>
      .cls-1 {
        fill: #fff;
      }

      .cls-2 {
        fill: #f18e25;
      }
    </style>
  </defs>
  <g>
    <path class="cls-1" d="m55.66,52.77c-3.5-3.81-5.25-8.91-5.25-15.23s1.75-11.42,5.18-15.23c3.43-3.81,8.22-5.71,14.47-5.71,5.63,0,9.97,1.52,13.1,4.49,3.12,2.97,4.8,6.85,5.1,11.65h-10.51c-.23-2.06-.99-3.73-2.36-5.03-1.37-1.29-3.12-1.9-5.33-1.9-5.94,0-8.91,3.96-8.91,11.8s2.97,11.8,8.91,11.8c2.21,0,4.04-.61,5.33-1.83s2.13-2.89,2.36-4.95h10.51c-.3,4.8-1.98,8.68-5.1,11.57-3.12,2.97-7.39,4.42-12.94,4.42-6.17-.08-11.04-2.06-14.54-5.86"/>
    <path class="cls-1" d="m97.92,54.52c-2.66-2.66-4.04-6.24-4.04-10.66v-26.65h10.43v23.68c0,5.41,2.51,8.15,7.46,8.15,2.51,0,4.49-.84,6.02-2.51,1.52-1.68,2.28-3.96,2.28-6.78v-22.54h10.43v40.58h-9.37l-.76-4.64h-.3c-2.66,3.5-6.47,5.33-11.57,5.33-4.34.08-7.92-1.29-10.58-3.96"/>
  </g>
  <rect class="cls-1" x="137.74" y="17.21" width="10.43" height="40.58"/>
  <rect class="cls-1" x="137.74" y=".38" width="10.43" height="10.2"/>
  <path class="cls-1" d="m155.18,17.21V4.42h10.43v12.79h9.82v8.91h-9.75v17.13c0,1.9.38,3.35,1.22,4.19.84.84,2.13,1.29,3.96,1.29h4.72v9.14h-7.61c-4.34,0-7.54-1.14-9.59-3.35-2.06-2.21-3.12-5.25-3.12-8.98v-28.32h-.08Z"/>
  <polygon class="cls-1" points="208.63 17.21 198.96 46.9 198.66 46.9 189.29 17.21 178.55 17.21 178.55 17.97 192.34 57.64 193.1 59.7 187.69 74.92 187.69 75.69 198.88 75.69 219.9 17.97 219.9 17.21 208.63 17.21"/>
  <polygon class="cls-2" points="0 34.49 13.32 57.56 26.57 34.49 0 34.49"/>
  <polygon class="cls-1" points="19.87 0 13.25 11.5 13.32 11.5 19.95 22.99 19.87 22.99 19.95 22.99 26.57 34.49 26.57 34.49 26.57 34.49 33.2 45.99 33.2 46.07 33.27 46.07 39.9 57.49 39.82 57.56 53.15 57.56 46.52 46.07 46.52 46.07 46.52 46.07 39.9 34.57 39.9 34.49 39.82 34.49 33.2 23.07 33.27 22.99 33.2 22.99 26.57 11.57 26.57 11.5 26.57 11.5 19.87 0"/>
</svg>