<?xml version="1.0" encoding="UTF-8"?>
<svg id="Layer_1" data-name="Layer 1" xmlns="http://www.w3.org/2000/svg" viewBox="0 0 278.24 55.91">
  <defs>
    <style>
      .cls-1 {
        fill: #fff;
      }

      .cls-2 {
        fill: #0c7eea;
      }

      .cls-3 {
        fill: none;
        stroke: #0c7eea;
        stroke-linecap: round;
        stroke-linejoin: round;
        stroke-width: 2px;
      }
    </style>
  </defs>
  <path class="cls-2" d="m62.98,4.71c2.96,0,5.36,2.4,5.36,5.36v32.98l4.24,2.85c2.37,1.59,1.24,5.29-1.62,5.29H10.07c-2.96,0-5.36-2.4-5.36-5.36V10.07c0-2.96,2.4-5.36,5.36-5.36h52.91m0-4.71H10.07C4.52,0,0,4.52,0,10.07v35.77c0,5.55,4.52,10.07,10.07,10.07h60.89c3.37,0,6.29-2.16,7.27-5.38.98-3.22-.23-6.65-3.02-8.53l-2.16-1.45V10.07c0-5.55-4.52-10.07-10.07-10.07h0Z"/>
  <g>
    <g>
      <circle class="cls-2" cx="29.77" cy="21.7" r="2.94"/>
      <circle class="cls-2" cx="43.11" cy="21.7" r="2.94"/>
    </g>
    <path class="cls-3" d="m24.52,29.64c2.09,3.67,6.64,6.22,11.92,6.22s9.82-2.55,11.92-6.22"/>
  </g>
  <g id="ro8biT.tif">
    <g>
      <path class="cls-1" d="m137.36,45.69c-9.19-.34-16.1-7.97-15.65-16.64.49-9.42,8.68-15.5,16.56-15.23,9.81.33,16.15,8.4,15.89,16.36-.32,9.81-8.91,15.88-16.81,15.51Zm.52-7.31c.18,0,.36,0,.54,0,3.37-.21,5.75-1.82,7.05-4.95.82-1.98.86-4.04.4-6.09-.74-3.32-3.26-5.74-6.89-6.15-3.79-.43-7.57,1.51-8.71,5.29-.26.88-.41,1.8-.48,2.72-.15,1.98.18,3.89,1.26,5.58,1.58,2.47,3.95,3.55,6.84,3.6Z"/>
      <path class="cls-1" d="m189.28,44.86h-7.58c0-.18,0-.33,0-.49,0-5.51,0-11.02-.03-16.53,0-.89-.07-1.79-.25-2.65-.59-2.79-2.62-4.01-5.35-4-1.67,0-3.12.6-4.34,1.7-.86.77-1.63,1.64-2.42,2.49-.14.15-.19.42-.19.63,0,5.35.02,10.7.03,16.05,0,.92,0,1.85,0,2.8h-7.61V14.55h7.6v4.33c.28-.29.46-.47.63-.66,1.54-1.74,3.29-3.16,5.53-3.91,4.54-1.5,11.33,0,13.34,7.13.5,1.78.67,3.61.67,5.45,0,5.88-.02,11.77-.03,17.65,0,.09-.01.18-.02.33Z"/>
      <path class="cls-1" d="m256.09,36.1c1.89,1.32,3.98,2.01,6.08,2.65,1.6.49,3.24.61,4.88.27.69-.14,1.38-.41,1.97-.79,1.62-1.02,1.53-3.36-.19-4.2-1.4-.69-2.9-1.19-4.36-1.75-1.03-.4-2.08-.75-3.11-1.15-3.06-1.2-4.59-3.51-4.94-6.71-.28-2.62.31-4.93,2.14-6.91,1.57-1.7,3.53-2.74,5.74-3.23,4.29-.96,8.38-.5,12.14,1.93.35.22.51.48.51.91-.02,1.69,0,3.39,0,5.08,0,.3,0,.6,0,.97-.31-.18-.58-.34-.84-.5-1.73-1.04-3.53-1.9-5.56-2.1-1.51-.15-3.04-.22-4.45.57-1.32.74-1.98,2.08-1.59,3.34.28.9.96,1.46,1.77,1.83.91.41,1.86.73,2.8,1.06,1.41.5,2.86.92,4.24,1.5,3.09,1.29,4.82,3.64,4.94,7,.07,1.95-.53,3.76-1.78,5.31-2.22,2.76-5.16,4.12-8.64,4.46-4.04.4-7.69-.75-11.19-2.61-.39-.21-.55-.48-.54-.94.02-1.96,0-3.92,0-5.99Z"/>
      <path class="cls-1" d="m194,14.52c2.87,0,5.66,0,8.45.02.16,0,.39.21.46.38,1.85,4.52,3.68,9.04,5.52,13.56.59,1.45,1.19,2.9,1.79,4.35.07.18.16.35.29.65.44-1.03.84-1.95,1.23-2.88,2.1-4.93,4.2-9.86,6.31-14.8.06-.13.11-.26.16-.39q.36-.88,1.3-.88c2.4,0,4.79,0,7.19,0,.19,0,.38,0,.67,0-.28.6-.51,1.11-.75,1.62-3.82,8.03-7.63,16.06-11.45,24.09-.68,1.43-1.37,2.86-2.02,4.31-.14.3-.33.37-.62.36-1.27-.01-2.54-.03-3.81,0-.45.01-.62-.19-.78-.55-2.7-5.78-5.4-11.56-8.11-17.33-1.91-4.07-3.82-8.13-5.73-12.19-.04-.08-.05-.16-.11-.32Z"/>
      <path class="cls-1" d="m116.84,23.82c-1.61-1.16-3.34-1.97-5.27-2.31-2.2-.39-4.39-.51-6.46.5-2.86,1.39-4.56,3.62-4.91,6.83-.18,1.69,0,3.31.73,4.85,1.23,2.64,3.36,4.14,6.19,4.57,3.43.52,6.61-.24,9.46-2.24.06-.04.12-.07.19-.1.03-.01.07,0,.19-.02,0,.2,0,.4,0,.6,0,1.84-.01,3.67,0,5.51,0,.45-.13.76-.5,1.04-3.05,2.3-6.51,2.95-10.24,2.55-4.82-.52-8.61-2.83-11.36-6.75-1.57-2.23-2.44-4.76-2.7-7.51-.33-3.52.42-6.78,2.24-9.77,2-3.29,4.84-5.61,8.51-6.91,1.52-.54,3.08-.77,4.67-.85,3.41-.17,6.43.93,9.11,2.99.12.09.23.3.23.45.01,2.14,0,4.28,0,6.42,0,.03-.03.06-.08.16Z"/>
      <path class="cls-1" d="m232.84,14.53h7.59v5.53s.07.04.11.05c.15-.2.32-.39.46-.6.85-1.33,1.88-2.52,3.05-3.57,2.17-1.95,4.67-2.41,7.43-1.59.18.05.43.32.43.48.02,2.62.01,5.24,0,7.87,0,.07-.04.14-.07.27-.44-.17-.86-.34-1.28-.5-2.79-1.04-5.72-.6-7.62,1.81-.85,1.08-1.61,2.22-2.38,3.35-.12.17-.14.44-.14.66,0,5.46-.01,10.92-.01,16.37,0,.05-.02.1-.04.19h-7.54V14.53Z"/>
    </g>
  </g>
</svg>