<?xml version="1.0" encoding="UTF-8"?>
<svg id="Layer_1" data-name="Layer 1" xmlns="http://www.w3.org/2000/svg" viewBox="0 0 353.7 71.32">
  <defs>
    <style>
      .cls-1 {
        fill: #ec3049;
      }

      .cls-2 {
        fill: #fff;
      }

      .cls-3 {
        fill: #ffbe00;
      }

      .cls-4 {
        fill: #26b4f7;
      }
    </style>
  </defs>
  <g id="jlStLz.tif">
    <g>
      <path class="cls-2" d="m353.7,42.56c-1.57.12-3.13.32-4.7.33-6.07.04-12.15,0-18.23.04-2.24,0-2.62.54-1.78,2.56,1.26,3.03,3.56,4.86,6.83,5.39,3.98.64,7.53-.32,10.63-2.89.45-.38.97-.69,1.66-1.19,1.32,1.9,2.63,3.72,3.82,5.6.15.24-.17.97-.47,1.25-6.19,5.62-15.77,6.83-23.05,2.88-4.92-2.67-7.56-6.96-8.31-12.34-.74-5.27.17-10.27,3.56-14.56,3.45-4.36,8.19-6.12,13.67-6.12,4.26,0,8.22.96,11.3,4.07,2.83,2.85,4.66,6.14,4.01,10.35-.08.49-.01.99.24,1.53.27-.89.54-1.79.81-2.68v5.78Zm-24.73-5.51h15.38c.26-3.01-2.5-6.48-7.36-6.51-4.73-.03-8.08,2.61-8.02,6.51Z"/>
      <path class="cls-2" d="m149.22,57.86c-5.94-.02-4.49.75-6.51-4.49-.76-1.97-1.5-3.94-2.21-5.93-.29-.8-.76-1.14-1.65-1.14-6.31.01-12.61,0-18.92-.05-.93,0-1.41.31-1.72,1.19-1.06,2.98-2.25,5.91-3.3,8.89-.37,1.04-.94,1.44-2.03,1.42-2.22-.05-4.45.02-6.67,0-1.68-.02-1.82-.25-1.2-1.75,2.7-6.62,5.42-13.24,8.1-19.87,3.72-9.18,7.42-18.36,11.09-27.56.36-.9.86-1.35,1.8-1.34,2.36.02,4.73-.02,7.09.13.48.03,1.11.73,1.33,1.27,3.54,8.61,7.02,17.24,10.52,25.86,2.9,7.14,5.8,14.27,8.7,21.4.69,1.71.54,1.92-1.36,1.96-1.02.02-2.04,0-3.06,0Zm-19.94-19.91s0-.01,0-.02c1.99,0,3.98-.04,5.97.01,1.21.03,1.48-.49,1.1-1.52-2.01-5.36-4.01-10.72-6.05-16.07-.15-.4-.66-.68-1.01-1.01-.32.34-.79.63-.94,1.04-2.03,5.35-4.01,10.72-6.03,16.08-.43,1.14-.01,1.51,1.12,1.49,1.95-.03,3.89,0,5.84,0Z"/>
      <path class="cls-2" d="m273.56,52.86c0,1.47-.01,2.52,0,3.56.01.8-.24,1.33-1.17,1.34-2.22.02-4.44.07-6.67.09-.75,0-1.09-.39-1.05-1.13.02-.27,0-.55,0-.82,0-15.68,0-31.36,0-47.04,0-.45,0-.9,0-1.52h8.86v21.95c.43-.39.69-.56.87-.79,5.27-6.98,15.67-6.01,21-1.4,3.15,2.72,4.91,6.16,5.54,10.18.88,5.68.15,11.07-3.49,15.77-5.12,6.59-15.7,7.74-21.51,2.36-.76-.7-1.42-1.52-2.38-2.56Zm9.11-21.09c-5.64-.26-8.75,3.8-9.01,9.18-.26,5.33,3.85,9.51,9.1,9.59,5.19.08,9.14-3.77,9.21-8.96.08-5.95-3.51-9.74-9.29-9.81Z"/>
      <path class="cls-2" d="m250.22,29.39v-4.7c2.77,0,5.43-.03,8.09.05.26,0,.7.76.71,1.17.07,2.47.04,4.95.04,7.43,0,7.52,0,15.04,0,22.56,0,1.78-.12,1.94-1.84,1.97-2.26.04-4.52,0-6.95,0v-4.92c-.3.17-.45.21-.51.3-4.63,6.82-13.55,6.54-18.9,3.56-4.88-2.71-7.24-7.07-8.05-12.35-1.02-6.65.4-12.62,5.57-17.28,5.33-4.81,14.16-5,19.27-.55.86.75,1.57,1.66,2.59,2.74Zm-9.46,2.41c-5.29.02-9.01,3.78-8.98,9.08.03,5.72,3.76,9.67,9.13,9.67,5.35,0,9.3-4.05,9.23-9.46-.07-5.49-3.92-9.3-9.37-9.29Z"/>
      <path class="cls-2" d="m217.89,58.21c-2.77-.34-5.33-.42-7.76-1.02-3.88-.97-6-4.14-6.09-8.66-.1-4.72-.08-9.44-.13-14.17-.03-2.51-.04-2.51-2.57-2.53-.51,0-1.02,0-1.53,0-2.08,0-2.15-.07-2.12-2.19.02-1.33.06-2.66.07-3.99,0-.8.39-1.16,1.2-1.15,1.16,0,2.32-.08,3.47-.03,1.22.05,1.51-.62,1.51-1.63,0-3.21,0-6.42-.01-9.63,0-2.01.09-2.12,2.08-2.12,1.71,0,3.43.09,5.14.04,1.3-.04,1.69.55,1.69,1.74-.02,3.16.01,6.33.05,9.49.02,1.87.2,2.02,2.08,2.07,1.16.03,2.32.04,3.47.1.86.05,1.34.45,1.32,1.4-.03,1.47-.02,2.93.04,4.4.05,1.16-.5,1.53-1.6,1.49-1.25-.05-2.5.02-3.75,0-1.06-.01-1.61.36-1.6,1.53.04,3.99-.03,7.98.03,11.97.05,3.26.63,3.82,3.84,4.44.44.08,1.11.63,1.12.98.1,2.33.05,4.66.05,7.47Z"/>
      <path class="cls-2" d="m305.86,57.89V7.39h8.85v1.46c0,15.59,0,31.17,0,46.76,0,2.18-.09,2.27-2.24,2.28-2.12,0-4.25,0-6.6,0Z"/>
      <path class="cls-2" d="m193.25,32.62c-1.29.18-2.61.34-3.92.53-4.31.64-6.88,3.07-7.31,7.38-.32,3.27-.23,6.59-.29,9.88-.04,1.97-.03,3.94-.03,5.91,0,.93-.36,1.45-1.39,1.46-2.08.01-4.17.13-6.25.09-.38,0-.81-.52-1.09-.9-.16-.22-.09-.62-.09-.94,0-9.76,0-19.53.02-29.29,0-2.15.11-2.23,2.3-2.24,1.62,0,3.24.01,4.87-.02,1.17-.02,1.71.47,1.63,1.65-.09,1.37-.12,2.74-.18,4.12-.01.34,0,.67.2,1.19,2.26-4.94,5.81-7.9,11.55-7.9v9.07Z"/>
      <path class="cls-2" d="m157.49,41.04c0-4.86,0-9.72,0-14.58,0-1.82.09-1.91,1.97-1.94,1.71-.02,3.43,0,5.14-.01,1.2,0,1.8.38,1.8,1.77-.05,9.99-.04,19.99.01,29.99,0,1.25-.55,1.63-1.65,1.63-1.71,0-3.43,0-5.14.01-2.09,0-2.11.01-2.13-2.01-.02-2.75,0-5.5,0-8.25,0-2.2,0-4.4,0-6.6h0Z"/>
      <path class="cls-2" d="m161.87,17.84c-2.89,0-5.23-2.39-5.21-5.31.02-2.76,2.45-5.14,5.27-5.16,2.85-.02,5.32,2.44,5.3,5.28-.01,2.88-2.41,5.2-5.36,5.19Z"/>
    </g>
  </g>
  <g>
    <path class="cls-3" d="m38.07.9L6.28,14.05c-1.77.73-1.75,3.24.03,3.95l31.92,12.66c2.8,1.11,5.93,1.11,8.73,0l31.92-12.66c1.78-.71,1.8-3.22.03-3.95L47.13.9c-2.9-1.2-6.16-1.2-9.06,0"/>
    <path class="cls-4" d="m45.43,37.57v31.62c0,1.5,1.52,2.53,2.91,1.98l35.57-13.81c.81-.32,1.34-1.11,1.34-1.98v-31.62c0-1.5-1.52-2.53-2.91-1.98l-35.57,13.81c-.81.32-1.34,1.11-1.34,1.98"/>
    <path class="cls-1" d="m37.13,39.2l-10.56,5.1-1.07.52L3.22,55.49c-1.41.68-3.22-.35-3.22-1.92v-29.68c0-.57.29-1.06.68-1.43.16-.16.35-.3.54-.4.53-.32,1.29-.4,1.94-.15l33.79,13.39c1.72.68,1.85,3.09.18,3.9"/>
    <path d="m37.13,39.2l-10.56,5.1L.68,22.47c.16-.16.35-.3.54-.4.53-.32,1.29-.4,1.94-.15l33.79,13.39c1.72.68,1.85,3.09.18,3.9"/>
  </g>
</svg>