<?xml version="1.0" encoding="UTF-8"?>
<svg id="Layer_1" data-name="Layer 1" xmlns="http://www.w3.org/2000/svg" viewBox="0 0 362.21 47.72">
  <defs>
    <style>
      .cls-1 {
        fill: #fff;
      }

      .cls-2 {
        fill: #33abda;
      }
    </style>
  </defs>
  <path class="cls-2" d="m.01,3.08C-.1,1.25,1.71-.21,3.48.02c21.42,0,42.85-.01,64.27.02,1.08-.1,2.07.36,2.87,1.05-5.71,8.45-12.7,16.41-21.84,21.22-5.44,2.91-11.85,4.18-17.94,2.88-8.3-1.45-15.56-7.59-18.36-15.54-.44-1.05-.53-2.24-1.08-3.23-1.36-.09-2.97-.02-3.87,1.15-1.02,1.14-.74,2.76-.48,4.13,1.43,7.81,6.28,14.96,13.09,19.07,6.09,3.83,13.61,5.41,20.69,4.01,6.64-1.24,12.63-4.85,17.52-9.42,5.2-4.79,9.28-10.64,12.88-16.68.07,11.02.02,22.04.03,33.06.17,1.72-1.38,3.32-3.11,3.2-21.7.02-43.39-.02-65.09-.04-1.69.1-3.19-1.47-3.05-3.14C.01,28.87,0,15.97.01,3.08H.01Z"/>
  <path class="cls-1" d="m91.89,10.77c6.14-6.31,17.16-6.34,23.77-.76-1.14,1.43-2.27,2.85-3.4,4.28-2.58-1.83-5.71-2.99-8.9-2.82-3.15.14-6.19,1.83-7.95,4.45-2.29,3.38-2.45,7.94-.85,11.63,1.38,3.18,4.48,5.51,7.92,5.96,3.57.57,7.27-.74,9.88-3.19,0-1.11.1-2.26-.28-3.33-.9-.01-1.81-.04-2.71-.05,0-1.69,0-3.39,0-5.09,2.19.07,4.41-.18,6.59.17,1.31.2,1.86,1.6,1.81,2.78.04,4.62,0,9.25.01,13.87-1.72,0-3.45.01-5.17,0,0-.97.02-1.94.05-2.9-5.48,4.68-14.24,4.49-19.69-.13-7.19-6.01-7.73-18.26-1.08-24.87h0Z"/>
  <path class="cls-1" d="m148.02,9.27c1.9,0,3.8,0,5.7,0,.01,2.1,0,4.2.01,6.3,1.39.06,2.84-.19,4.19.25,1.57.83.96,2.91,1.09,4.34-1.76,0-3.52,0-5.27,0,.07,3.56-.19,7.15.13,10.69.52,2.45,3.33,3.18,5.5,2.91,0,1.68,0,3.35,0,5.03-3.05.29-6.43-.02-8.87-2.06-1.85-1.5-2.61-3.97-2.61-6.28-.03-3.43,0-6.86-.01-10.29-1,0-2.01,0-3,0,0-1.53,0-3.06,0-4.59,1.05,0,2.1,0,3.15,0,0-2.1,0-4.2,0-6.3h0Z"/>
  <path class="cls-1" d="m162.61,38.68c.03-10.74-.04-21.48.03-32.22,4.12.07,8.25-.04,12.37.06,3.42.1,6.93,1.93,8.37,5.14,2.14,4.53.71,11.21-4.38,13.02,2.56,2.18,3.14,5.79,5.11,8.43.65.62,1.64.4,2.46.52,0,1.68,0,3.36,0,5.04-2.34-.17-5.38.7-7.08-1.4-1.99-3.16-3.31-6.7-5.31-9.85-1.51-1.29-3.72-.59-5.53-.77,0,4.01,0,8.02,0,12.03-2.01,0-4.02.01-6.03,0h0Zm6.04-17.11c2.11-.08,4.26.21,6.34-.22,4.26-1.11,4.29-8.5.01-9.6-2.09-.39-4.24-.1-6.35-.19-.02,3.34-.01,6.67,0,10.01h0Z"/>
  <path class="cls-1" d="m215.65,17.24c2.29-1.97,5.5-2.38,8.42-2.16,2.15.22,4.54.69,6.04,2.4,1.14,1.32.8,3.16.84,4.76-1.7,0-3.41,0-5.12,0-.07-.79.08-1.86-.82-2.24-1.53-.75-3.58-.73-4.99.29-1.03.79-.57,2.37.52,2.88,3.09,1.78,6.94,2.22,9.58,4.79,2.32,2.22,2.21,6.26.03,8.53-2.07,2.2-5.28,2.88-8.2,2.69-3.33-.15-6.52-1.66-8.85-4.04.9-1.29,1.83-2.55,2.77-3.82,1.97,1.92,4.56,3.54,7.42,3.36,1.04-.07,2.32-.52,2.61-1.66.38-.98-.47-1.81-1.26-2.22-3.1-1.68-6.84-2.36-9.36-4.98-2.27-2.31-2.08-6.48.38-8.58h0Z"/>
  <path class="cls-1" d="m298.02,19.82c2.31-4.59,8.54-6.06,12.94-3.74,2.32,1.28,3.31,4.01,3.44,6.54.13,3.48-.07,6.97.09,10.46.31,1.18,1.92.58,2.79.76,0,1.62,0,3.23,0,4.85-2.25-.06-4.51.15-6.74-.12-1.2-.16-1.94-1.33-1.9-2.48-.14-4,.04-8-.08-12-.06-1.39-.57-3.02-2.02-3.52-2.73-.85-5.92.52-7.24,3.05-1.01,1.8-1.08,3.92-1.05,5.94.01,3.04.01,6.08,0,9.13-1.94,0-3.87.03-5.81-.02,0-5.79.07-11.58-.03-17.36-.17-1.3-1.89-.65-2.77-.82,0-1.63,0-3.26,0-4.9,2.29.11,4.62-.25,6.88.22,1.73.52,1.62,2.58,1.49,4.02h0Z"/>
  <path class="cls-1" d="m321.98,17.09c2.36-1.88,5.55-2.25,8.46-1.98,2.13.24,4.5.75,5.91,2.5,1.05,1.31.68,3.09.75,4.64-1.71,0-3.42,0-5.12,0-.11-.74.12-1.76-.69-2.16-1.49-.85-3.51-.8-4.97.1-1.09.67-.86,2.34.24,2.89,3.21,1.95,7.37,2.3,10,5.2,2.54,2.81,1.48,7.68-1.78,9.46-4.95,2.83-11.67,1.48-15.53-2.61.91-1.28,1.85-2.54,2.77-3.81,2.15,2.12,5.17,3.93,8.31,3.22,1.13-.21,2.16-1.43,1.68-2.59-.58-1.02-1.77-1.42-2.77-1.9-2.75-1.19-5.82-2.07-7.91-4.35-2.22-2.38-1.91-6.59.65-8.61h0Z"/>
  <path class="cls-1" d="m124.22,18.33c2.99-3.03,7.68-3.95,11.72-2.88,2.62.71,4.86,2.64,5.97,5.11,1.13,2.35,1.27,5.03,1,7.58-5.38,0-10.76-.01-16.13,0,.34,2.28,1.61,4.52,3.81,5.45,3.25,1.52,7.09.31,9.73-1.88.87,1.31,1.66,2.68,2.48,4.03-4.82,4.16-12.63,4.78-17.68.7-5.39-4.3-5.7-13.28-.9-18.13h0Zm4.93,2.28c-1.16.83-1.75,2.18-2.18,3.48,3.39.03,6.78.03,10.17,0-.22-1.23-.53-2.53-1.49-3.4-1.71-1.73-4.66-1.47-6.5-.09h0Z"/>
  <path class="cls-1" d="m191.45,18.22c2.95-2.89,7.48-3.79,11.43-2.82,2.64.66,4.92,2.55,6.08,5.01,1.18,2.38,1.36,5.13,1.08,7.74-5.38.02-10.75-.01-16.13.01.31,2.45,1.84,4.81,4.23,5.64,3.21,1.25,6.78,0,9.34-2.07.81,1.34,1.63,2.68,2.44,4.02-4.76,4.12-12.45,4.77-17.51.84-5.58-4.27-5.93-13.52-.96-18.38h0Zm4.67,2.51c-1.09.83-1.63,2.13-2.05,3.38,3.38.02,6.77.02,10.15,0-.17-1.28-.56-2.61-1.56-3.5-1.78-1.67-4.74-1.35-6.55.11h0Z"/>
  <path class="cls-1" d="m344.38,17.46c2.96-2.32,7.04-2.94,10.64-2.04,2.69.7,4.98,2.67,6.11,5.21,1.1,2.34,1.23,4.99.99,7.52-5.38.02-10.76,0-16.13.02.31,2.54,1.96,4.97,4.47,5.73,3.16,1.11,6.59-.15,9.09-2.15.82,1.34,1.64,2.68,2.44,4.03-4.92,4.28-13.04,4.8-18.04.39-5.39-4.69-5.2-14.28.45-18.69h0Zm3.79,3.28c-1.07.83-1.61,2.12-2.03,3.37,3.39.02,6.77.02,10.16,0-.19-1.19-.49-2.44-1.38-3.31-1.74-1.88-4.88-1.59-6.75-.06h0Z"/>
  <path class="cls-1" d="m242.05,18.4c3.42-4.61,11.03-4.37,14.75-.26,2.69,2.9,3.42,7.11,3.01,10.94-.33,3.21-1.73,6.48-4.44,8.38-3.85,2.7-9.87,2.38-12.86-1.46.17,3.9.05,7.81.08,11.71-1.95,0-3.9,0-5.85,0-.03-8.79.04-17.59-.04-26.38-.1-1.33-1.92-.69-2.78-.86,0-1.63,0-3.26,0-4.9,2.22.09,4.47-.21,6.67.19,1.22.26,1.57,1.54,1.46,2.64h0Zm4.38,1.87c-4.2,1.61-4.86,7.29-3.16,10.95,1.37,3.21,6.02,4.17,8.55,1.77,2.5-2.43,2.77-6.53,1.45-9.62-1.07-2.58-4.18-4.06-6.84-3.1h0Z"/>
  <path class="cls-1" d="m271.63,15.51c4.07-1.08,8.68-.38,12.05,2.24,5.06,3.74,5.98,11.67,2.15,16.59-5.25,7.05-17.8,6.37-21.86-1.57-2.04-3.89-1.78-8.92.76-12.51,1.62-2.35,4.16-3.99,6.9-4.74h0Zm1.69,4.74c-4.53,1.28-6.2,7.32-3.61,11.04,1.98,3.12,6.58,3.92,9.57,1.81,3.16-2.08,3.9-6.73,1.98-9.88-1.55-2.67-5.02-3.92-7.93-2.97h0Z"/>
</svg>