<?xml version="1.0" encoding="UTF-8"?>
<svg id="Layer_1" data-name="Layer 1" xmlns="http://www.w3.org/2000/svg" xmlns:xlink="http://www.w3.org/1999/xlink" viewBox="0 0 427.37 469.42">
  <defs>
    <style>
      .cls-1 {
        fill: url(#linear-gradient);
      }

      .cls-2 {
        fill: url(#linear-gradient-3);
      }

      .cls-3 {
        fill: url(#linear-gradient-4);
      }

      .cls-4 {
        fill: url(#linear-gradient-2);
      }

      .cls-5 {
        fill: url(#linear-gradient-6);
      }

      .cls-6 {
        fill: url(#linear-gradient-5);
      }
    </style>
    <linearGradient id="linear-gradient" x1="102.37" y1="309.74" x2="368.94" y2="309.74" gradientUnits="userSpaceOnUse">
      <stop offset=".34" stop-color="#090a62"/>
      <stop offset=".52" stop-color="#42185d"/>
      <stop offset=".96" stop-color="#d23b53"/>
      <stop offset="1" stop-color="#e23f52"/>
    </linearGradient>
    <linearGradient id="linear-gradient-2" x1="121.27" y1="145.84" x2="349.42" y2="145.84" xlink:href="#linear-gradient"/>
    <linearGradient id="linear-gradient-3" x1="199.14" y1="230.53" x2="272.11" y2="230.53" xlink:href="#linear-gradient"/>
    <linearGradient id="linear-gradient-4" x1="131.05" y1="251.73" x2="187.39" y2="251.73" xlink:href="#linear-gradient"/>
    <linearGradient id="linear-gradient-5" x1="284.15" y1="251.72" x2="340.52" y2="251.72" xlink:href="#linear-gradient"/>
    <linearGradient id="linear-gradient-6" x1="185.39" y1="165.66" x2="285.79" y2="165.66" xlink:href="#linear-gradient"/>
  </defs>
  <path class="cls-1" d="m235.51,344.95c-39.46,0-78.93,0-118.39-.02-2.33,0-4.7-.09-6.99-.48-5.66-.97-8.92-5.29-7.38-10.79,3.19-11.37,7.22-22.48,13.74-32.45,4.97-7.6,12.87-9.78,21.24-10.07,12.45-.44,24.92-.31,37.38-.53,1.12-.02,2.72-.48,3.26-1.29,5.93-8.87,14.68-12.62,24.8-13.45,21.61-1.79,43.25-1.77,64.87-.01,10.24.84,19.04,4.65,24.97,13.65.46.7,1.84,1.12,2.8,1.13,12.27.18,24.55.19,36.82.42,2.88.05,5.78.59,8.62,1.19,6.71,1.42,12.09,5.13,14.98,11.28,4.37,9.3,8.45,18.77,11.93,28.43,2.5,6.95-1,11.68-8.35,12.72-1.84.26-3.74.26-5.61.26-39.56.01-79.11.01-118.67.01Zm63.87-11.45c-.23-1.07-.27-1.73-.5-2.31-3.78-9.57-7.58-19.14-11.37-28.7-4.28-10.77-12.49-15.84-23.8-15.93-18.73-.14-37.47-.15-56.2,0-10.89.09-19.15,4.74-23.42,15.18-4.03,9.87-7.92,19.81-11.84,29.73-.22.55-.13,1.22-.19,2.02h127.32Zm-185.07.04h45.27c3.99-10.7,7.87-21.09,12-32.17-12.29.42-24.24.73-36.18,1.26-5.81.26-9.78,3.56-12.08,8.74-2.47,5.55-4.71,11.21-7.02,16.83-.7,1.7-1.29,3.44-1.99,5.33Zm243.18.06c-3.72-8.46-7.06-16.36-10.69-24.14-1.88-4.02-5.43-6.36-9.82-6.6-12.31-.67-24.63-1.06-37.33-1.58,4.18,11.22,8.07,21.68,12.03,32.32h45.81Z"/>
  <path class="cls-4" d="m121.27,191.12c.37-4.95.6-9.91,1.17-14.83.43-3.68,2.55-6.5,5.9-8.05,3.98-1.84,8.18-3.22,12.14-5.09,1.35-.63,2.67-1.93,3.36-3.27,1.5-2.9,2.5-6.05,3.88-9.02.87-1.86.87-3.44-.06-5.3-1.64-3.26-3.07-6.62-4.44-10-2.02-4.96-1.49-9.7,2.23-13.6,6.4-6.71,12.91-13.33,19.6-19.74,4.05-3.88,9.02-4.31,14.14-2.19,3.37,1.4,6.59,3.17,9.99,4.46,1.32.5,3.09.5,4.44.05,3.28-1.08,6.5-2.41,9.59-3.95,1.26-.63,2.49-1.89,3.08-3.17,1.71-3.74,2.95-7.69,4.62-11.45,2.01-4.51,5.7-7.04,10.6-7.13,9.45-.18,18.91-.18,28.36,0,4.78.09,8.41,2.57,10.4,6.98,1.69,3.75,2.92,7.7,4.65,11.43.63,1.35,1.92,2.69,3.25,3.37,2.9,1.49,6.07,2.45,9.03,3.85,1.86.88,3.42.86,5.29-.04,3.7-1.78,7.49-3.42,11.35-4.83,4.07-1.5,8.2-.99,11.34,1.98,7.21,6.81,14.3,13.78,21.13,20.97,3.56,3.74,3.64,8.51,1.78,13.19-1.31,3.3-2.8,6.55-4.42,9.71-.93,1.83-1.05,3.4-.17,5.3,1.69,3.65,2.3,8.25,4.94,10.87,2.62,2.6,7.14,3.33,10.88,4.73,6.64,2.47,10.15,7.07,10.1,14.25-.06,8.62-.08,17.24-.15,25.86,0,.74-.13,1.5-.32,2.22-.84,3.06-3.31,4.67-6.36,4.21-2.82-.43-4.67-2.71-4.61-5.78.15-7.03.54-14.05.46-21.08-.1-9.09.52-7.83-7.89-10.98-1.31-.49-2.63-.99-3.98-1.38-4.89-1.42-7.94-4.6-9.61-9.39-1.29-3.71-2.92-7.3-4.48-10.91-1.54-3.57-1.54-7.06.12-10.59,1.67-3.56,3.35-7.12,4.74-10.79.36-.96.06-2.73-.63-3.45-5.51-5.75-11.19-11.33-16.81-16.98-1.45-1.46-2.99-1.63-4.82-.68-2.75,1.41-5.59,2.64-8.34,4.03-4.19,2.11-8.4,2.35-12.73.48-3.78-1.63-7.55-3.3-11.38-4.79-3.94-1.54-6.5-4.24-7.88-8.21-1.17-3.36-2.49-6.66-3.7-10-.56-1.56-1.48-2.53-3.26-2.52-8.14.03-16.28-.05-24.42.13-.99.02-2.4,1.11-2.85,2.06-1.34,2.87-2.43,5.88-3.37,8.91-1.58,5.14-4.81,8.53-9.89,10.29-2.82.98-5.67,2-8.32,3.37-5.29,2.74-10.35,2.59-15.53-.3-2.61-1.45-5.38-2.66-8.2-3.63-.99-.34-2.74-.05-3.47.65-5.63,5.36-11.07,10.92-16.63,16.37-1.72,1.69-1.9,3.46-.89,5.56,1.54,3.2,2.98,6.46,4.51,9.67,1.58,3.34,1.6,6.68.2,10.07-1.83,4.41-3.65,8.82-5.49,13.23-1.33,3.19-3.57,5.45-6.84,6.65-3.51,1.29-7.01,2.62-10.52,3.9-1.93.7-3.1,1.83-3.08,4.08.05,7.68,0,15.36.02,23.04,0,.93.2,1.87.23,2.8.1,3.36-1.87,5.8-4.9,6.1-3.24.32-5.78-1.66-6.23-5.1-.35-2.69-.48-5.42-.57-8.13-.09-2.81-.02-5.63-.02-8.44-.09,0-.17-.01-.26-.02Z"/>
  <path class="cls-2" d="m235.7,266.93c-20.17.05-36.54-16.25-36.56-36.39-.01-20.11,16.3-36.37,36.54-36.41,19.94-.05,36.4,16.35,36.43,36.25.02,20.19-16.23,36.5-36.41,36.55Zm-.35-11.26c14.09.07,25.44-11.14,25.5-25.18.07-13.68-11.23-25.04-24.98-25.13-13.96-.09-25.36,11.04-25.49,24.89-.14,13.88,11.13,25.35,24.97,25.42Z"/>
  <path class="cls-3" d="m159.17,279.92c-15.62-.06-28.24-12.79-28.12-28.37.12-15.41,13-28.16,28.29-28,15.68.16,28.1,12.76,28.05,28.46-.05,15.5-12.65,27.97-28.22,27.92Zm16.96-27.79c.2-9.41-7.18-17.13-16.58-17.33-9.24-.2-17.13,7.45-17.25,16.74-.13,9.24,7.27,16.91,16.52,17.12,9.46.21,17.12-7.1,17.32-16.53Z"/>
  <path class="cls-6" d="m312.19,279.91c-15.7-.21-28.18-12.88-28.04-28.48.14-15.36,13.05-28.04,28.4-27.89,15.6.14,28.22,13.03,27.97,28.55-.25,15.62-12.88,28.02-28.33,27.82Zm.11-11.24c9.42.04,16.98-7.49,16.97-16.91-.01-9.26-7.49-16.86-16.71-16.96-9.28-.1-17.03,7.51-17.16,16.85-.13,9.3,7.49,16.98,16.91,17.02Z"/>
  <path class="cls-5" d="m235.78,141.32c23.88.05,44.68,16.86,49.71,40.25.31,1.43.45,3.04.11,4.44-.62,2.56-2.59,3.83-5.18,3.97-2.58.14-4.53-1.61-5.54-4.31-1.9-5.05-3.31-10.44-6.1-14.97-8.37-13.6-24.57-20.35-40.31-17.5-15.66,2.84-28.23,14.99-31.67,30.59-.14.64-.29,1.28-.48,1.91-.96,3.09-3.43,4.7-6.38,4.17-3.08-.55-5.04-3.05-4.45-6.38.59-3.3,1.44-6.6,2.65-9.72,7.6-19.62,26.59-32.49,47.63-32.45Z"/>
</svg>