<?xml version="1.0" encoding="UTF-8"?>
<svg id="Layer_1" data-name="Layer 1" xmlns="http://www.w3.org/2000/svg" xmlns:xlink="http://www.w3.org/1999/xlink" viewBox="0 0 427.37 469.42">
  <defs>
    <style>
      .cls-1 {
        fill: url(#linear-gradient);
      }

      .cls-2 {
        fill: url(#linear-gradient-3);
      }

      .cls-3 {
        fill: url(#linear-gradient-2);
      }
    </style>
    <linearGradient id="linear-gradient" x1="77.92" y1="241.9" x2="332.84" y2="241.9" gradientUnits="userSpaceOnUse">
      <stop offset=".34" stop-color="#090a62"/>
      <stop offset=".52" stop-color="#42185d"/>
      <stop offset=".96" stop-color="#d23b53"/>
      <stop offset="1" stop-color="#e23f52"/>
    </linearGradient>
    <linearGradient id="linear-gradient-2" x1="147.4" y1="221.97" x2="263.35" y2="221.97" xlink:href="#linear-gradient"/>
    <linearGradient id="linear-gradient-3" x1="192.8" y1="247.81" x2="215.72" y2="247.81" xlink:href="#linear-gradient"/>
  </defs>
  <path class="cls-1" d="m332.63,188.87c0,14.94.53,29.91-.09,44.83-2.59,62.57-31.64,108.88-86.62,138.74-11.93,6.48-24.36,12.04-36.67,17.8-1.85.86-4.71,1.39-6.35.57-17.89-8.89-36.54-16.65-53.22-27.46-40.26-26.09-63.39-63.83-70.19-111.37-1.07-7.5-1.44-15.15-1.48-22.73-.16-30.29-.07-60.58-.07-90.87,0-6.11.69-7.04,6.41-8.83,39.03-12.17,78.06-24.37,117.13-36.43,2.25-.7,5.08-.79,7.31-.1,39.46,12.14,78.87,24.48,118.31,36.67,4.13,1.28,5.65,3.67,5.61,7.92-.15,17.08-.06,34.16-.06,51.24h-.03Zm-243.48-49.1c0,20.04-.08,39.65.03,59.26.09,15.07-.57,30.23.82,45.19,4.37,46.81,26.33,83.84,65.54,109.63,15.04,9.89,32.02,16.86,48.19,25,1.11.56,3.08.13,4.36-.47,10.12-4.77,20.31-9.43,30.22-14.63,53.5-28.07,81.55-72.32,83-132.77.7-29.21.08-58.45.19-87.67,0-2.72-.73-3.91-3.41-4.73-36.41-11.21-72.77-22.57-109.19-33.76-2.11-.65-4.75-.65-6.87-.02-14.05,4.17-28.02,8.58-42.01,12.93-23.52,7.31-47.03,14.63-70.88,22.05Z"/>
  <path class="cls-3" d="m164.16,203.67c-1.13-14.98,1.52-28.88,13.38-39.62,7.75-7.02,16.89-10.75,27.25-10.8,13.3-.07,24.34,5.17,32.8,15.53,8.38,10.26,9.79,22.43,9,34.94,12.64,3.1,16.75,8.37,16.75,21,0,15.48.02,30.95,0,46.43-.02,12.81-6.73,19.53-19.46,19.54-25.75.01-51.5.02-77.24,0-12.55,0-19.2-6.69-19.21-19.3-.02-15.34,0-30.68,0-46.03,0-13.49,3.55-18.17,16.75-21.69Zm41.06,11.71c-12.94,0-25.88-.01-38.83,0-6.04,0-7.76,1.75-7.77,7.9-.02,16.14-.02,32.29,0,48.43,0,5.82,1.89,7.74,7.6,7.75,26.02.02,52.03.02,78.05,0,5.81,0,7.82-1.89,7.84-7.58.05-16.28.05-32.55,0-48.83-.02-5.84-1.88-7.66-7.67-7.67-13.08-.02-26.15,0-39.23,0Zm29.77-11.44c2.59-14.51-2.47-27.58-13.25-34.57-10.12-6.57-23.19-6.48-33.15.23-10.67,7.18-15.57,20.21-12.81,34.34h59.21Z"/>
  <path class="cls-2" d="m192.8,242.27c.42-5,3.48-9.31,8.07-10.88,4.71-1.61,9.89.07,12.72,4.13,2.78,3.98,3.08,9.63-.43,12.91-3.11,2.91-3.13,6.04-3.16,9.63-.01,1.64-.25,3.84-1.29,4.77-1.39,1.24-3.87,2.33-5.51,1.93-1.65-.4-3.06-2.56-4.13-4.23-.56-.86-.24-2.34-.19-3.53.13-3.08,0-5.78-2.78-8.16-1.71-1.47-2.23-4.33-3.29-6.57Z"/>
</svg>