<?xml version="1.0" encoding="UTF-8"?>
<svg id="Layer_1" data-name="Layer 1" xmlns="http://www.w3.org/2000/svg" viewBox="0 0 427.37 469.42">
  <defs>
    <style>
      .cls-1 {
        fill: #fff;
      }
    </style>
  </defs>
  <path class="cls-1" d="m365.59,248.21c-.79,5.92-1.55,11.85-2.38,17.77-.7,4.96-2.4,6.41-7.43,6.42-5.22.01-10.43,0-15.05,0-4.77,11.39-9.37,22.4-14.24,34.03,3.23,3.2,7.07,6.98,10.89,10.79,3.5,3.5,3.62,5.47.77,9.52-10.17,14.49-22.51,26.83-36.96,37.05-4.22,2.99-6.09,2.86-9.74-.81-3.75-3.77-7.44-7.59-10.62-10.82-11.6,4.84-22.63,9.45-34.14,14.26,0,4.53,0,9.84,0,15.14-.01,4.89-1.42,6.47-6.21,7.32-17.63,3.13-35.26,3.16-52.88-.05-4.22-.77-5.8-2.51-5.83-6.76-.03-5.41,0-10.82,0-15.68-11.35-4.72-22.37-9.31-34.19-14.23-2.82,2.9-6.27,6.52-9.79,10.06-4.67,4.71-6,4.78-11.3.99-14-10-25.95-22.02-35.88-36.06-3.25-4.59-3.16-6.3.75-10.18,3.7-3.67,7.45-7.3,10.64-10.41-4.82-11.6-9.41-22.63-14.19-34.14-4.64,0-10.05.02-15.45,0-4.62-.02-6.28-1.57-7.1-6.15-3.11-17.53-3.12-35.05,0-52.59.84-4.72,2.46-6.2,7.32-6.21,5.31-.01,10.62,0,15.26,0,4.73-11.45,9.29-22.49,14.05-34.02-3.3-3.3-7.2-7.18-11.07-11.09-3.1-3.13-3.28-5.26-.79-8.83,10.38-14.84,22.99-27.45,37.84-37.81,3.46-2.41,5.66-2.29,8.61.67,3.89,3.9,7.71,7.88,11.12,11.37,11.53-4.82,22.55-9.43,34.17-14.28,0-4.49-.01-9.89,0-15.28.01-4.66,1.49-6.44,6.08-7.11,6.03-.88,12.07-1.64,18.1-2.46,5.72,0,11.43,0,17.15,0,5.83.78,11.67,1.53,17.5,2.37,4.63.67,6.08,2.4,6.1,7.07.02,5.4,0,10.8,0,15.51,11.68,4.55,22.9,8.92,34.6,13.47,3.01-3.01,6.62-6.61,10.24-10.21,3.51-3.5,5.46-3.64,9.51-.8,14.56,10.23,26.96,22.62,37.18,37.19,2.81,4.01,2.66,5.95-.89,9.5-3.75,3.75-7.54,7.47-10.72,10.62,4.79,11.59,9.35,22.63,14.09,34.13,4.58,0,9.88,0,15.18,0,4.94.01,6.63,1.35,7.34,6.13.87,5.82,1.58,11.66,2.36,17.49v17.14Zm-173.01,130.4c14.56,2.4,28.75,2.35,43.31.04,0-5.47-.03-10.86.01-16.26.03-4.14,1.27-5.67,5.25-6.62,12.54-3,24.31-7.83,35.29-14.6,4.45-2.74,5.99-2.51,9.78,1.28,3.61,3.61,7.23,7.22,10.91,10.9,11.83-8.66,21.94-18.71,30.63-30.67-3.98-3.91-7.86-7.67-11.69-11.5-2.86-2.86-3.17-4.83-1.11-8.15,7.07-11.39,12.09-23.6,15.18-36.63.82-3.47,2.5-4.73,6.09-4.77,4.63-.05,9.26-.11,13.89.03,1.99.06,2.71-.62,3.02-2.57,2.05-12.85,2.05-25.68,0-38.53-.27-1.67-.84-2.37-2.61-2.33-4.73.1-9.46.08-14.19.01-3.72-.05-5.36-1.36-6.22-5.01-3.01-12.85-8.01-24.87-14.91-36.11-2.25-3.68-2-5.55,1.07-8.63,3.61-3.61,7.28-7.18,10.94-10.78-8.77-11.97-18.85-22.08-30.75-30.71-3.57,3.62-7.01,7.13-10.49,10.61-3.42,3.42-5.24,3.67-9.35,1.12-10.97-6.81-22.79-11.53-35.3-14.58-4.26-1.04-5.42-2.43-5.45-6.74-.04-4.63.08-9.26-.1-13.89-.03-.82-1.04-2.18-1.78-2.31-13.11-2.32-26.25-2.27-39.38-.06-1.55.26-2.13.9-2.1,2.51.1,4.53.06,9.06.02,13.59-.03,4.37-1.14,5.89-5.3,6.89-12.74,3.05-24.65,8.05-35.8,14.91-3.67,2.26-5.56,1.99-8.64-1.09-3.83-3.82-7.59-7.7-11.41-11.58-11.99,8.73-22.06,18.83-30.7,30.76,4.06,4,8.02,7.84,11.9,11.75,2.58,2.61,2.91,4.65,1.03,7.69-7.18,11.56-12.31,23.93-15.37,37.18-.69,2.97-2.69,4.47-5.77,4.48-4.63,0-9.26,0-13.89.02-1.04,0-2.08.11-3.06.17-2.47,13.85-2.3,27.36-.2,40.89.29,1.9,1.15,2.37,2.93,2.32,4.33-.11,8.67-.05,13-.03,4.78.01,6.1.99,7.22,5.59,3.06,12.52,7.87,24.3,14.65,35.27,2.47,4,2.22,5.74-1.13,9.1-3.74,3.75-7.51,7.47-11.21,11.16,7.36,10.66,20.31,23.57,30.63,30.55,3.63-3.64,7.3-7.34,10.99-11.02,3.59-3.59,5.21-3.81,9.57-1.14,10.74,6.57,22.18,11.43,34.43,14.37,5.28,1.27,6.13,2.45,6.14,8.03.01,5.01,0,10.01,0,15.07Z"/>
  <path class="cls-1" d="m311.54,239.85c.17,53.41-43.31,97.03-97.08,97.37-53.45.34-97.37-43.44-97.5-97.21-.13-53.51,43.29-97.07,97.04-97.36,53.52-.29,97.36,43.4,97.53,97.2Zm-183.78.07c-.02,47.84,38.46,86.35,86.36,86.44,47.84.08,86.41-38.37,86.53-86.26.12-47.95-38.52-86.63-86.5-86.57-47.9.06-86.37,38.53-86.39,86.4Z"/>
  <path class="cls-1" d="m255.92,190.22c6.09-4.66,8.43-5.21,10.88-2.59,2.43,2.6,1.76,5.14-2.87,10.52.65.87,1.33,1.79,2.02,2.7,19.18,25.36,17.22,60.68-4.67,83.73-.47.5-.95,1.01-1.48,1.44-2.28,1.84-5.26,1.75-7.25-.19-2.03-1.97-2.25-4.9-.41-7.22,1.22-1.54,2.65-2.92,3.9-4.43,15.64-18.97,16.35-46.59,1.72-66.34-.46-.62-.99-1.19-1.82-2.18-1.93,2.01-3.72,3.94-5.57,5.79-6.54,6.56-13.07,13.12-19.67,19.62-1.23,1.21-1.77,2.15-1.14,4.04,2.38,7.16-.59,14.79-6.99,18.68-6.36,3.87-14.55,2.83-19.82-2.5-5.17-5.23-6.16-13.32-2.41-19.61,3.84-6.43,11.43-9.37,18.65-7.15,1.36.42,2.38.76,3.65-.54,8.21-8.37,16.53-16.63,24.82-24.93.26-.26.46-.59.84-1.08-6.42-5.29-13.59-8.79-21.56-10.61-31.66-7.23-61.92,13.54-66.09,45.7-2.14,16.51,2.67,31.16,13.92,43.57.46.51.97.99,1.41,1.52,2.14,2.57,2.09,5.56-.11,7.68-2.15,2.07-5.35,2.06-7.68-.25-5.22-5.18-9.37-11.14-12.53-17.78-19.44-40.88,7.96-88.59,53.09-92.43,16.62-1.42,31.54,3.11,44.85,13.09.78.59,1.56,1.17,2.32,1.74Zm-41.79,55.07c3.06.04,5.42-2.29,5.42-5.35,0-2.95-2.2-5.24-5.13-5.34-3.09-.11-5.49,2.14-5.56,5.2-.07,3.08,2.21,5.46,5.27,5.5Z"/>
</svg>