<?xml version="1.0" encoding="UTF-8"?>
<svg id="Layer_1" data-name="Layer 1" xmlns="http://www.w3.org/2000/svg" viewBox="0 0 427.37 469.42">
  <defs>
    <style>
      .cls-1 {
        fill: #fff;
      }
    </style>
  </defs>
  <path class="cls-1" d="m246.01,165.13c-12.08,0-24.16-.02-36.23.01-4.28.01-6.92,2.97-6.19,6.77.55,2.85,2.84,4.44,6.55,4.44,23.78.01,47.56,0,71.35,0,.65,0,1.32.02,1.96-.08,3.96-.64,6.02-4.98,3.97-8.37-1.3-2.16-3.32-2.8-5.74-2.8-11.89.03-23.78.02-35.67.02Z"/>
  <path class="cls-1" d="m314.28,91.49c2.02.7,4.15,1.19,6.05,2.15,7.5,3.82,11.31,10.08,11.74,18.44.06,1.12.03,2.25.03,3.37,0,57.7.02,115.39-.06,173.09,0,2.49.76,3.82,2.9,5.03,8.46,4.8,16.79,9.85,25.22,14.69,3.15,1.81,5.04,4.24,4.58,7.94-.46,3.68-2.82,5.73-6.36,6.61-2.99.75-5.94,1.62-9.15,2.51.5.86.86,1.56,1.29,2.22,5.7,8.69,11.42,17.36,17.1,26.06,3.38,5.16,2.58,9.01-2.53,12.38-5.78,3.82-11.56,7.63-17.37,11.4-4.84,3.13-8.79,2.3-11.97-2.51-5.52-8.36-11-16.74-16.49-25.11-.66-1-1.34-1.99-2.22-3.3-2.09,2.58-4.01,4.95-5.92,7.31-2.71,3.35-5.44,4.44-8.78,3.36-3.58-1.15-5.02-3.88-5.43-7.43-.93-8.18-1.94-16.36-2.93-24.53-.05-.45-.19-.88-.35-1.57-1.08,0-2.09,0-3.1,0-17.05,0-34.09.02-51.14-.01-4.7,0-7.56-3.5-6.13-7.41,1.05-2.87,3.27-3.83,6.18-3.83,16.58.03,33.16.02,49.74.01h3.21c-1.26-10.24-2.49-20.16-3.67-30.1-.19-1.56-.4-3.23-.08-4.73,1.07-5.06,6.32-7.15,11.34-4.4,5.99,3.28,11.82,6.84,17.73,10.27.87.51,1.75.99,2.95,1.68v-143.06H98.12c0,1.2,0,2.21,0,3.21,0,51.89,0,103.78,0,155.67,0,7.9,3.59,11.46,11.52,11.46,25.76,0,51.51,0,77.27,0,.94,0,1.88-.05,2.81.04,2.92.3,5.04,2.55,5.13,5.39.1,2.93-2.03,5.38-5.05,5.75-.83.1-1.68.06-2.53.06-25.94,0-51.89,0-77.83,0-13.92,0-22.55-8.65-22.55-22.66-.01-61.44.13-122.89-.12-184.33-.05-11.79,4.11-21.7,17.9-25.12,69.88,0,139.75,0,209.63,0Zm-216.01,38.89h222.6c0-5.43,0-10.66,0-15.88,0-8.29-3.48-11.76-11.78-11.77-66.39,0-132.77,0-199.16,0-.84,0-1.69-.02-2.53.02-4.79.23-8.78,3.54-9.04,8.34-.35,6.33-.09,12.69-.09,19.29Zm208.92,210.29c1.44-1.77,2.47-3.04,3.5-4.31,4.34-5.37,9.78-5.17,13.56.54,5.16,7.81,10.27,15.65,15.42,23.47,1.33,2.02,2.69,4.01,4.13,6.17,4.5-2.96,8.82-5.81,13.18-8.68-6.71-10.22-13.21-20.06-19.65-29.94-3.46-5.3-1.5-10.48,4.54-12.23,1.75-.5,3.49-1.03,5.78-1.7-15.89-9.31-31.22-18.29-47.11-27.6,2.25,18.37,4.41,35.97,6.65,54.28Z"/>
  <path class="cls-1" d="m209.34,247.35c-23.5,0-47,0-70.49,0-1.12,0-2.26.02-3.36-.14-2.54-.37-4.37-2.41-4.56-4.95-.21-2.73,1.29-5.09,3.87-5.77,1.16-.31,2.4-.36,3.61-.36,47.46-.02,94.93-.02,142.39,0,1.11,0,2.26.06,3.34.32,2.57.64,4.28,3.09,4.1,5.65-.19,2.64-2.12,4.77-4.75,5.12-1.11.15-2.24.12-3.36.12-23.59,0-47.18,0-70.78,0Z"/>
  <path class="cls-1" d="m155.51,165.13c5.9,0,11.8-.02,17.7,0,4.4.02,6.57,2.12,6.59,6.56.05,11.89.05,23.79,0,35.68-.02,4.42-2.21,6.56-6.59,6.57-11.99.03-23.97.03-35.96,0-4.18-.01-6.35-2.04-6.37-6.15-.07-12.17-.07-24.35,0-36.52.02-4.11,2.2-6.11,6.38-6.13,6.09-.04,12.17,0,18.26,0Zm12.92,11.4h-26.2v26.01h26.2v-26.01Z"/>
  <path class="cls-1" d="m197.1,271.71c19.84,0,39.68.02,59.52-.02,2.86,0,5.23.66,6.43,3.48,1.33,3.14-.47,6.66-3.81,7.46-1.08.26-2.22.31-3.34.31-39.12.01-78.24.02-117.35,0-1.21,0-2.45-.06-3.62-.34-2.6-.64-4.17-2.95-4.02-5.67.15-2.66,2.04-4.76,4.71-5.1,1.02-.13,2.05-.1,3.08-.1,19.47,0,38.93,0,58.4,0Z"/>
  <path class="cls-1" d="m246.01,165.13c11.89,0,23.78.02,35.67-.02,2.42,0,4.44.64,5.74,2.8,2.05,3.39-.01,7.73-3.97,8.37-.64.1-1.31.08-1.96.08-23.78,0-47.56,0-71.35,0-3.71,0-6.01-1.6-6.55-4.44-.73-3.81,1.9-6.76,6.19-6.77,12.08-.04,24.16-.01,36.23-.01Z"/>
  <path class="cls-1" d="m245.91,211.83c-11.89,0-23.78,0-35.67,0-4.28,0-6.67-1.95-6.74-5.42-.07-3.56,2.45-5.79,6.74-5.8,23.78-.02,47.56-.02,71.34,0,4.06,0,6.66,2.29,6.67,5.65,0,3.37-2.58,5.56-6.67,5.57-11.89.02-23.78,0-35.67,0Z"/>
  <path class="cls-1" d="m219.74,317.94c0,2.99-2.55,5.58-5.51,5.62-3.17.04-5.71-2.53-5.64-5.7.07-3.07,2.56-5.51,5.58-5.47,3.01.04,5.57,2.6,5.57,5.56Z"/>
  <path class="cls-1" d="m155.7,111.63c3.12-.04,5.62,2.3,5.7,5.34.08,3.13-2.53,5.81-5.62,5.77-3.03-.04-5.56-2.56-5.56-5.55,0-3.07,2.41-5.52,5.49-5.56Z"/>
  <path class="cls-1" d="m135.2,111.62c3.13.02,5.51,2.39,5.51,5.48,0,3.09-2.41,5.6-5.42,5.64-3.1.05-5.8-2.63-5.72-5.69.08-3.05,2.57-5.45,5.63-5.43Z"/>
  <path class="cls-1" d="m114.64,111.67c3.11,0,5.55,2.4,5.55,5.46,0,3.01-2.52,5.6-5.48,5.61-3.09.02-5.71-2.62-5.66-5.71.05-3.1,2.42-5.37,5.59-5.36Z"/>
</svg>