<?xml version="1.0" encoding="UTF-8"?>
<svg id="Layer_1" data-name="Layer 1" xmlns="http://www.w3.org/2000/svg" viewBox="0 0 427.37 469.42">
  <defs>
    <style>
      .cls-1 {
        fill: #fff;
      }
    </style>
  </defs>
  <path class="cls-1" d="m298.58,204.37c0-7.49-.33-14.6.1-21.67.39-6.45-.33-10.54-7.77-13.48-12.01-4.75-17.28-18.9-13.73-31.41,3.58-12.63,15.49-20.62,29.09-19.51,12.19.99,22.76,11.24,24.23,23.46,1.58,13.18-5.97,25.41-18.51,29.39-2.98.94-3.91,2.17-3.83,5.26.25,10.57.15,21.15.21,31.72.02,3.77-1.84,5.73-5.67,5.74-11.44.02-22.88,0-34.87,0,4.18,6.36,7.07,12.76,8.13,19.89.08.56,1.39,1.33,2.13,1.34,12.02.08,24.05,0,36.07.11,2.38.02,2.26-1.62,2.7-3.02,3.45-11.06,12.73-18.56,24.18-19.54,10.55-.9,21.15,5.01,26.18,14.6,7.37,14.06,1.13,31.5-13.51,37.77-14.76,6.32-31.74-1.38-36.54-16.83-.91-2.93-2.16-3.65-5.06-3.6-11.02.19-22.04.12-33.06.04-2.12-.02-2.81.55-3.47,2.77-1.83,6.21-4.29,12.25-6.52,18.42.11,0,1.03.13,1.96.13,10.35.01,20.71,0,31.06.01,4.73,0,6.3,1.78,6.26,6.45-.1,10.91,0,21.82-.14,32.72-.03,2.29,1.18,2.63,2.93,3.15,12.17,3.67,19.86,14.45,19.51,27.14-.34,12.14-8.81,22.53-20.8,25.49-14.02,3.46-28.47-4.81-32.57-18.63-4.21-14.18,3.49-29.14,17.59-33.61,2.97-.94,3.91-2.15,3.82-5.24-.25-8.01-.08-16.03-.08-24.04,0-1.19,0-2.38,0-3.92-2.71,0-5.02,0-7.33,0-10.13,0-20.26-.07-30.39.06-1.78.02-3.62.73-5.32,1.4-5.74,2.25-11.43,4.62-17.81,7.22,0,.36,0,1.66,0,2.96,0,31.95,0,63.9,0,95.84,0,5.69-1.4,7.12-7.05,7.14-6.12.02-12.25.06-18.37-.01-8.1-.09-13.12-4.57-14.17-12.57-.49-3.75-.92-7.51-1.29-11.27-.26-2.65-1.51-4.2-4.21-4.83-12.87-3.02-24.95-8.04-36.19-14.99-2.35-1.46-4.3-1.21-6.36.53-2.98,2.5-6.05,4.91-9.15,7.27-5.97,4.56-12.78,4.18-18.14-1.04-4.86-4.74-9.66-9.54-14.41-14.4-5.08-5.2-5.45-12.02-1.03-17.87,2.35-3.11,4.77-6.16,7.27-9.15,1.81-2.16,2.07-4.2.54-6.67-6.92-11.14-11.86-23.13-14.89-35.88-.68-2.89-2.28-4.08-5.04-4.37-4.2-.43-8.42-.84-12.59-1.51-5.98-.97-10.49-5.41-10.78-11.47-.39-7.99-.39-16.03.01-24.02.31-6.06,4.83-10.46,10.84-11.41,4.28-.68,8.61-1.11,12.92-1.58,2.52-.27,3.94-1.47,4.56-4.04,3.07-12.85,8.01-24.96,15-36.19,1.44-2.31,1.31-4.3-.42-6.39-2.56-3.08-5.06-6.22-7.47-9.42-4.4-5.83-3.97-12.65,1.12-17.86,4.75-4.85,9.55-9.66,14.4-14.41,5.22-5.1,12.06-5.53,17.87-1.15,3.2,2.41,6.34,4.91,9.41,7.48,2.08,1.74,4.03,1.91,6.37.47,11.25-6.95,23.32-11.97,36.2-14.98,2.71-.63,3.89-2.25,4.15-4.88.4-3.98.84-7.97,1.37-11.93.88-6.69,5.7-11.46,12.47-11.74,7.22-.3,14.47-.18,21.71-.05,3.89.07,5.34,1.99,5.34,6.45,0,32.06.05,64.12-.06,96.18-.01,3.1.4,4.57,3.99,5.22,4.29.78,8.53,2.53,12.42,4.57,2.89,1.52,5.64,2.22,8.84,2.19,10.58-.11,21.15-.04,31.73-.04h3.93Zm-70.36,134.83c-26.22-1.71-48.56-11.57-66.64-30.29-18.2-18.83-27.5-41.57-27.92-67.72-.35-21.79,5.87-41.77,18.81-59.36,18.71-25.45,44.21-38.86,75.57-41.24v-41.12c-5.76,0-11.31-.07-16.85.03-2.23.04-3.32,1.52-3.56,3.69-.43,3.87-.92,7.73-1.33,11.6-.7,6.66-4.09,11.08-10.53,12.65-12.53,3.06-24.23,7.97-35.27,14.62-5.3,3.19-10.64,2.69-15.57-1.1-3.18-2.44-6.3-4.95-9.42-7.47-2.3-1.86-4.37-1.75-6.46.39-4.44,4.53-8.94,9-13.45,13.46-2.02,2-2.11,3.99-.33,6.18,2.32,2.85,4.58,5.74,6.85,8.63,4.74,6.02,5.18,11.02,1.24,17.51-6.34,10.44-10.92,21.59-13.86,33.44-1.8,7.23-5.87,10.63-13.33,11.43-3.54.38-7.07.89-10.61,1.2-3.01.26-4.33,1.73-4.29,4.76.08,6.34.07,12.69,0,19.03-.03,2.83,1.16,4.33,4.04,4.63,4.31.44,8.63.93,12.91,1.59,5.91.91,9.69,4.48,11.06,10.18,2.98,12.44,7.81,24.06,14.46,34.98,3.4,5.58,2.9,11.01-1.07,16.14-2.32,2.99-4.65,5.97-7.08,8.87-2.08,2.48-2.11,4.64.3,6.97,4.4,4.25,8.72,8.6,12.98,12.99,2.32,2.39,4.5,2.38,6.99.29,2.89-2.43,5.9-4.74,8.88-7.07,5.14-4,10.59-4.4,16.15-1.04,10.83,6.55,22.35,11.35,34.67,14.33,6.62,1.6,10.05,5.99,10.76,12.82.39,3.76.9,7.51,1.29,11.27.22,2.13,1.11,3.82,3.35,3.88,5.64.15,11.28.05,16.97.05.14-.73.29-1.15.29-1.57.01-13.02.01-26.03.01-39.6Zm.01-9.92v-3.22c0-13.25-.05-26.49.05-39.74.02-2.39-.5-3.35-3.14-3.83-20.71-3.74-35.58-21.77-35.53-42.75.06-20.9,15.12-38.82,35.89-42.45,2.36-.41,2.8-1.34,2.79-3.45-.07-13.58-.03-27.16-.05-40.74,0-.85-.15-1.7-.23-2.53-42.05,1.14-84.77,37.43-84.76,89.36,0,52.06,42.89,88.26,84.98,89.35Zm38.32-89.04c-.18-20.06-14.89-34.21-35.31-33.98-17.4.2-32.42,16.08-32.09,34.05.36,19.23,16.24,34.03,35.5,33.37,17.27-.59,32.06-15.71,31.9-33.44Zm36.72,111.91c9.72.06,17.73-7.72,17.88-17.37.15-9.8-7.85-18-17.58-18.03-9.75-.03-17.7,7.74-17.81,17.4-.12,9.96,7.64,17.93,17.52,17.99Zm.22-224.44c-9.93.02-17.78,7.88-17.75,17.78.03,9.73,7.88,17.59,17.6,17.62,9.8.03,17.88-8.05,17.81-17.8-.07-9.69-8.02-17.61-17.66-17.59Zm57.19,112.12c-.05-9.75-7.95-17.65-17.59-17.59-9.91.05-17.81,7.97-17.77,17.8.05,9.86,8.07,17.7,17.96,17.55,9.76-.15,17.45-8,17.4-17.76Z"/>
</svg>